<svg viewBox="-498 -401 996 802" width="996" height="802" style="background-color: rgb(170, 170, 170);"><defs></defs><g inkscape:label="Outline" inkscape:groupmode="layer" id="outline_layer"><path d="M 453.68 259.45 L 0 605.37 L -85.07 502.68 L -85.07 524.3 L -255.2 410.79 L -453.68 259.45 L -453.68 0 L 0 -345.93 L 453.68 0 z" fill="none" stroke="black" id="outline" stroke-width="0.65mm"></path></g><g inkscape:label="Edges" inkscape:groupmode="layer" id="edges_layer"><path d="M -26.65 -138.8 L 0 -159.13 L 0 -164.32 L 0 -166.91 L 0 -169.5 L 0 -172.1 L 0 -174.69 L 0 -177.29 L 0 -179.88 L 0 -182.48 L 0 -185.07 L 0 -187.67 L 0 -190.26 L 0 -192.85 L 0 -195.45 L 0 -198.04 L 0 -200.64 L 0 -203.23 L 0 -205.83 L 0 -208.42 L 0 -211.02 L 0 -213.61 L 0 -216.2 L -14.17 -205.4 L -283.55 0 L -255.19 21.62 L -226.84 0 L -198.48 21.62 L -170.13 0 L -141.77 21.62 L -114.16 0.56 M 0 -216.2 L 28.36 -194.58 L 226.84 -43.24 L 238.18 -34.59 L 249.52 -25.94 L 255.19 -21.62 L 226.84 0 L 198.48 -21.62 L 170.13 0 L 141.77 -22.49 L 153.12 -13.84 M 0 -159.13 L 28.36 -137.51 L 28.35 -136.21 L 28.35 -134.91 L 39.7 -126.26 L 39.7 -123.67 L 51.04 -115.02 L 51.04 -112.43 L 62.38 -103.78 L 62.38 -101.18 L 73.72 -92.54 L 73.72 -89.94 L 85.07 -81.29 L 85.06 -78.7 L 96.41 -70.05 L 96.41 -67.46 L 107.75 -58.81 L 107.75 -56.21 L 119.09 -47.56 L 119.09 -44.97 L 130.43 -36.32 L 130.43 -33.73 L 141.78 -25.08 L 141.77 -22.49 L 113.42 0 L 85.07 -21.62 L 56.71 0 L 59.73 2.31 L 66.06 7.13 L 71.17 11.03 L 94.72 28.98 L 170.13 86.48 L 0 216.2 L -170.13 86.48 L -85.06 21.62 L -113.42 0 M -85.06 21.62 L -85.06 121.51 L -56.71 99.89 L -85.06 78.27 M -56.71 99.89 L -56.71 102.48 L -45.37 93.83 L -73.72 72.21 L -83.36 79.56 M -45.37 93.83 L -45.37 96.43 L -34.03 87.78 L -62.38 66.16 L -72.02 73.51 M -34.03 87.78 L -34.03 90.37 L -22.68 81.73 L -51.04 60.1 L -60.68 67.46 M -22.68 81.73 L -22.68 84.32 L -11.34 75.67 L -39.7 54.05 L -49.34 61.4 M -11.34 75.67 L -11.34 78.27 L 0 69.62 L -28.35 48 L -38 55.35 M 0 69.62 L 0 72.21 L 28.35 50.59 L 28.35 53.19 L 39.7 61.83 L 39.7 64.43 L 51.04 73.08 L 51.04 75.67 L 56.71 80 M 51.04 75.67 L 22.68 97.29 L 22.68 94.7 L 51.04 73.08 M 22.68 94.7 L 11.34 86.05 L 39.7 64.43 M 11.34 86.05 L 11.34 83.45 L 39.7 61.83 M 11.34 83.45 L 0 74.81 L 28.35 53.19 M 0 74.81 L 0 77.4 L 0 80 L 0 82.59 L 0 86.48 L -85.06 151.34 M 0 86.48 L 85.06 151.34 M 22.68 97.29 L 34.03 105.94 L 56.71 88.64 M 34.03 105.94 L 34.03 108.53 L 56.71 91.24 M 34.03 108.53 L 45.37 117.18 L 56.71 108.53 M 45.37 117.18 L 45.37 119.78 L 56.71 111.13 M 45.37 119.78 L 56.71 128.43 L 56.71 125.83 L 56.71 123.24 L 56.71 120.64 L 56.71 0 M 28.35 50.59 L 0 28.97 L -26.65 49.29 M 0 28.97 L 0 26.38 L 0 25.08 L 0 23.78 L 0 22.49 L 0 21.19 L 0 19.89 L 0 18.59 L 0 17.3 L 0 16 L 0 14.7 L 0 13.41 L 0 12.11 L 28.35 -9.51 L 39.7 -0.86 L 39.7 1.73 L 51.04 10.38 L 51.04 11.67 L 51.04 12.97 L 56.71 17.3 M 51.04 12.97 L 22.68 34.59 L 22.68 32 L 51.04 10.38 M 22.68 32 L 11.34 23.35 L 39.7 1.73 M 11.34 23.35 L 11.34 20.76 L 39.7 -0.86 M 11.34 20.76 L 0 12.11 M 22.68 34.59 L 34.03 43.24 L 56.71 25.94 M 34.03 43.24 L 34.03 45.83 L 56.71 28.54 M 34.03 45.83 L 39.14 49.73 L 45.37 54.48 L 56.71 45.84 M 45.37 54.48 L 45.37 57.07 L 56.71 48.43 M 45.37 57.07 L 50.49 60.98 L 56.71 65.73 M 28.35 -9.51 L 28.35 -12.11 L 0 9.51 L 0 6.92 L -28.35 -14.7 L -38 -7.35 M 0 6.92 L -11.34 15.57 L -11.34 12.97 L -39.7 -8.65 L -49.34 -1.3 M -11.34 12.97 L -22.68 21.62 L -22.68 19.03 L -51.04 -2.59 L -60.68 4.76 M -22.68 19.03 L -34.03 27.67 L -34.03 25.08 L -62.38 3.46 L -72.02 10.81 M -34.03 25.08 L -45.37 33.73 L -45.37 31.13 L -73.72 9.51 L -83.36 16.86 M -45.37 31.13 L -56.71 39.78 L -56.71 37.19 L -85.06 15.57 L -89.03 18.59 M -56.71 37.19 L -68.05 45.83 L -68.05 43.24 L -85.06 30.27 M -68.05 43.24 L -79.39 51.89 L -79.39 49.29 L -85.06 53.62 M -79.39 49.29 L -85.06 44.97 M 28.35 -12.11 L 0 -33.73 L -26.65 -13.4 M 0 -33.73 L 0 -36.32 L 0 -37.62 L 0 -38.92 L 0 -40.21 L 0 -41.51 L 0 -42.81 L 0 -44.11 L 0 -45.4 L 0 -46.7 L 0 -48 L 0 -49.29 L 0 -50.59 L 28.35 -72.21 L 39.7 -63.56 L 39.7 -60.97 L 51.04 -52.32 L 51.04 -51.02 L 51.04 -49.73 L 56.71 -45.4 L 62.38 -41.08 L 62.38 -38.48 L 73.72 -29.84 L 73.72 -27.24 L 83.08 -20.11 M 73.72 -27.24 L 45.37 -5.63 L 50.38 -1.8 L 56.71 3.03 M 45.37 -5.63 L 45.37 -8.22 L 73.72 -29.84 M 45.37 -8.22 L 39.03 -13.05 L 34.03 -16.87 L 62.38 -38.48 M 34.03 -16.87 L 34.03 -19.46 L 62.38 -41.08 M 34.03 -19.46 L 22.69 -28.11 L 51.04 -49.73 M 22.69 -28.11 L 22.69 -30.7 L 51.04 -52.32 M 22.69 -30.7 L 11.34 -39.35 L 39.7 -60.97 M 11.34 -39.35 L 11.34 -41.94 L 39.7 -63.56 M 11.34 -41.94 L 0 -50.59 M 28.35 -72.21 L 28.35 -74.81 L 0 -53.19 L 0 -54.48 L 0 -55.78 L -28.35 -77.4 L -38 -70.05 M 0 -55.78 L -11.34 -47.13 L -11.34 -48.43 L -11.34 -49.73 L -39.7 -71.35 L -49.34 -64 M -11.34 -49.73 L -22.68 -41.08 L -22.68 -42.38 L -22.68 -43.67 L -51.04 -65.29 L -60.68 -57.94 M -22.68 -43.67 L -34.03 -35.03 L -34.03 -36.32 L -34.03 -37.62 L -62.38 -59.24 L -72.02 -51.89 M -34.03 -37.62 L -45.37 -28.97 L -45.37 -31.57 L -73.72 -53.19 L -83.36 -45.84 M -45.37 -31.57 L -56.71 -22.92 L -56.71 -25.51 L -85.06 -47.13 L -94.71 -39.78 M -56.71 -25.51 L -68.05 -16.86 L -68.05 -19.46 L -96.41 -41.08 L -106.05 -33.73 M -68.05 -19.46 L -79.39 -10.81 L -79.39 -13.4 L -107.75 -35.03 L -117.39 -27.67 M -79.39 -13.4 L -90.74 -4.76 L -90.74 -7.35 L -119.09 -28.97 L -128.73 -21.62 M -90.74 -7.35 L -102.08 1.3 L -102.08 -1.3 L -108.6 3.68 M -102.08 -1.3 L -130.43 -22.92 L -140.07 -15.57 M 28.35 -74.81 L 0 -96.43 L -26.65 -76.1 M 0 -96.43 L 0 -99.02 L 0 -100.32 L 0 -101.62 L 0 -102.91 L 0 -104.21 L 0 -105.51 L 0 -106.81 L 0 -108.1 L 0 -109.4 L 0 -110.7 L 0 -111.99 L 0 -113.29 L 28.35 -134.91 M 0 -113.29 L 11.34 -104.64 L 39.7 -126.26 M 11.34 -104.64 L 11.34 -102.05 L 39.7 -123.67 M 11.34 -102.05 L 22.69 -93.4 L 51.04 -115.02 M 22.69 -93.4 L 22.69 -90.81 L 51.04 -112.43 M 22.69 -90.81 L 34.03 -82.16 L 62.38 -103.78 M 34.03 -82.16 L 34.03 -79.57 L 62.38 -101.18 M 34.03 -79.57 L 38.86 -75.88 L 45.37 -70.92 L 73.72 -92.54 M 45.37 -70.92 L 45.37 -68.33 L 73.72 -89.94 M 45.37 -68.33 L 50.23 -64.61 L 56.71 -59.67 L 85.07 -81.29 M 56.71 -59.67 L 56.72 -57.08 L 85.06 -78.7 M 56.72 -57.08 L 61.6 -53.35 L 68.05 -48.43 L 96.41 -70.05 M 68.05 -48.43 L 68.06 -45.84 L 96.41 -67.46 M 68.06 -45.84 L 72.96 -42.09 L 79.39 -37.19 L 107.75 -58.81 M 79.39 -37.19 L 79.4 -34.6 L 107.75 -56.21 M 79.4 -34.6 L 84.33 -30.83 L 90.74 -25.94 L 119.09 -47.56 M 90.74 -25.94 L 90.74 -24.65 L 90.74 -23.35 L 119.09 -44.97 M 90.74 -23.35 L 95.69 -19.57 L 102.08 -14.7 L 130.43 -36.32 M 102.08 -14.7 L 102.08 -13.4 L 102.08 -12.11 L 130.43 -33.73 M 102.08 -12.11 L 107.05 -8.32 L 113.42 -3.46 L 141.78 -25.08 M 113.42 -3.46 L 113.42 -2.16 L 113.43 -0.87 L 141.77 -22.49 M 28.36 -137.51 L 0 -115.89 L 0 -117.18 L 0 -118.48 L -28.35 -140.1 L -38 -132.75 M 0 -118.48 L -11.34 -109.83 L -11.34 -111.13 L -11.34 -112.43 L -39.7 -134.05 L -49.34 -126.7 M -11.34 -112.43 L -22.68 -103.78 L -22.68 -105.08 L -22.68 -106.37 L -51.04 -127.99 L -60.68 -120.64 M -22.68 -106.37 L -34.03 -97.72 L -34.03 -99.02 L -34.03 -100.32 L -62.38 -121.94 L -72.02 -114.59 M -34.03 -100.32 L -45.37 -91.67 L -45.37 -92.97 L -45.37 -94.27 L -73.72 -115.89 L -83.36 -108.54 M -45.37 -94.27 L -56.71 -85.62 L -56.71 -86.91 L -56.71 -88.21 L -85.06 -109.83 L -94.71 -102.48 M -56.71 -88.21 L -68.05 -79.56 L -68.05 -80.86 L -68.05 -82.16 L -96.41 -103.78 L -106.05 -96.43 M -68.05 -82.16 L -79.39 -73.51 L -79.39 -74.81 L -79.39 -76.1 L -107.75 -97.72 L -117.39 -90.37 M -79.39 -76.1 L -90.74 -67.46 L -90.74 -68.75 L -90.74 -70.05 L -119.09 -91.67 L -128.73 -84.32 M -90.74 -70.05 L -102.08 -61.4 L -102.08 -64 L -130.43 -85.62 L -140.07 -78.27 M -102.08 -64 L -113.42 -55.35 L -113.42 -57.94 L -141.77 -79.56 L -151.42 -72.21 M -113.42 -57.94 L -124.76 -49.3 L -124.76 -51.89 L -153.12 -73.51 L -162.76 -66.16 M -124.76 -51.89 L -136.1 -43.24 L -136.1 -45.84 L -164.46 -67.46 L -174.1 -60.11 M -136.1 -45.84 L -147.45 -37.19 L -147.45 -39.78 L -175.8 -61.4 L -185.44 -54.05 M -147.45 -39.78 L -158.79 -31.13 L -158.79 -33.73 L -187.14 -55.35 L -196.78 -48 M -158.79 -33.73 L -170.13 -25.08 L -170.13 -27.67 L -198.48 -49.29 L -208.13 -41.94 M -170.13 -27.67 L -181.47 -19.03 L -181.47 -21.62 L -209.83 -43.24 L -219.47 -35.89 M -181.47 -21.62 L -192.81 -12.97 L -192.81 -15.57 L -221.17 -37.19 L -230.81 -29.84 M -192.81 -15.57 L -204.16 -6.92 L -204.16 -9.51 L -232.51 -31.13 L -242.15 -23.78 M -204.16 -9.51 L -215.5 -0.87 L -215.5 -3.46 L -223.44 2.59 M -215.5 -3.46 L -243.85 -25.08 L -253.49 -17.73 M -228.54 1.3 L -255.19 -19.03 L -281.85 1.3 M -116.54 2.38 L -141.77 -16.86 L -151.42 -9.51 M -126.18 9.73 L -153.12 -10.81 L -162.76 -3.46 M -185.44 8.65 L -175.8 1.3 L -173.82 2.81 L -164.46 -4.76 L -136.1 16.86 L -142.06 21.4 M -183.46 10.16 L -187.14 7.35 L -196.78 14.7 M -193.1 17.51 L -198.48 13.4 L -203.87 17.51 M -85.06 502.68 L -85.06 524.3 L -255.19 410.79 L -453.68 259.45 L -453.68 0 L 0 -345.93 L 453.68 0 L 453.68 259.45 L 0 605.37 L -85.06 502.68 M 0 605.37 L 0 345.93 L -453.68 0 M 0 345.93 L 453.68 0 " fill="none" stroke="black" stroke-width="0.35mm"></path></g><g inkscape:label="Polygons" inkscape:groupmode="layer" id="polygons_layer" style="display:none"><path d="M 0 345.93 L 0 345.93 L 0 605.37 L 0 605.37 L -85.06 502.68 L -85.06 511.32 L -85.06 511.32 L -85.06 511.32 L -85.06 518.4 L -85.06 518.4 L -85.06 518.4 L -85.06 524.3 L -85.06 524.3 L -85.06 524.3 L -255.19 410.79 L -453.68 259.45 L -453.68 0 L -453.68 0 L -453.68 0 L -368.61 64.86 L -368.62 64.86 L -368.61 64.86 L -311.9 108.1 L -311.9 108.1 L -311.91 108.1 z" fill="none" stroke="black" id="0|0|10||80" stroke-width="0.35mm"></path><path d="M 0 -213.61 L 0 -213.61 L 0 -213.61 L 0 -213.61 L 0 -211.02 L 0 -211.02 L 0 -211.02 L 0 -211.02 L 0 -208.42 L 0 -208.42 L 0 -208.42 L 0 -208.42 L 0 -205.83 L 0 -205.83 L 0 -205.83 L 0 -205.83 L 0 -205.83 L 0 -203.23 L 0 -203.23 L 0 -203.23 L 0 -203.23 L 0 -200.64 L 0 -200.64 L 0 -200.64 L 0 -200.64 L 0 -198.04 L 0 -198.04 L 0 -198.04 L 0 -198.04 L 0 -195.45 L 0 -195.45 L 0 -195.45 L 0 -195.45 L 0 -192.85 L 0 -192.85 L 0 -192.85 L 0 -192.85 L 0 -190.26 L 0 -190.26 L 0 -190.26 L 0 -190.26 L 0 -187.67 L 0 -187.67 L 0 -187.67 L 0 -187.67 L 0 -185.07 L 0 -185.07 L 0 -185.07 L 0 -185.07 L 0 -182.48 L 0 -182.48 L 0 -182.48 L 0 -182.48 L 0 -179.88 L 0 -179.88 L 0 -179.88 L 0 -179.88 L 0 -177.29 L 0 -177.29 L 0 -177.29 L 0 -174.69 L 0 -174.69 L 0 -174.69 L 0 -172.1 L 0 -172.1 L 0 -172.1 L 0 -169.5 L 0 -169.5 L 0 -169.5 L 0 -166.91 L 0 -166.91 L 0 -166.91 L 0 -164.32 L 0 -164.32 L 0 -164.32 L 0 -159.13 L 0 -159.13 L 0 -159.13 L 0 -159.13 L -26.65 -138.8 L -28.35 -140.1 L -38 -132.75 L -39.7 -134.05 L -49.34 -126.7 L -51.04 -127.99 L -60.68 -120.64 L -62.38 -121.94 L -72.02 -114.59 L -73.72 -115.89 L -83.36 -108.54 L -85.06 -109.83 L -94.71 -102.48 L -96.41 -103.78 L -106.05 -96.43 L -107.75 -97.72 L -117.39 -90.37 L -119.09 -91.67 L -128.73 -84.32 L -130.43 -85.62 L -140.07 -78.27 L -141.77 -79.56 L -151.42 -72.21 L -153.12 -73.51 L -162.76 -66.16 L -164.46 -67.46 L -174.1 -60.11 L -175.8 -61.4 L -185.44 -54.05 L -187.14 -55.35 L -196.78 -48 L -198.48 -49.29 L -208.13 -41.94 L -209.83 -43.24 L -219.47 -35.89 L -221.17 -37.19 L -230.81 -29.84 L -232.51 -31.13 L -242.15 -23.78 L -243.85 -25.08 L -253.49 -17.73 L -255.19 -19.03 L -281.85 1.3 L -283.55 0 L -283.55 0 L -226.84 -43.24 L -226.84 -43.24 L -226.84 -43.24 L -113.42 -129.72 L -113.42 -129.72 L -102.08 -138.37 L -102.08 -138.37 L -102.08 -138.37 L -85.06 -151.34 L -85.06 -151.34 L -85.06 -151.34 L -73.72 -159.99 L -73.72 -159.99 L -73.72 -159.99 L -56.71 -172.96 L -56.71 -172.96 L -45.37 -181.61 L -45.37 -181.61 L -45.37 -181.61 L -28.35 -194.58 L -28.35 -194.58 L -14.18 -205.39 L -14.17 -205.4 L 0 -216.2 L 0 -216.2 z" fill="none" stroke="black" id="10|0|0||-50" stroke-width="0.35mm"></path><path d="M 28.36 -194.58 L 45.37 -181.61 L 45.37 -181.61 L 45.37 -181.61 L 56.71 -172.96 L 56.71 -172.96 L 56.71 -172.96 L 85.06 -151.34 L 85.06 -151.34 L 187.14 -73.51 L 187.14 -73.51 L 187.14 -73.51 L 226.84 -43.24 L 226.84 -43.24 L 226.84 -43.24 L 238.18 -34.59 L 238.18 -34.59 L 238.18 -34.59 L 249.52 -25.94 L 249.52 -25.94 L 249.52 -25.94 L 255.19 -21.62 L 226.84 0 L 198.48 -21.62 L 198.48 -21.62 L 170.13 0 L 153.12 -12.97 L 153.12 -13.84 L 153.12 -13.84 L 153.12 -13.84 L 153.12 -13.84 L 153.12 -13.84 L 141.78 -22.49 L 141.77 -22.49 L 141.77 -25.08 L 141.78 -25.08 L 141.78 -25.08 L 141.77 -25.08 L 141.77 -25.08 L 130.43 -33.73 L 130.43 -33.73 L 130.43 -36.32 L 130.43 -36.32 L 130.43 -36.32 L 130.43 -36.32 L 130.43 -36.32 L 119.09 -44.97 L 119.09 -44.97 L 119.09 -47.56 L 119.09 -47.56 L 119.09 -47.57 L 119.09 -47.57 L 119.09 -47.57 L 107.75 -56.21 L 107.75 -56.22 L 107.75 -58.81 L 107.75 -58.81 L 107.75 -58.81 L 107.75 -58.81 L 107.75 -58.81 L 96.41 -67.46 L 96.41 -67.46 L 96.41 -70.05 L 96.41 -70.05 L 96.41 -70.05 L 96.41 -70.05 L 96.41 -70.05 L 85.07 -78.7 L 85.06 -78.7 L 85.06 -81.29 L 85.07 -81.29 L 85.07 -81.29 L 85.06 -81.29 L 85.06 -81.29 L 73.72 -89.94 L 73.72 -89.94 L 73.72 -92.54 L 73.72 -92.54 L 73.72 -92.54 L 73.72 -92.54 L 73.72 -92.54 L 62.38 -101.18 L 62.38 -101.19 L 62.38 -103.78 L 62.38 -103.78 L 62.38 -103.78 L 62.38 -103.78 L 62.38 -103.78 L 51.04 -112.43 L 51.04 -112.43 L 51.04 -115.02 L 51.04 -115.02 L 51.04 -115.02 L 51.04 -115.02 L 51.04 -115.02 L 39.7 -123.67 L 39.7 -123.67 L 39.7 -126.26 L 39.7 -126.26 L 39.7 -126.26 L 39.7 -126.26 L 39.7 -126.26 L 28.36 -134.91 L 28.36 -136.21 L 28.35 -136.21 L 28.35 -137.51 L 28.36 -137.51 L 28.35 -137.51 L 28.35 -137.51 L 0 -159.13 L 0 -159.13 L 0 -164.32 L 0 -164.32 L 0 -164.32 L 0 -166.91 L 0 -166.91 L 0 -166.91 L 0 -169.5 L 0 -169.5 L 0 -169.5 L 0 -172.1 L 0 -172.1 L 0 -172.1 L 0 -174.69 L 0 -174.69 L 0 -174.69 L 0 -177.29 L 0 -177.29 L 0 -177.29 L 0 -179.88 L 0 -179.88 L 0 -179.88 L 0 -179.88 L 0 -182.48 L 0 -182.48 L 0 -182.48 L 0 -182.48 L 0 -185.07 L 0 -185.07 L 0 -185.07 L 0 -185.07 L 0 -187.67 L 0 -187.67 L 0 -187.67 L 0 -187.67 L 0 -190.26 L 0 -190.26 L 0 -190.26 L 0 -190.26 L 0 -192.85 L 0 -192.85 L 0 -192.85 L 0 -192.85 L 0 -195.45 L 0 -195.45 L 0 -195.45 L 0 -195.45 L 0 -198.04 L 0 -198.04 L 0 -198.04 L 0 -198.04 L 0 -200.64 L 0 -200.64 L 0 -200.64 L 0 -200.64 L 0 -203.23 L 0 -203.23 L 0 -203.23 L 0 -203.23 L 0 -205.83 L 0 -205.83 L 0 -205.83 L 0 -205.83 L 0 -205.83 L 0 -208.42 L 0 -208.42 L 0 -208.42 L 0 -208.42 L 0 -211.02 L 0 -211.02 L 0 -211.02 L 0 -211.02 L 0 -213.61 L 0 -213.61 L 0 -213.61 L 0 -213.61 L 0 -216.2 L 0 -216.2 L 0 -216.2 L 28.36 -194.58 z" fill="none" stroke="black" id="0|0|10||-50" stroke-width="0.35mm"></path><path d="M -311.9 108.1 L -368.61 64.86 L -368.62 64.86 L -368.61 64.86 L -368.61 64.86 L -453.68 0 L -453.68 0 L -453.68 0 L -453.68 0 L 0 -345.93 L 85.06 -281.07 L 85.07 -281.07 L 113.42 -259.45 L 113.42 -259.45 L 453.68 0 L 453.68 0 L 453.68 0 L 453.68 0 L 368.61 64.86 L 368.62 64.86 L 368.61 64.86 L 283.55 129.72 L 283.55 129.72 L 255.19 151.34 L 0 345.93 L 0 345.93 L 0 345.93 L 0 345.93 L -311.91 108.1 L -311.9 108.1 zM 0 -216.2 L -14.17 -205.4 L -14.18 -205.39 L -28.35 -194.58 L -28.35 -194.58 L -45.37 -181.61 L -45.37 -181.61 L -56.71 -172.96 L -56.71 -172.96 L -73.72 -159.99 L -73.72 -159.99 L -73.72 -159.99 L -85.06 -151.34 L -85.06 -151.34 L -102.08 -138.37 L -102.08 -138.37 L -113.42 -129.72 L -113.42 -129.72 L -113.42 -129.72 L -226.84 -43.24 L -226.84 -43.24 L -283.55 0 L -283.55 0 L -255.19 21.62 L -226.84 0 L -198.48 21.62 L -170.13 0 L -141.77 21.62 L -114.16 0.56 L -114.16 0.56 L -114.16 0.56 L -113.42 0 L -113.42 0 L -86.2 20.76 L -86.2 20.76 L -86.2 20.76 L -85.06 21.62 L -85.06 21.62 L -85.06 21.62 L -170.13 86.48 L 0 216.2 L 170.13 86.48 L 94.72 28.98 L 94.72 28.98 L 94.72 28.98 L 71.17 11.03 L 71.17 11.03 L 71.17 11.03 L 66.06 7.13 L 66.06 7.13 L 66.06 7.13 L 59.73 2.31 L 59.73 2.31 L 59.73 2.31 L 56.89 0.14 L 56.89 0.14 L 56.89 0.14 L 56.71 0 L 56.71 0 L 85.06 -21.62 L 85.07 -21.62 L 113.42 0 L 141.77 -21.62 L 141.77 -21.62 L 170.13 0 L 198.48 -21.62 L 198.48 -21.62 L 226.84 0 L 255.19 -21.62 L 255.19 -21.62 L 249.52 -25.94 L 249.52 -25.94 L 249.52 -25.94 L 238.18 -34.59 L 238.18 -34.59 L 238.18 -34.59 L 226.84 -43.24 L 226.84 -43.24 L 226.84 -43.24 L 187.14 -73.51 L 187.14 -73.51 L 187.14 -73.51 L 85.06 -151.34 L 85.06 -151.34 L 56.71 -172.96 L 56.71 -172.96 L 56.71 -172.96 L 45.37 -181.61 L 45.37 -181.61 L 45.37 -181.61 L 28.36 -194.58 L 28.36 -194.58 L 0 -216.2 L 0 -216.2 zM 368.62 64.86 L 368.61 64.86 L 368.61 64.86 z" fill="none" stroke="black" id="0|10|0||0" stroke-width="0.35mm"></path><path d="M 28.36 -136.21 L 28.36 -134.91 L 28.35 -134.91 L 0.01 -113.3 L 0 -113.29 L 0 -113.29 L 0 -113.29 L 0 -113.29 L 0 -113.29 L 0 -113.29 L 0 -111.99 L 0 -111.99 L 0 -111.99 L 0 -111.99 L 0 -110.7 L 0 -110.7 L 0 -110.7 L 0 -109.4 L 0 -109.4 L 0 -109.4 L 0 -108.1 L 0 -108.1 L 0 -108.1 L 0 -106.81 L 0 -106.81 L 0 -106.81 L 0 -105.51 L 0 -105.51 L 0 -105.51 L 0 -104.21 L 0 -104.21 L 0 -104.21 L 0 -102.91 L 0 -102.91 L 0 -102.91 L 0 -101.62 L 0 -101.62 L 0 -101.62 L 0 -100.32 L 0 -100.32 L 0 -100.32 L 0 -99.02 L 0 -99.02 L 0 -99.02 L 0 -96.43 L 0 -96.43 L 0 -96.43 L 0 -96.43 L -26.65 -76.1 L -28.35 -77.4 L -38 -70.05 L -39.7 -71.35 L -49.34 -64 L -51.04 -65.29 L -60.68 -57.94 L -62.38 -59.24 L -72.02 -51.89 L -73.72 -53.19 L -83.36 -45.84 L -85.06 -47.13 L -94.71 -39.78 L -96.41 -41.08 L -106.05 -33.73 L -107.75 -35.03 L -117.39 -27.67 L -119.09 -28.97 L -128.73 -21.62 L -130.43 -22.92 L -140.07 -15.57 L -141.77 -16.86 L -151.42 -9.51 L -153.12 -10.81 L -162.76 -3.46 L -164.46 -4.76 L -174.1 2.59 L -175.8 1.3 L -185.44 8.65 L -187.14 7.35 L -196.78 14.7 L -198.48 13.4 L -203.87 17.51 L -223.44 2.59 L -215.5 -3.46 L -215.5 -3.46 L -215.5 -0.87 L -204.16 -9.51 L -204.16 -9.51 L -204.16 -9.51 L -204.16 -6.92 L -192.81 -15.57 L -192.81 -15.57 L -192.81 -12.97 L -181.47 -21.62 L -181.47 -21.62 L -181.47 -19.03 L -170.13 -27.67 L -170.13 -27.67 L -170.13 -25.08 L -158.79 -33.73 L -158.79 -33.73 L -158.79 -31.13 L -147.45 -39.78 L -147.45 -39.78 L -147.45 -37.19 L -136.1 -45.84 L -136.1 -45.84 L -136.1 -43.24 L -124.76 -51.89 L -124.76 -51.89 L -124.76 -49.3 L -113.42 -57.94 L -113.42 -57.94 L -113.42 -55.35 L -102.08 -64 L -102.08 -64 L -102.08 -61.4 L -90.74 -70.05 L -90.74 -70.05 L -90.74 -68.75 L -90.74 -68.75 L -90.74 -68.75 L -90.74 -67.46 L -79.39 -76.1 L -79.39 -76.1 L -79.39 -74.81 L -79.39 -74.81 L -79.39 -74.81 L -79.39 -73.51 L -68.05 -82.16 L -68.05 -82.16 L -68.05 -80.86 L -68.05 -80.86 L -68.05 -80.86 L -68.05 -79.56 L -56.71 -88.21 L -56.71 -88.21 L -56.71 -86.91 L -56.71 -86.91 L -56.71 -86.91 L -56.71 -85.62 L -45.37 -94.27 L -45.37 -94.27 L -45.37 -92.97 L -45.37 -92.97 L -45.37 -92.97 L -45.37 -91.67 L -34.03 -100.32 L -34.03 -100.32 L -34.03 -99.02 L -34.03 -99.02 L -34.03 -99.02 L -34.03 -97.72 L -22.68 -106.37 L -22.68 -106.37 L -22.68 -105.08 L -22.68 -105.08 L -22.68 -105.08 L -22.68 -103.78 L -11.34 -112.43 L -11.34 -112.43 L -11.34 -111.13 L -11.34 -111.13 L -11.34 -111.13 L -11.34 -109.83 L 0 -118.48 L 0 -118.48 L 0 -117.18 L 0 -117.18 L 0 -117.18 L 0 -115.89 L 27.74 -137.04 L 27.74 -137.04 L 28.35 -137.51 L 28.35 -136.21 z" fill="none" stroke="black" id="10|0|0||-40" stroke-width="0.35mm"></path><path d="M -79.39 -10.81 L -79.39 -13.4 L -106.05 -33.73 L -96.41 -41.08 L -68.05 -19.46 zM 28.35 -137.51 L 28.36 -137.51 L 27.74 -137.04 L 27.74 -137.04 L 0 -115.89 L 0 -117.18 L 0 -117.18 L 0 -117.18 L 0 -118.48 L -26.65 -138.8 L 0 -159.13 L 28.35 -137.51 z" fill="none" stroke="black" id="0|10|0||-22" stroke-width="0.35mm"></path><path d="M 39.7 -123.67 L 39.7 -123.67 L 11.35 -102.06 L 11.34 -102.05 L 11.34 -102.05 L 11.34 -104.64 L 11.34 -104.64 L 11.35 -104.65 L 39.7 -126.26 L 39.7 -123.67 z" fill="none" stroke="black" id="10|0|0||-36" stroke-width="0.35mm"></path><path d="M 11.34 -102.05 L 11.34 -102.05 L 22.68 -93.4 L 22.68 -93.4 L 22.68 -90.81 L 26.19 -88.13 L 26.19 -88.13 L 34.03 -82.16 L 34.03 -79.56 L 38.86 -75.88 L 38.86 -75.88 L 38.86 -75.88 L 45.37 -70.92 L 45.37 -68.32 L 50.23 -64.61 L 50.23 -64.61 L 50.23 -64.61 L 56.71 -59.67 L 56.71 -57.08 L 61.6 -53.35 L 61.6 -53.35 L 61.6 -53.35 L 68.05 -48.43 L 68.05 -45.84 L 72.96 -42.09 L 72.96 -42.09 L 72.96 -42.09 L 79.39 -37.19 L 79.39 -34.59 L 84.33 -30.83 L 84.33 -30.83 L 84.33 -30.83 L 90.74 -25.94 L 90.74 -24.65 L 90.74 -24.65 L 90.74 -24.65 L 90.74 -23.35 L 95.69 -19.57 L 95.69 -19.57 L 95.69 -19.57 L 102.08 -14.7 L 102.08 -13.4 L 102.08 -13.4 L 102.08 -13.4 L 102.08 -12.11 L 107.05 -8.32 L 107.05 -8.32 L 107.05 -8.32 L 113.42 -3.46 L 113.42 -2.16 L 113.42 -2.16 L 113.42 -2.16 L 113.42 -0.86 L 113.99 -0.43 L 113.42 0 L 85.07 -21.62 L 85.06 -21.62 L 83.08 -20.11 L 73.72 -27.24 L 73.72 -27.24 L 73.72 -29.84 L 73.72 -29.84 L 73.72 -29.84 L 73.72 -29.84 L 73.72 -29.84 L 62.38 -38.48 L 62.38 -38.49 L 62.38 -41.08 L 62.38 -41.08 L 62.38 -41.08 L 62.38 -41.08 L 62.38 -41.08 L 56.71 -45.4 L 56.71 -45.4 L 56.71 -45.4 L 51.04 -49.73 L 51.04 -49.73 L 51.04 -51.02 L 51.04 -51.02 L 51.04 -51.02 L 51.04 -51.02 L 51.04 -52.32 L 51.04 -52.32 L 51.04 -52.32 L 51.04 -52.32 L 51.04 -52.32 L 39.7 -60.97 L 39.7 -60.97 L 39.7 -63.56 L 39.7 -63.56 L 39.7 -63.56 L 39.7 -63.56 L 39.7 -63.56 L 28.36 -72.21 L 28.35 -72.21 L 28.35 -74.81 L 28.35 -74.81 L 0 -96.43 L 0 -96.43 L 0 -99.02 L 0 -99.02 L 0 -99.02 L 0 -100.32 L 0 -100.32 L 0 -100.32 L 0 -101.62 L 0 -101.62 L 0 -101.62 L 0 -102.91 L 0 -102.91 L 0 -102.91 L 0 -104.21 L 0 -104.21 L 0 -104.21 L 0 -105.51 L 0 -105.51 L 0 -105.51 L 0 -106.81 L 0 -106.81 L 0 -106.81 L 0 -108.1 L 0 -108.1 L 0 -108.1 L 0 -109.4 L 0 -109.4 L 0 -109.4 L 0 -110.7 L 0 -110.7 L 0 -110.7 L 0 -111.99 L 0 -111.99 L 0 -111.99 L 0 -111.99 L 0 -113.29 L 0 -113.29 L 0 -113.29 L 11.34 -104.64 z" fill="none" stroke="black" id="0|0|10||-40" stroke-width="0.35mm"></path><path d="M -68.05 -16.86 L -68.05 -19.46 L -94.71 -39.78 L -85.06 -47.13 L -56.71 -25.51 zM 39.7 -126.26 L 39.7 -126.26 L 39.7 -126.26 L 11.35 -104.65 L 11.34 -104.64 L 0 -113.29 L 0 -113.29 L 0 -113.29 L 0.01 -113.3 L 28.35 -134.91 L 28.36 -134.91 L 39.7 -126.26 z" fill="none" stroke="black" id="0|10|0||-23" stroke-width="0.35mm"></path><path d="M 51.04 -112.43 L 51.04 -112.43 L 22.69 -90.81 L 22.68 -90.81 L 22.68 -90.81 L 22.68 -93.4 L 22.69 -93.4 L 51.04 -115.02 L 51.04 -112.43 z" fill="none" stroke="black" id="10|0|0||-32" stroke-width="0.35mm"></path><path d="M -56.71 -22.92 L -56.71 -25.51 L -83.36 -45.84 L -73.72 -53.19 L -45.37 -31.57 zM 51.04 -115.02 L 51.04 -115.02 L 51.04 -115.02 L 22.69 -93.4 L 22.68 -93.4 L 11.34 -102.05 L 11.34 -102.05 L 11.35 -102.06 L 39.7 -123.67 L 39.7 -123.67 L 51.04 -115.02 z" fill="none" stroke="black" id="0|10|0||-24" stroke-width="0.35mm"></path><path d="M -45.37 -28.97 L -45.37 -31.57 L -72.02 -51.89 L -62.38 -59.24 L -34.03 -37.62 zM 62.38 -103.78 L 62.38 -103.78 L 62.38 -103.78 L 61.84 -103.36 L 61.84 -103.36 L 34.03 -82.16 L 26.19 -88.13 L 26.19 -88.13 L 26.19 -88.13 L 22.68 -90.81 L 22.68 -90.81 L 22.68 -90.81 L 22.69 -90.81 L 51.04 -112.43 L 62.38 -103.78 z" fill="none" stroke="black" id="0|10|0||-25" stroke-width="0.35mm"></path><path d="M -136.1 17.3 L -141.77 21.62 L -142.06 21.4 L -136.1 16.86 L -136.1 16.86 zM 28.36 -72.21 L 28.35 -72.21 L 0.01 -50.6 L 0 -50.59 L 0 -50.59 L 0 -50.59 L 0 -50.59 L 0 -50.59 L 0 -50.59 L 0 -49.29 L 0 -49.29 L 0 -49.29 L 0 -49.29 L 0 -48 L 0 -48 L 0 -48 L 0 -46.7 L 0 -46.7 L 0 -46.7 L 0 -45.4 L 0 -45.4 L 0 -45.4 L 0 -44.11 L 0 -44.11 L 0 -44.11 L 0 -42.81 L 0 -42.81 L 0 -42.81 L 0 -41.51 L 0 -41.51 L 0 -41.51 L 0 -40.21 L 0 -40.21 L 0 -40.21 L 0 -38.92 L 0 -38.92 L 0 -38.92 L 0 -37.62 L 0 -37.62 L 0 -37.62 L 0 -36.32 L 0 -36.32 L 0 -36.32 L 0 -33.73 L 0 -33.73 L 0 -33.73 L 0 -33.73 L -26.65 -13.4 L -28.35 -14.7 L -38 -7.35 L -39.7 -8.65 L -49.34 -1.3 L -51.04 -2.59 L -60.68 4.76 L -62.38 3.46 L -72.02 10.81 L -73.72 9.51 L -83.36 16.86 L -85.06 15.57 L -89.03 18.59 L -108.6 3.68 L -102.08 -1.3 L -102.08 -1.3 L -102.08 1.3 L -90.74 -7.35 L -90.74 -7.35 L -90.74 -4.76 L -79.39 -13.4 L -79.39 -13.4 L -79.39 -10.81 L -68.05 -19.46 L -68.05 -19.46 L -68.05 -16.86 L -56.71 -25.51 L -56.71 -25.51 L -56.71 -22.92 L -45.37 -31.57 L -45.37 -31.57 L -45.37 -28.97 L -34.03 -37.62 L -34.03 -37.62 L -34.03 -36.32 L -34.03 -36.32 L -34.03 -36.32 L -34.03 -35.03 L -22.68 -43.67 L -22.68 -43.67 L -22.68 -42.38 L -22.68 -42.38 L -22.68 -42.38 L -22.68 -41.08 L -11.34 -49.73 L -11.34 -49.73 L -11.34 -48.43 L -11.34 -48.43 L -11.34 -48.43 L -11.34 -47.13 L 0 -55.78 L 0 -55.78 L 0 -54.48 L 0 -54.48 L 0 -54.48 L 0 -53.19 L 27.89 -74.45 L 27.89 -74.45 L 28.35 -74.81 L 28.35 -72.21 z" fill="none" stroke="black" id="10|0|0||-30" stroke-width="0.35mm"></path><path d="M 62.38 -101.18 L 62.38 -101.18 L 34.03 -79.57 L 34.03 -79.56 L 34.03 -79.56 L 34.03 -82.16 L 34.03 -82.16 L 61.84 -103.36 L 61.84 -103.36 L 62.38 -103.78 L 62.38 -101.19 z" fill="none" stroke="black" id="10|0|0||-28" stroke-width="0.35mm"></path><path d="M -85.06 53.62 L -85.06 44.97 L -79.39 49.29 zM 107.75 -58.81 L 107.75 -58.81 L 107.75 -58.81 L 107.28 -58.45 L 107.28 -58.45 L 79.39 -37.19 L 72.96 -42.09 L 72.96 -42.09 L 72.96 -42.09 L 68.05 -45.84 L 68.05 -45.84 L 68.05 -45.84 L 68.06 -45.84 L 96.41 -67.46 L 96.41 -67.46 L 107.75 -58.81 zM 28.35 -74.81 L 27.89 -74.45 L 27.89 -74.45 L 0 -53.19 L 0 -54.48 L 0 -54.48 L 0 -54.48 L 0 -55.78 L -26.65 -76.1 L 0 -96.43 L 28.35 -74.81 z" fill="none" stroke="black" id="0|10|0||-29" stroke-width="0.35mm"></path><path d="M -90.74 -4.76 L -90.74 -7.35 L -117.39 -27.67 L -107.75 -35.03 L -79.39 -13.4 zM -11.34 -109.83 L -11.34 -111.13 L -11.34 -111.13 L -11.34 -111.13 L -11.34 -112.43 L -38 -132.75 L -28.35 -140.1 L 0 -118.48 z" fill="none" stroke="black" id="0|10|0||-21" stroke-width="0.35mm"></path><path d="M 39.7 -60.97 L 39.7 -60.97 L 11.35 -39.36 L 11.34 -39.35 L 11.34 -39.35 L 11.34 -41.94 L 11.34 -41.94 L 11.35 -41.95 L 39.7 -63.56 L 39.7 -60.97 z" fill="none" stroke="black" id="10|0|0||-26" stroke-width="0.35mm"></path><path d="M 73.72 -89.94 L 73.72 -89.94 L 45.37 -68.33 L 45.37 -68.32 L 45.37 -68.32 L 45.37 -70.92 L 45.37 -70.92 L 73.2 -92.14 L 73.2 -92.14 L 73.72 -92.54 L 73.72 -89.94 z" fill="none" stroke="black" id="10|0|0||-24" stroke-width="0.35mm"></path><path d="M 11.34 -39.35 L 11.34 -39.35 L 22.68 -30.7 L 22.68 -30.7 L 22.68 -28.11 L 26.63 -25.1 L 26.63 -25.1 L 34.03 -19.46 L 34.03 -16.86 L 39.03 -13.05 L 39.03 -13.05 L 39.03 -13.05 L 45.37 -8.22 L 45.37 -5.62 L 50.38 -1.8 L 50.38 -1.8 L 50.38 -1.8 L 56.71 3.03 L 56.71 17.3 L 51.04 12.97 L 51.04 12.97 L 51.04 11.68 L 51.04 11.68 L 51.04 11.68 L 51.04 11.67 L 51.04 10.38 L 51.04 10.38 L 51.04 10.38 L 51.04 10.38 L 51.04 10.38 L 39.7 1.73 L 39.7 1.73 L 39.7 -0.86 L 39.7 -0.86 L 39.7 -0.87 L 39.7 -0.86 L 39.7 -0.87 L 28.36 -9.51 L 28.35 -9.52 L 28.35 -12.11 L 28.35 -12.11 L 0 -33.73 L 0 -33.73 L 0 -36.32 L 0 -36.32 L 0 -36.32 L 0 -37.62 L 0 -37.62 L 0 -37.62 L 0 -38.92 L 0 -38.92 L 0 -38.92 L 0 -40.21 L 0 -40.21 L 0 -40.21 L 0 -41.51 L 0 -41.51 L 0 -41.51 L 0 -42.81 L 0 -42.81 L 0 -42.81 L 0 -44.11 L 0 -44.11 L 0 -44.11 L 0 -45.4 L 0 -45.4 L 0 -45.4 L 0 -46.7 L 0 -46.7 L 0 -46.7 L 0 -48 L 0 -48 L 0 -48 L 0 -49.29 L 0 -49.29 L 0 -49.29 L 0 -49.29 L 0 -50.59 L 0 -50.59 L 0 -50.59 L 11.34 -41.94 z" fill="none" stroke="black" id="0|0|10||-30" stroke-width="0.35mm"></path><path d="M -34.03 -35.03 L -34.03 -36.32 L -34.03 -36.32 L -34.03 -36.32 L -34.03 -37.62 L -60.68 -57.94 L -51.04 -65.29 L -22.68 -43.67 zM -22.68 -43.67 L -22.68 -43.67 L -22.68 -43.67 zM 73.72 -92.54 L 73.72 -92.54 L 73.72 -92.54 L 73.2 -92.14 L 73.2 -92.14 L 45.37 -70.92 L 38.86 -75.88 L 38.86 -75.88 L 38.86 -75.88 L 34.03 -79.56 L 34.03 -79.56 L 34.03 -79.56 L 34.03 -79.57 L 62.38 -101.18 L 62.38 -101.18 L 73.72 -92.54 z" fill="none" stroke="black" id="0|10|0||-26" stroke-width="0.35mm"></path><path d="M -79.39 51.89 L -79.39 49.29 L -85.06 44.97 L -85.06 30.27 L -68.05 43.24 zM 119.09 -47.57 L 119.09 -47.57 L 119.09 -47.56 L 118.63 -47.22 L 118.63 -47.22 L 90.74 -25.94 L 84.33 -30.83 L 84.33 -30.83 L 84.33 -30.83 L 79.39 -34.59 L 79.39 -34.59 L 79.39 -34.59 L 79.4 -34.6 L 107.75 -56.21 L 119.09 -47.57 zM 39.7 -63.56 L 39.7 -63.56 L 39.7 -63.56 L 11.35 -41.95 L 11.34 -41.94 L 0 -50.59 L 0 -50.59 L 0 -50.59 L 0.01 -50.6 L 28.35 -72.21 L 28.36 -72.21 L 39.7 -63.56 z" fill="none" stroke="black" id="0|10|0||-30" stroke-width="0.35mm"></path><path d="M 51.04 -51.02 L 51.04 -51.02 L 51.04 -51.02 L 51.04 -49.73 L 51.04 -49.73 L 51.04 -49.73 L 22.69 -28.11 L 22.68 -28.11 L 22.68 -28.11 L 22.68 -30.7 L 22.69 -30.7 L 51.04 -52.32 L 51.04 -51.02 z" fill="none" stroke="black" id="10|0|0||-22" stroke-width="0.35mm"></path><path d="M 28.36 -9.51 L 28.35 -9.51 L 0.01 12.1 L 0 12.11 L 0 12.11 L 0 12.11 L 0 12.11 L 0 12.11 L 0 12.11 L 0 13.4 L 0 13.4 L 0 13.4 L 0 13.4 L 0 13.41 L 0 14.7 L 0 14.7 L 0 14.7 L 0 16 L 0 16 L 0 16 L 0 17.3 L 0 17.3 L 0 17.3 L 0 18.59 L 0 18.59 L 0 18.59 L 0 19.89 L 0 19.89 L 0 19.89 L 0 21.19 L 0 21.19 L 0 21.19 L 0 22.49 L 0 22.49 L 0 22.49 L 0 23.78 L 0 23.78 L 0 23.78 L 0 25.08 L 0 25.08 L 0 25.08 L 0 26.38 L 0 26.38 L 0 26.38 L 0 28.97 L 0 28.97 L 0 28.97 L 0 28.97 L -26.65 49.29 L -28.35 48 L -38 55.35 L -39.7 54.05 L -49.34 61.4 L -51.04 60.1 L -60.68 67.46 L -62.38 66.16 L -72.02 73.51 L -73.72 72.21 L -83.36 79.56 L -85.06 78.27 L -85.06 53.62 L -79.39 49.29 L -79.39 49.29 L -79.39 51.89 L -68.05 43.24 L -68.05 43.24 L -68.05 45.83 L -56.71 37.19 L -56.71 37.19 L -56.71 39.78 L -45.37 31.13 L -45.37 31.13 L -45.37 33.73 L -34.03 25.08 L -34.03 25.08 L -34.03 27.67 L -22.68 19.03 L -22.68 19.03 L -22.68 21.62 L -11.34 12.97 L -11.34 12.97 L -11.34 15.57 L 0 6.92 L 0 6.92 L 0 9.51 L 27.98 -11.82 L 27.98 -11.82 L 28.35 -12.11 L 28.35 -9.52 zM 85.07 -78.7 L 85.06 -78.7 L 56.72 -57.08 L 56.71 -57.08 L 56.71 -57.08 L 56.71 -59.67 L 56.71 -59.67 L 84.56 -80.91 L 84.56 -80.91 L 85.06 -81.29 L 85.06 -78.7 z" fill="none" stroke="black" id="10|0|0||-20" stroke-width="0.35mm"></path><path d="M -22.68 -41.08 L -22.68 -42.38 L -22.68 -42.38 L -22.68 -42.38 L -22.68 -43.67 L -22.68 -43.67 L -49.34 -64 L -39.7 -71.35 L -11.34 -49.73 zM 85.06 -81.29 L 85.07 -81.29 L 85.07 -81.29 L 84.56 -80.91 L 84.56 -80.91 L 56.71 -59.67 L 50.23 -64.61 L 50.23 -64.61 L 50.23 -64.61 L 45.37 -68.32 L 45.37 -68.32 L 45.37 -68.32 L 45.37 -68.33 L 73.72 -89.94 L 73.72 -89.94 L 85.06 -81.29 z" fill="none" stroke="black" id="0|10|0||-27" stroke-width="0.35mm"></path><path d="M -68.05 45.83 L -68.05 43.24 L -85.06 30.27 L -85.06 21.62 L -89.03 18.59 L -85.06 15.57 L -56.71 37.19 zM 130.43 -36.32 L 130.43 -36.32 L 130.43 -36.32 L 129.99 -35.98 L 129.99 -35.98 L 102.08 -14.7 L 95.69 -19.57 L 95.69 -19.57 L 95.69 -19.57 L 90.74 -23.35 L 90.74 -23.35 L 90.74 -23.35 L 90.74 -23.35 L 119.09 -44.97 L 119.09 -44.97 L 130.43 -36.32 zM 51.04 -52.32 L 51.04 -52.32 L 51.04 -52.32 L 22.69 -30.7 L 22.68 -30.7 L 11.34 -39.35 L 11.34 -39.35 L 11.35 -39.36 L 39.7 -60.97 L 39.7 -60.97 L 51.04 -52.32 z" fill="none" stroke="black" id="0|10|0||-31" stroke-width="0.35mm"></path><path d="M -102.08 1.3 L -102.08 -1.3 L -128.73 -21.62 L -119.09 -28.97 L -90.74 -7.35 zM -22.68 -103.78 L -22.68 -105.08 L -22.68 -105.08 L -22.68 -105.08 L -22.68 -106.37 L -22.68 -106.37 L -49.34 -126.7 L -39.7 -134.05 L -11.34 -112.43 z" fill="none" stroke="black" id="0|10|0||-20" stroke-width="0.35mm"></path><path d="M -56.71 39.78 L -56.71 37.19 L -83.36 16.86 L -73.72 9.51 L -45.37 31.13 zM 141.77 -25.08 L 141.78 -25.08 L 141.78 -25.08 L 141.35 -24.75 L 141.35 -24.75 L 113.42 -3.46 L 107.05 -8.32 L 107.05 -8.32 L 107.05 -8.32 L 102.08 -12.11 L 102.08 -12.11 L 102.08 -12.11 L 102.08 -12.11 L 130.43 -33.73 L 130.43 -33.73 L 141.77 -25.08 zM 56.71 -45.4 L 56.71 -45.4 L 62.38 -41.08 L 62.38 -41.08 L 62.38 -41.08 L 62.38 -41.08 L 61.96 -40.76 L 61.96 -40.76 L 34.03 -19.46 L 26.63 -25.1 L 26.63 -25.1 L 26.63 -25.1 L 22.68 -28.11 L 22.68 -28.11 L 22.68 -28.11 L 22.69 -28.11 L 51.04 -49.73 L 56.71 -45.4 z" fill="none" stroke="black" id="0|10|0||-32" stroke-width="0.35mm"></path><path d="M 39.7 1.73 L 39.7 1.73 L 11.35 23.34 L 11.34 23.35 L 11.34 23.35 L 11.34 20.76 L 11.34 20.76 L 11.35 20.75 L 39.7 -0.86 L 39.7 1.73 zM 96.41 -67.46 L 96.41 -67.46 L 68.06 -45.84 L 68.05 -45.84 L 68.05 -45.84 L 68.05 -48.43 L 68.05 -48.43 L 95.92 -69.68 L 95.92 -69.68 L 96.41 -70.05 L 96.41 -67.46 z" fill="none" stroke="black" id="10|0|0||-16" stroke-width="0.35mm"></path><path d="M 62.38 -38.48 L 62.38 -38.48 L 34.03 -16.87 L 34.03 -16.86 L 34.03 -16.86 L 34.03 -19.46 L 34.03 -19.46 L 61.96 -40.76 L 61.96 -40.76 L 62.38 -41.08 L 62.38 -38.49 z" fill="none" stroke="black" id="10|0|0||-18" stroke-width="0.35mm"></path><path d="M -11.34 -47.13 L -11.34 -48.43 L -11.34 -48.43 L -11.34 -48.43 L -11.34 -49.73 L -38 -70.05 L -28.35 -77.4 L 0 -55.78 zM 96.41 -70.05 L 96.41 -70.05 L 96.41 -70.05 L 95.92 -69.68 L 95.92 -69.68 L 68.05 -48.43 L 61.6 -53.35 L 61.6 -53.35 L 61.6 -53.35 L 56.71 -57.08 L 56.71 -57.08 L 56.71 -57.08 L 56.72 -57.08 L 85.06 -78.7 L 85.07 -78.7 L 96.41 -70.05 z" fill="none" stroke="black" id="0|10|0||-28" stroke-width="0.35mm"></path><path d="M 28.35 -12.11 L 27.98 -11.82 L 27.98 -11.82 L 0 9.51 L 0 6.92 L -26.65 -13.4 L 0 -33.73 L 28.35 -12.11 z" fill="none" stroke="black" id="0|10|0||-37" stroke-width="0.35mm"></path><path d="M 51.04 11.68 L 51.04 11.68 L 51.04 11.68 L 51.04 12.97 L 51.04 12.97 L 51.04 12.97 L 22.69 34.59 L 22.68 34.59 L 22.68 34.59 L 22.68 32 L 22.69 31.99 L 51.04 10.38 L 51.04 11.67 zM 107.75 -56.21 L 107.75 -56.21 L 79.4 -34.6 L 79.39 -34.59 L 79.39 -34.59 L 79.39 -37.19 L 79.39 -37.19 L 107.28 -58.45 L 107.28 -58.45 L 107.75 -58.81 L 107.75 -56.22 z" fill="none" stroke="black" id="10|0|0||-12" stroke-width="0.35mm"></path><path d="M -108.6 3.68 L -113.42 0 L -113.42 0 L -114.16 0.56 L -114.16 0.56 L -114.16 0.56 L -116.54 2.38 L -140.07 -15.57 L -130.43 -22.92 L -102.08 -1.3 zM -34.03 -97.72 L -34.03 -99.02 L -34.03 -99.02 L -34.03 -99.02 L -34.03 -100.32 L -60.68 -120.64 L -51.04 -127.99 L -22.68 -106.37 zM -22.68 -106.37 L -22.68 -106.37 L -22.68 -106.37 z" fill="none" stroke="black" id="0|10|0||-19" stroke-width="0.35mm"></path><path d="M 73.72 -27.24 L 73.72 -27.24 L 45.37 -5.63 L 45.37 -5.62 L 45.37 -5.62 L 45.37 -8.22 L 45.37 -8.22 L 73.31 -29.52 L 73.31 -29.52 L 73.72 -29.84 L 73.72 -27.24 z" fill="none" stroke="black" id="10|0|0||-14" stroke-width="0.35mm"></path><path d="M 11.34 23.35 L 11.34 23.35 L 22.68 32 L 22.68 32 L 22.68 34.59 L 26.92 37.82 L 26.92 37.82 L 26.92 37.82 L 26.92 37.82 L 34.03 43.24 L 34.03 45.84 L 39.14 49.73 L 39.14 49.73 L 39.14 49.73 L 45.37 54.48 L 45.37 57.08 L 50.49 60.98 L 50.49 60.98 L 50.49 60.98 L 56.71 65.73 L 56.71 80 L 51.04 75.67 L 51.04 75.67 L 51.04 73.08 L 51.04 73.08 L 51.04 73.08 L 51.04 73.08 L 51.04 73.08 L 39.7 64.43 L 39.7 64.43 L 39.7 61.83 L 39.7 61.83 L 39.7 61.83 L 39.7 61.83 L 39.7 61.83 L 28.36 53.19 L 28.35 53.18 L 28.35 50.59 L 28.35 50.59 L 0 28.97 L 0 28.97 L 0 26.38 L 0 26.38 L 0 26.38 L 0 25.08 L 0 25.08 L 0 25.08 L 0 23.78 L 0 23.78 L 0 23.78 L 0 22.49 L 0 22.49 L 0 22.49 L 0 21.19 L 0 21.19 L 0 21.19 L 0 19.89 L 0 19.89 L 0 19.89 L 0 18.59 L 0 18.59 L 0 18.59 L 0 17.3 L 0 17.3 L 0 17.3 L 0 16 L 0 16 L 0 16 L 0 14.7 L 0 14.7 L 0 14.7 L 0 13.41 L 0 13.4 L 0 13.4 L 0 13.4 L 0 13.4 L 0 12.11 L 0 12.11 L 0 12.11 L 11.34 20.76 z" fill="none" stroke="black" id="0|0|10||-20" stroke-width="0.35mm"></path><path d="M -45.37 33.73 L -45.37 31.13 L -72.02 10.81 L -62.38 3.46 L -34.03 25.08 zM 153.12 -13.84 L 153.12 -13.84 L 153.12 -13.84 L 152.7 -13.52 L 152.7 -13.52 L 152.55 -13.4 L 141.77 -21.62 L 141.77 -21.62 L 113.99 -0.43 L 113.42 -0.86 L 113.42 -0.87 L 113.42 -0.87 L 113.43 -0.87 L 141.77 -22.49 L 141.77 -22.49 L 153.12 -13.84 zM 73.72 -29.84 L 73.72 -29.84 L 73.72 -29.84 L 73.31 -29.52 L 73.31 -29.52 L 45.37 -8.22 L 39.03 -13.05 L 39.03 -13.05 L 39.03 -13.05 L 34.03 -16.86 L 34.03 -16.86 L 34.03 -16.86 L 34.03 -16.87 L 62.38 -38.48 L 62.38 -38.48 L 73.72 -29.84 z" fill="none" stroke="black" id="0|10|0||-33" stroke-width="0.35mm"></path><path d="M -85.06 121.51 L -85.06 78.27 L -56.71 99.89 zM 39.7 -0.86 L 39.7 -0.87 L 39.7 -0.86 L 11.35 20.75 L 11.34 20.76 L 0 12.11 L 0 12.11 L 0 12.11 L 0.01 12.1 L 28.35 -9.51 L 28.36 -9.51 L 39.7 -0.87 z" fill="none" stroke="black" id="0|10|0||-38" stroke-width="0.35mm"></path><path d="M 34.03 45.83 L 34.03 45.83 L 34.03 45.84 L 34.03 43.24 L 34.03 43.24 L 56.71 25.94 L 56.71 28.54 zM 119.09 -44.97 L 119.09 -44.97 L 90.74 -23.35 L 90.74 -23.35 L 90.74 -23.35 L 90.74 -24.65 L 90.74 -24.65 L 90.74 -24.65 L 90.74 -25.94 L 90.74 -25.94 L 118.63 -47.22 L 118.63 -47.22 L 119.09 -47.56 L 119.09 -44.97 z" fill="none" stroke="black" id="10|0|0||-8" stroke-width="0.35mm"></path><path d="M -56.71 99.89 L -56.71 99.89 L -56.71 102.48 L -45.37 93.83 L -45.37 93.83 L -45.37 96.43 L -34.03 87.78 L -34.03 87.78 L -34.03 90.37 L -22.68 81.73 L -22.68 81.73 L -22.68 84.32 L -11.34 75.67 L -11.34 75.67 L -11.34 78.27 L 0 69.62 L 0 69.62 L 0 72.21 L 28.04 50.83 L 28.04 50.83 L 28.35 50.59 L 28.35 53.18 L 28.36 53.19 L 28.35 53.19 L 0.01 74.8 L 0 74.81 L 0 74.81 L 0 74.81 L 0 74.81 L 0 74.81 L 0 74.81 L 0 77.4 L 0 77.4 L 0 77.4 L 0 80 L 0 80 L 0 80 L 0 82.59 L 0 82.59 L 0 82.59 L 0 82.59 L 0 85.18 L 0 85.18 L 0 85.18 L 0 86.48 L 0 86.48 L 0 86.48 L -85.06 151.34 L -170.13 86.48 L -85.06 21.62 L -85.06 121.51 z" fill="none" stroke="black" id="10|0|0||-10" stroke-width="0.35mm"></path><path d="M -34.03 27.67 L -34.03 25.08 L -60.68 4.76 L -51.04 -2.59 L -22.68 19.03 zM -22.68 19.03 L -22.68 19.03 L -22.68 19.03 zM 56.71 0 L 56.71 3.03 L 50.38 -1.8 L 50.38 -1.8 L 50.38 -1.8 L 45.37 -5.62 L 45.37 -5.62 L 45.37 -5.62 L 45.37 -5.63 L 73.72 -27.24 L 73.72 -27.24 L 83.08 -20.11 z" fill="none" stroke="black" id="0|10|0||-34" stroke-width="0.35mm"></path><path d="M -56.71 102.48 L -56.71 99.89 L -83.36 79.56 L -73.72 72.21 L -45.37 93.83 zM 51.04 10.38 L 51.04 10.38 L 51.04 10.38 L 22.69 31.99 L 22.68 32 L 11.34 23.35 L 11.34 23.35 L 11.35 23.34 L 39.7 1.73 L 39.7 1.73 L 51.04 10.38 z" fill="none" stroke="black" id="0|10|0||-39" stroke-width="0.35mm"></path><path d="M 45.37 57.07 L 45.37 57.08 L 45.37 57.08 L 45.37 54.48 L 45.37 54.48 L 56.71 45.84 L 56.71 48.43 zM 130.43 -33.73 L 130.43 -33.73 L 102.08 -12.11 L 102.08 -12.11 L 102.08 -12.11 L 102.08 -13.4 L 102.08 -13.4 L 102.08 -13.4 L 102.08 -14.7 L 102.08 -14.7 L 129.99 -35.98 L 129.99 -35.98 L 130.43 -36.32 L 130.43 -33.73 z" fill="none" stroke="black" id="10|0|0||-4" stroke-width="0.35mm"></path><path d="M 39.7 64.43 L 39.7 64.43 L 11.35 86.04 L 11.34 86.05 L 11.34 86.05 L 11.34 83.45 L 11.34 83.45 L 39.39 62.07 L 39.39 62.07 L 39.7 61.83 L 39.7 64.43 z" fill="none" stroke="black" id="10|0|0||-6" stroke-width="0.35mm"></path><path d="M -45.37 96.43 L -45.37 93.83 L -72.02 73.51 L -62.38 66.16 L -34.03 87.78 zM 56.71 25.94 L 34.03 43.24 L 26.92 37.82 L 26.92 37.82 L 26.92 37.82 L 22.68 34.59 L 22.68 34.59 L 22.68 34.59 L 22.69 34.59 L 51.04 12.97 L 56.71 17.3 z" fill="none" stroke="black" id="0|10|0||-40" stroke-width="0.35mm"></path><path d="M -22.68 21.62 L -22.68 19.03 L -49.34 -1.3 L -39.7 -8.65 L -11.34 12.97 z" fill="none" stroke="black" id="0|10|0||-35" stroke-width="0.35mm"></path><path d="M 28.35 50.59 L 28.04 50.83 L 28.04 50.83 L 0 72.21 L 0 69.62 L -26.65 49.29 L 0 28.97 L 28.35 50.59 z" fill="none" stroke="black" id="0|10|0||-44" stroke-width="0.35mm"></path><path d="M -11.34 15.57 L -11.34 12.97 L -38 -7.35 L -28.35 -14.7 L 0 6.92 z" fill="none" stroke="black" id="0|10|0||-36" stroke-width="0.35mm"></path><path d="M 141.78 -22.49 L 141.77 -22.49 L 113.43 -0.87 L 113.42 -0.87 L 113.42 -0.87 L 113.42 -2.16 L 113.42 -2.16 L 113.42 -2.16 L 113.42 -3.46 L 113.42 -3.46 L 141.35 -24.75 L 141.35 -24.75 L 141.77 -25.08 L 141.77 -22.49 z" fill="none" stroke="black" id="10|0|0||0" stroke-width="0.35mm"></path><path d="M 51.04 75.67 L 51.04 75.67 L 22.69 97.29 L 22.68 97.29 L 22.68 97.29 L 22.68 94.7 L 22.68 94.7 L 50.74 73.3 L 50.74 73.3 L 51.04 73.08 L 51.04 75.67 z" fill="none" stroke="black" id="10|0|0||-2" stroke-width="0.35mm"></path><path d="M -126.18 9.73 L -151.42 -9.51 L -141.77 -16.86 L -116.54 2.38 zM -45.37 -91.67 L -45.37 -92.97 L -45.37 -92.97 L -45.37 -92.97 L -45.37 -94.27 L -72.02 -114.59 L -62.38 -121.94 L -34.03 -100.32 z" fill="none" stroke="black" id="0|10|0||-18" stroke-width="0.35mm"></path><path d="M -34.03 90.37 L -34.03 87.78 L -60.68 67.46 L -51.04 60.1 L -22.68 81.73 zM 45.37 54.48 L 39.14 49.73 L 39.14 49.73 L 39.14 49.73 L 34.03 45.84 L 34.03 45.84 L 34.03 45.83 L 34.03 45.83 L 56.71 28.54 L 56.71 45.84 z" fill="none" stroke="black" id="0|10|0||-41" stroke-width="0.35mm"></path><path d="M 340.26 345.93 L 340.26 345.93 L 311.9 367.55 L 311.9 367.55 L 311.9 367.55 L 283.55 389.17 L 283.55 389.17 L 283.55 389.17 L 255.2 410.79 L 255.19 410.79 L 255.19 410.79 L 0 605.37 L 0 345.93 L 0 345.93 L 368.61 64.86 L 368.62 64.86 L 368.61 64.86 L 453.68 0 L 453.68 259.45 zM 368.61 64.86 L 368.61 64.86 L 368.62 64.86 zM 453.68 0 L 453.68 0 L 453.68 0 zM 453.68 0 L 453.68 0 L 453.68 0 z" fill="none" stroke="black" id="10|0|0||80" stroke-width="0.35mm"></path><path d="M 152.55 -13.4 L 152.7 -13.52 L 152.7 -13.52 L 153.12 -13.84 L 153.12 -12.97 z" fill="none" stroke="black" id="10|0|0||4" stroke-width="0.35mm"></path><path d="M 39.7 61.83 L 39.7 61.83 L 39.7 61.83 L 39.39 62.07 L 39.39 62.07 L 11.34 83.45 L 0 74.81 L 0 74.81 L 0 74.81 L 0.01 74.8 L 28.35 53.19 L 28.36 53.19 L 39.7 61.83 z" fill="none" stroke="black" id="0|10|0||-45" stroke-width="0.35mm"></path><path d="M 34.03 108.53 L 34.03 108.53 L 34.03 108.53 L 34.03 108.53 L 34.03 105.94 L 56.71 88.64 L 56.71 91.24 z" fill="none" stroke="black" id="10|0|0||2" stroke-width="0.35mm"></path><path d="M -22.68 84.32 L -22.68 81.73 L -49.34 61.4 L -39.7 54.05 L -11.34 75.67 zM 50.49 60.98 L 50.49 60.98 L 50.49 60.98 L 45.37 57.08 L 45.37 57.08 L 45.37 57.08 L 45.37 57.07 L 56.71 48.43 L 56.71 65.73 z" fill="none" stroke="black" id="0|10|0||-42" stroke-width="0.35mm"></path><path d="" fill="none" stroke="black" id="10|0|0||8" stroke-width="0.35mm"></path><path d="M 51.04 73.08 L 51.04 73.08 L 51.04 73.08 L 50.74 73.3 L 50.74 73.3 L 22.68 94.7 L 11.34 86.05 L 11.34 86.05 L 11.34 86.05 L 11.35 86.04 L 39.7 64.43 L 39.7 64.43 L 51.04 73.08 z" fill="none" stroke="black" id="0|10|0||-46" stroke-width="0.35mm"></path><path d="M 45.37 119.77 L 45.37 119.78 L 45.37 119.78 L 45.37 119.78 L 45.37 117.18 L 56.71 108.53 L 56.71 111.13 z" fill="none" stroke="black" id="10|0|0||6" stroke-width="0.35mm"></path><path d="M -11.34 78.27 L -11.34 75.67 L -38 55.35 L -28.35 48 L 0 69.62 z" fill="none" stroke="black" id="0|10|0||-43" stroke-width="0.35mm"></path><path d="" fill="none" stroke="black" id="10|0|0||12" stroke-width="0.35mm"></path><path d="M 56.89 0.14 L 56.89 0.14 L 59.73 2.31 L 59.73 2.31 L 59.73 2.31 L 66.06 7.13 L 66.06 7.13 L 66.06 7.13 L 71.17 11.03 L 71.17 11.03 L 71.17 11.03 L 94.72 28.98 L 94.72 28.98 L 94.72 28.98 L 170.13 86.48 L 85.06 151.34 L 0 86.48 L 0 86.48 L 0 86.48 L 0 86.48 L 0 85.18 L 0 85.18 L 0 85.18 L 0 82.59 L 0 82.59 L 0 82.59 L 0 82.59 L 0 80 L 0 80 L 0 80 L 0 77.4 L 0 77.4 L 0 77.4 L 0 74.81 L 0 74.81 L 0 74.81 L 11.34 83.45 L 11.34 86.05 L 22.68 94.7 L 22.68 97.29 L 22.68 97.29 L 34.03 105.94 L 34.03 105.94 L 34.03 108.53 L 34.03 108.53 L 34.03 108.53 L 34.03 108.53 L 45.37 117.18 L 45.37 119.78 L 56.71 128.43 L 56.71 125.83 L 56.71 125.83 L 56.71 125.83 L 56.71 123.24 L 56.71 123.24 L 56.71 123.24 L 56.71 120.64 L 56.71 120.64 L 56.71 120.64 L 56.71 0 L 56.89 0.14 z" fill="none" stroke="black" id="0|0|10||-10" stroke-width="0.35mm"></path><path d="M 56.71 88.64 L 34.03 105.94 L 22.68 97.29 L 22.68 97.29 L 22.69 97.29 L 51.04 75.67 L 51.04 75.67 L 56.71 80 z" fill="none" stroke="black" id="0|10|0||-47" stroke-width="0.35mm"></path><path d="" fill="none" stroke="black" id="10|0|0||10" stroke-width="0.35mm"></path><path d="M -136.1 17.3 L -136.1 16.86 L -162.76 -3.46 L -153.12 -10.81 L -126.18 9.73 zM -56.71 -85.62 L -56.71 -86.91 L -56.71 -86.91 L -56.71 -86.91 L -56.71 -88.21 L -83.36 -108.54 L -73.72 -115.89 L -45.37 -94.27 z" fill="none" stroke="black" id="0|10|0||-17" stroke-width="0.35mm"></path><path d="" fill="none" stroke="black" id="10|0|0||16" stroke-width="0.35mm"></path><path d="M 45.37 117.18 L 45.37 117.18 L 34.03 108.53 L 34.03 108.53 L 34.03 108.53 L 34.03 108.53 L 56.71 91.24 L 56.71 108.53 z" fill="none" stroke="black" id="0|10|0||-48" stroke-width="0.35mm"></path><path d="" fill="none" stroke="black" id="10|0|0||14" stroke-width="0.35mm"></path><path d="" fill="none" stroke="black" id="10|0|0||20" stroke-width="0.35mm"></path><path d="M 56.71 120.64 L 56.71 120.64 L 56.71 123.24 L 56.71 123.24 L 56.71 123.24 L 56.71 125.83 L 56.71 125.83 L 56.71 125.83 L 56.71 128.43 L 45.37 119.78 L 45.37 119.78 L 45.37 119.77 L 56.71 111.13 L 56.71 120.64 z" fill="none" stroke="black" id="0|10|0||-49" stroke-width="0.35mm"></path><path d="" fill="none" stroke="black" id="10|0|0||18" stroke-width="0.35mm"></path><path d="M -142.06 21.4 L -170.13 0 L -173.82 2.81 L -174.1 2.59 L -164.46 -4.76 L -136.1 16.86 zM -68.05 -79.56 L -68.05 -80.86 L -68.05 -80.86 L -68.05 -80.86 L -68.05 -82.16 L -94.71 -102.48 L -85.06 -109.83 L -56.71 -88.21 z" fill="none" stroke="black" id="0|10|0||-16" stroke-width="0.35mm"></path><path d="" fill="none" stroke="black" id="10|0|0||24" stroke-width="0.35mm"></path><path d="" fill="none" stroke="black" id="10|0|0||22" stroke-width="0.35mm"></path><path d="" fill="none" stroke="black" id="10|0|0||28" stroke-width="0.35mm"></path><path d="" fill="none" stroke="black" id="10|0|0||26" stroke-width="0.35mm"></path><path d="" fill="none" stroke="black" id="10|0|0||32" stroke-width="0.35mm"></path><path d="M -183.46 10.16 L -185.44 8.65 L -175.8 1.3 L -173.82 2.81 zM -79.39 -73.51 L -79.39 -74.81 L -79.39 -74.81 L -79.39 -74.81 L -79.39 -76.1 L -79.39 -76.1 L -106.05 -96.43 L -96.41 -103.78 L -68.05 -82.16 z" fill="none" stroke="black" id="0|10|0||-15" stroke-width="0.35mm"></path><path d="" fill="none" stroke="black" id="10|0|0||36" stroke-width="0.35mm"></path><path d="M -193.1 17.51 L -196.78 14.7 L -187.14 7.35 L -183.46 10.16 zM -90.74 -67.46 L -90.74 -68.75 L -90.74 -68.75 L -90.74 -68.75 L -90.74 -70.05 L -117.39 -90.37 L -107.75 -97.72 L -79.39 -76.1 zM -79.39 -76.1 L -79.39 -76.1 L -79.39 -76.1 z" fill="none" stroke="black" id="0|10|0||-14" stroke-width="0.35mm"></path><path d="M -198.48 21.62 L -203.87 17.51 L -198.48 13.4 L -193.1 17.51 zM -102.08 -61.4 L -102.08 -64 L -128.73 -84.32 L -119.09 -91.67 L -90.74 -70.05 z" fill="none" stroke="black" id="0|10|0||-13" stroke-width="0.35mm"></path><path d="M -113.42 -55.35 L -113.42 -57.94 L -140.07 -78.27 L -130.43 -85.62 L -102.08 -64 z" fill="none" stroke="black" id="0|10|0||-12" stroke-width="0.35mm"></path><path d="M -124.76 -49.3 L -124.76 -51.89 L -151.42 -72.21 L -141.77 -79.56 L -113.42 -57.94 z" fill="none" stroke="black" id="0|10|0||-11" stroke-width="0.35mm"></path><path d="M -136.1 -43.24 L -136.1 -45.84 L -162.76 -66.16 L -153.12 -73.51 L -124.76 -51.89 z" fill="none" stroke="black" id="0|10|0||-10" stroke-width="0.35mm"></path><path d="M -147.45 -37.19 L -147.45 -39.78 L -174.1 -60.11 L -164.46 -67.46 L -136.1 -45.84 z" fill="none" stroke="black" id="0|10|0||-9" stroke-width="0.35mm"></path><path d="M -158.79 -31.13 L -158.79 -33.73 L -185.44 -54.05 L -175.8 -61.4 L -147.45 -39.78 z" fill="none" stroke="black" id="0|10|0||-8" stroke-width="0.35mm"></path><path d="M 0 216.2 L -85.06 151.34 L 0 86.48 L 85.06 151.34 z" fill="none" stroke="black" id="0|10|0||-50" stroke-width="0.35mm"></path><path d="M -170.13 -25.08 L -170.13 -27.67 L -196.78 -48 L -187.14 -55.35 L -158.79 -33.73 z" fill="none" stroke="black" id="0|10|0||-7" stroke-width="0.35mm"></path><path d="M -181.47 -19.03 L -181.47 -21.62 L -208.13 -41.94 L -198.48 -49.29 L -170.13 -27.67 z" fill="none" stroke="black" id="0|10|0||-6" stroke-width="0.35mm"></path><path d="M -192.81 -12.97 L -192.81 -15.57 L -219.47 -35.89 L -209.83 -43.24 L -181.47 -21.62 z" fill="none" stroke="black" id="0|10|0||-5" stroke-width="0.35mm"></path><path d="M -204.16 -6.92 L -204.16 -9.51 L -204.16 -9.51 L -204.16 -9.51 L -230.81 -29.84 L -221.17 -37.19 L -192.81 -15.57 z" fill="none" stroke="black" id="0|10|0||-4" stroke-width="0.35mm"></path><path d="M -215.5 -0.87 L -215.5 -3.46 L -242.15 -23.78 L -232.51 -31.13 L -204.16 -9.51 z" fill="none" stroke="black" id="0|10|0||-3" stroke-width="0.35mm"></path><path d="M -223.44 2.59 L -226.84 0 L -228.54 1.3 L -253.49 -17.73 L -243.85 -25.08 L -215.5 -3.46 z" fill="none" stroke="black" id="0|10|0||-2" stroke-width="0.35mm"></path><path d="M -255.19 21.62 L -281.85 1.3 L -255.19 -19.03 L -228.54 1.3 z" fill="none" stroke="black" id="0|10|0||-1" stroke-width="0.35mm"></path></g><g inkscape:label="Shading" inkscape:groupmode="layer" id="shading_layer"><path d=" M-4.38,596.95L-2,594.56 M-2,586.08L-8.23,592.31 M-12.07,587.66L-2,577.59 M-2,569.11L-15.92,583.02 M-19.76,578.38L-2,560.62 M-2,552.14L-23.6,573.74 M-27.45,569.1L-2,543.65 M-2,535.17L-31.29,564.46 M-35.14,559.82L-2,526.68 M-2,518.2L-38.98,555.18 M-42.83,550.54L-2,509.71 M-2,501.22L-46.67,545.89 M-50.51,541.25L-2,492.74 M-2,484.25L-54.36,536.61 M-58.2,531.97L-2,475.77 M-2,467.28L-62.05,527.33 M-65.89,522.69L-2,458.8 M-2,450.31L-69.74,518.05 M-73.58,513.41L-2,441.83 M-2,433.34L-77.42,508.77 M-87.06,518.41L-88.35,519.7 M-93.44,516.3L-87.06,509.92 M-81.27,504.13L-2,424.86 M-2,416.37L-86.81,501.18 M-87.06,501.44L-98.53,512.91 M-103.62,509.51L-2,407.89 M-2,399.4L-108.71,506.11 M-113.8,502.72L-2,390.92 M-2,382.43L-118.89,499.32 M-123.98,495.93L-2,373.95 M-2,365.46L-129.07,492.53 M-134.16,489.14L-2,356.97 M-2,348.49L-139.25,485.74 M-144.34,482.34L-5.92,343.93 M-10.74,340.26L-149.43,478.95 M-154.52,475.55L-15.55,336.59 M-20.37,332.91L-159.61,472.16 M-164.7,468.76L-25.18,329.24 M-29.99,325.57L-169.79,465.37 M-174.88,461.97L-34.81,321.9 M-39.62,318.23L-179.97,458.58 M-185.06,455.18L-44.44,314.56 M-49.25,310.89L-190.15,451.78 M-195.24,448.39L-54.07,307.22 M-58.88,303.55L-200.33,444.99 M-205.42,441.6L-63.69,299.88 M-68.51,296.2L-210.51,438.2 M-215.59,434.81L-73.32,292.53 M-78.14,288.86L-220.68,431.41 M-225.77,428.01L-82.95,285.19 M-87.77,281.52L-230.86,424.62 M-235.95,421.22L-92.58,277.85 M-97.4,274.18L-241.04,417.83 M-246.13,414.43L-102.21,270.51 M-107.02,266.84L-251.22,411.04 M-256.19,407.52L-111.84,263.17 M-116.65,259.5L-261,403.85 M-265.82,400.17L-121.47,255.82 M-126.28,252.15L-270.63,396.5 M-275.45,392.83L-131.1,248.48 M-135.91,244.81L-280.26,389.16 M-285.07,385.49L-140.72,241.14 M-145.54,237.47L-289.89,381.82 M-294.7,378.15L-150.35,233.8 M-155.17,230.13L-299.52,374.48 M-304.33,370.81L-159.98,226.46 M-164.8,222.79L-309.15,367.14 M-313.96,363.47L-169.61,219.12 M-174.43,215.44L-318.78,359.79 M-323.59,356.12L-179.24,211.77 M-184.05,208.1L-328.4,352.45 M-333.22,348.78L-188.87,204.43 M-193.68,200.76L-338.03,345.11 M-342.85,341.44L-198.5,197.09 M-203.31,193.42L-347.66,337.77 M-352.48,334.1L-208.13,189.75 M-212.94,186.08L-357.29,330.43 M-362.1,326.76L-217.75,182.41 M-222.57,178.74L-366.92,323.09 M-371.73,319.41L-227.38,175.06 M-232.2,171.39L-376.55,315.74 M-381.36,312.07L-237.01,167.72 M-241.83,164.05L-386.18,308.4 M-390.99,304.73L-246.64,160.38 M-251.46,156.71L-395.8,301.06 M-400.62,297.39L-256.27,153.04 M-261.08,149.37L-405.43,293.72 M-410.25,290.05L-265.9,145.7 M-270.71,142.03L-415.06,286.38 M-419.88,282.71L-275.53,138.36 M-280.34,134.68L-424.69,279.03 M-429.51,275.36L-285.16,131.01 M-289.97,127.34L-434.32,271.69 M-439.13,268.02L-294.78,123.67 M-299.6,120L-443.95,264.35 M-448.76,260.68L-304.41,116.33 M-309.23,112.66L-451.68,255.11 M-451.68,246.63L-314.04,108.99 M-318.86,105.32L-451.68,238.14 M-451.68,229.66L-323.67,101.65 M-328.48,97.98L-451.68,221.17 M-451.68,212.69L-333.3,94.3 M-338.11,90.63L-451.68,204.2 M-451.68,195.71L-342.93,86.96 M-347.74,83.29L-451.68,187.23 M-451.68,178.74L-352.56,79.62 M-357.37,75.95L-451.68,170.26 M-451.68,161.77L-362.19,72.28 M-367,68.61L-451.68,153.29 M-451.68,144.8L-371.81,64.94 M-376.63,61.27L-451.68,136.32 M-451.68,127.83L-381.44,57.6 M-386.26,53.92L-451.68,119.35 M-451.68,110.86L-391.07,50.25 M-395.89,46.58L-451.68,102.38 M-451.68,93.89L-400.7,42.91 M-405.51,39.24L-451.68,85.41 M-451.68,76.92L-410.33,35.57 M-415.14,31.9L-451.68,68.44 M-451.68,59.95L-419.96,28.23 M-424.77,24.56L-451.68,51.46 M-451.68,42.98L-429.59,20.89 M-434.4,17.22L-451.68,34.49 M-451.68,26.01L-439.22,13.54 M-444.03,9.87L-451.68,17.52 M-451.68,9.04L-448.84,6.2" stroke="black" stroke-width="0.5"></path><path d=" M-249.32,-23.58L-249.32,-23.42 M-241.32,-26.93L-241.32,-29.68 M-233.32,-35.78L-233.32,-33.03 M-225.32,-36.53L-225.32,-41.88 M-217.32,-47.98L-217.32,-40.04 M-209.32,-45.24L-209.32,-54.08 M-201.32,-60.18L-201.32,-49.64 M-193.32,-53.15L-193.32,-66.28 M-185.32,-72.38L-185.32,-56.66 M-177.32,-62.76L-177.32,-78.48 M-169.32,-84.58L-169.32,-66.26 M-161.32,-69.77L-161.32,-90.68 M-153.32,-96.78L-153.32,-75.51 M-145.32,-79.37L-145.32,-102.88 M-137.32,-108.98L-137.32,-82.88 M-129.32,-87.29L-129.32,-115.08 M-121.32,-121.18L-121.32,-92.48 M-113.32,-95.99L-113.32,-127.28 M-105.32,-133.38L-105.32,-99.49 M-97.32,-105.59L-97.32,-139.48 M-89.32,-145.58L-89.32,-109.1 M-81.32,-112.6L-81.32,-151.68 M-73.32,-157.78L-73.32,-117.89 M-65.32,-122.21L-65.32,-163.88 M-57.32,-169.98L-57.32,-125.72 M-49.32,-129.22L-49.32,-176.08 M-41.32,-182.18L-41.32,-135.32 M-33.32,-138.83L-33.32,-188.28 M-25.32,-194.38L-25.32,-142.33 M-17.32,-148.43L-17.32,-200.48 M-9.32,-206.58L-9.32,-154.53" stroke="black" stroke-width="0.5"></path><path d=" M240.88,-13.22L250.41,-22.75 M245.6,-26.42L223.92,-4.74 M219.1,-8.41L240.78,-30.09 M235.97,-33.77L214.29,-12.09 M209.47,-15.76L231.15,-37.44 M226.34,-41.11L204.66,-19.43 M199.85,-23.1L221.53,-44.78 M216.71,-48.45L172.86,-4.6 M165.68,-5.91L211.9,-52.12 M207.08,-55.79L160.87,-9.58 M156.05,-13.25L202.27,-59.46 M197.45,-63.13L151.73,-17.41 M146.92,-21.08L192.64,-66.8 M187.83,-70.47L143.48,-26.13 M138.76,-29.89L183.01,-74.14 M178.2,-77.82L133.95,-33.56 M130.6,-38.71L173.38,-81.49 M168.57,-85.16L125.79,-42.38 M121.09,-46.17L163.75,-88.83 M158.94,-92.5L117.63,-51.19 M112.82,-54.86L154.12,-96.17 M149.31,-99.84L109.41,-59.94 M104.66,-63.68L144.5,-103.51 M139.68,-107.18L99.85,-67.35 M96.5,-72.49L134.87,-110.85 M130.05,-114.53L91.69,-76.16 M87.06,-80.02L125.24,-118.2 M120.42,-121.87L83.53,-84.98 M78.72,-88.65L115.61,-125.54 M110.8,-129.21L75.35,-93.76 M70.56,-97.46L105.98,-132.88 M101.17,-136.55L65.75,-101.13 M62.41,-106.27L96.35,-140.22 M91.54,-143.89L57.59,-109.95 M53.04,-113.88L86.72,-147.56 M81.91,-151.23L49.43,-118.76 M44.62,-122.43L77.09,-154.91 M72.28,-158.58L41.28,-127.57 M36.46,-131.24L67.47,-162.25 M62.65,-165.92L31.65,-134.92 M28.31,-140.06L57.84,-169.59 M53.02,-173.26L23.49,-143.73 M18.68,-147.4L48.21,-176.93 M43.39,-180.6L13.86,-151.07 M9.05,-154.74L38.58,-184.27 M33.77,-187.94L4.24,-158.41 M2,-164.66L28.95,-191.61 M24.14,-195.29L2,-173.15 M2,-181.63L19.32,-198.96 M14.51,-202.63L2,-190.12 M2.02,-198.62L9.69,-206.3 M4.88,-209.97L2,-207.09" stroke="black" stroke-width="0.5"></path><path d=" M-447.89,-1.9L-431.88,14.11 M-408.06,32.27L-444.68,-4.35 M-441.47,-6.8L-384.24,50.43 M-360.42,68.59L-438.26,-9.24 M-435.05,-11.69L-336.61,86.75 M-312.79,104.91L-431.84,-14.14 M-428.63,-16.59L-288.97,123.08 M-265.15,141.24L-425.42,-19.03 M-422.21,-21.48L-241.33,159.4 M-217.52,177.56L-419,-23.93 M-415.79,-26.37L-193.7,195.72 M-169.88,213.88L-412.58,-28.82 M-409.37,-31.27L-146.06,232.04 M-122.25,250.2L-406.16,-33.72 M-402.95,-36.16L-98.43,268.36 M-74.61,286.52L-399.74,-38.61 M-396.53,-41.06L-50.79,304.68 M-26.98,322.84L-393.32,-43.51 M-390.12,-45.95L-3.16,341 M2.78,341.29L-386.91,-48.4 M-383.7,-50.85L5.99,338.84 M9.2,336.4L-380.49,-53.29 M-377.28,-55.74L12.41,333.95 M15.62,331.5L-374.07,-58.19 M-370.86,-60.64L18.83,329.05 M22.04,326.61L-367.65,-63.08 M-364.44,-65.53L25.25,324.16 M28.46,321.71L-361.23,-67.98 M-358.02,-70.43L31.67,319.26 M34.88,316.82L-266.17,15.76 M-284.06,-2.12L-354.81,-72.87 M-351.6,-75.32L-280.85,-4.57 M-253.46,22.82L38.09,314.37 M41.3,311.92L-250.26,20.37 M-277.64,-7.02L-348.39,-77.77 M-345.18,-80.21L-274.43,-9.47 M-247.05,17.92L44.51,309.48 M47.72,307.03L-170.9,88.41 M-172.13,87.18L-243.84,15.47 M-271.22,-11.91L-341.97,-82.66 M-338.76,-85.11L-268.01,-14.36 M-240.63,13.03L-169.88,83.78 M-147.08,106.57L50.93,304.58 M54.14,302.13L-123.27,124.73 M-166.67,81.33L-237.42,10.58 M-264.8,-16.81L-335.55,-87.56 M-332.34,-90L-261.6,-19.26 M-234.21,8.13L-163.46,78.88 M-99.45,142.89L57.35,299.69 M60.56,297.24L-75.63,161.05 M-160.25,76.43L-231,5.69 M-258.39,-21.7L-329.13,-92.45 M-325.92,-94.9L-255.18,-24.15 M-227.79,3.24L-157.04,73.99 M-51.81,179.21L63.77,294.79 M66.98,292.34L-28,197.37 M-153.83,71.54L-210.06,15.31 M-251.97,-26.6L-322.71,-97.35 M-319.5,-99.79L-248.76,-29.04 M-196.83,22.88L-150.62,69.09 M-4.18,215.53L70.18,289.9 M73.39,287.45L2.65,216.7 M-147.41,66.64L-193.63,20.43 M-245.55,-31.49L-316.3,-102.24 M-313.09,-104.69L-242.34,-33.94 M-190.42,17.98L-144.2,64.2 M5.86,214.25L76.6,285 M79.81,282.56L9.07,211.81 M-140.99,61.75L-187.21,15.54 M-239.13,-36.39L-309.88,-107.13 M-306.67,-109.58L-235.92,-38.83 M-184,13.09L-137.78,59.3 M12.28,209.36L83.02,280.11 M86.23,277.66L15.48,206.91 M-134.57,56.86L-180.79,10.64 M-232.71,-41.28L-303.46,-112.03 M-300.25,-114.48L-229.5,-43.73 M-177.58,8.19L-131.36,54.41 M18.69,204.47L89.44,275.21 M92.65,272.77L21.9,202.02 M-128.15,51.96L-174.37,5.75 M-226.29,-46.18L-297.04,-116.92 M-293.83,-119.37L-223.08,-48.62 M-171.16,3.3L-124.94,49.51 M25.11,199.57L95.86,270.32 M99.07,267.87L28.32,197.12 M-121.73,47.07L-153.94,14.86 M-219.87,-51.07L-290.62,-121.82 M-287.41,-124.27L-216.66,-53.52 M-140.21,22.94L-118.52,44.62 M31.53,194.68L102.28,265.42 M105.49,262.98L34.74,192.23 M-115.32,42.17L-137,20.49 M-213.45,-55.96L-284.2,-126.71 M-280.99,-129.16L-210.24,-58.41 M-133.79,18.04L-112.11,39.72 M37.95,189.78L108.7,260.53 M111.91,258.08L41.16,187.33 M-108.9,37.28L-130.58,15.6 M-207.03,-60.86L-277.78,-131.61 M-274.57,-134.05L-203.82,-63.31 M-127.37,13.15L-105.69,34.83 M44.37,184.89L115.12,255.63 M118.33,253.19L47.58,182.44 M-102.48,32.38L-124.16,10.7 M-200.61,-65.75L-271.36,-136.5 M-268.15,-138.95L-197.4,-68.2 M-120.95,8.25L-99.27,29.93 M50.79,179.99L121.54,250.74 M124.75,248.29L54,177.55 M-96.06,27.49L-117.74,5.81 M-194.19,-70.65L-264.94,-141.4 M-261.73,-143.84L-190.98,-73.1 M-114.53,3.36L-92.85,25.04 M57.21,175.1L127.96,245.85 M131.17,243.4L60.42,172.65 M-89.64,22.59L-97.83,14.4 M-187.77,-75.54L-258.52,-146.29 M-255.31,-148.74L-184.57,-77.99 M63.63,170.2L134.38,240.95 M137.59,238.5L66.84,167.76 M-181.36,-80.44L-252.1,-151.19 M-248.89,-153.63L-178.15,-82.88 M70.05,165.31L140.8,236.06 M144,233.61L73.26,162.86 M-174.94,-85.33L-245.68,-156.08 M-242.47,-158.53L-171.73,-87.78 M76.47,160.41L147.21,231.16 M150.42,228.71L79.68,157.97 M-168.52,-90.23L-239.27,-160.97 M-236.06,-163.42L-165.31,-92.67 M82.89,155.52L153.63,226.27 M156.84,223.82L86.1,153.07 M-162.1,-95.12L-232.85,-165.87 M-229.64,-168.32L-158.89,-97.57 M89.3,150.63L160.05,221.37 M163.26,218.93L92.51,148.18 M-155.68,-100.02L-226.43,-170.76 M-223.22,-173.21L-152.47,-102.46 M95.72,145.73L166.47,216.48 M169.68,214.03L98.93,143.28 M-149.26,-104.91L-220.01,-175.66 M-216.8,-178.11L-146.05,-107.36 M102.14,140.84L172.89,211.58 M176.1,209.14L105.35,138.39 M-142.84,-109.8L-213.59,-180.55 M-210.38,-183L-139.63,-112.25 M108.56,135.94L179.31,206.69 M182.52,204.24L111.77,133.49 M-136.42,-114.7L-207.17,-185.45 M-203.96,-187.89L-133.21,-117.15 M114.98,131.05L185.73,201.79 M188.94,199.35L118.19,128.6 M-130,-119.59L-200.75,-190.34 M-197.54,-192.79L-126.79,-122.04 M121.4,126.15L192.15,196.9 M195.36,194.45L124.61,123.71 M-123.58,-124.49L-194.33,-195.24 M-191.12,-197.68L-120.37,-126.94 M127.82,121.26L198.57,192.01 M201.78,189.56L131.03,118.81 M-117.16,-129.38L-187.91,-200.13 M-184.7,-202.58L-113.95,-131.83 M134.24,116.36L204.99,187.11 M208.2,184.66L137.45,113.92 M-110.75,-134.28L-181.49,-205.03 M-178.28,-207.47L-107.54,-136.72 M140.66,111.47L211.41,182.22 M214.62,179.77L143.87,109.02 M-104.33,-139.17L-175.07,-209.92 M-171.86,-212.37L-101.12,-141.62 M147.08,106.57L217.83,177.32 M221.03,174.87L150.29,104.13 M-97.91,-144.07L-168.65,-214.81 M-165.45,-217.26L-94.7,-146.51 M153.5,101.68L224.24,172.43 M227.45,169.98L156.71,99.23 M-91.49,-148.96L-162.24,-219.71 M-159.03,-222.16L-88.28,-151.41 M61.78,-1.35L73.16,10.02 M159.92,96.79L230.66,167.53 M233.87,165.09L163.13,94.34 M96.97,28.19L64.99,-3.8 M-85.07,-153.86L-155.82,-224.6 M-152.61,-227.05L-81.86,-156.3 M68.2,-6.25L120.79,46.35 M166.33,91.89L237.08,162.64 M240.29,160.19L169.54,89.44 M144.61,64.51L71.41,-8.69 M-78.65,-158.75L-149.4,-229.5 M-146.19,-231.95L-75.44,-161.2 M74.62,-11.14L168.43,82.67 M172.13,86.37L243.5,157.74 M246.71,155.3L77.83,-13.59 M-72.23,-163.64L-142.98,-234.39 M-139.77,-236.84L-69.02,-166.09 M81.04,-16.03L249.92,152.85 M253.13,150.4L84.25,-18.48 M-65.81,-168.54L-136.56,-239.29 M-133.35,-241.73L-62.6,-170.99 M102.81,-5.57L256.34,147.95 M259.55,145.51L115.2,1.16 M-59.39,-173.43L-130.14,-244.18 M-126.93,-246.63L-56.18,-175.88 M118.41,-1.29L262.76,143.06 M265.97,140.61L121.62,-3.74 M-52.97,-178.33L-123.72,-249.08 M-120.51,-251.52L-49.76,-180.78 M124.83,-6.18L269.18,138.17 M272.39,135.72L128.04,-8.63 M-46.55,-183.22L-117.3,-253.97 M-114.09,-256.42L-43.34,-185.67 M131.25,-11.08L275.6,133.27 M278.81,130.82L134.46,-13.53 M-40.13,-188.12L-110.88,-258.87 M-107.67,-261.31L-36.92,-190.56 M137.67,-15.97L282.02,128.38 M285.23,125.93L140.88,-18.42 M-33.71,-193.01L-104.46,-263.76 M-101.25,-266.21L-30.51,-195.46 M158.93,-6.03L288.44,123.48 M291.65,121.03L171.83,1.22 M-27.3,-197.91L-98.04,-268.65 M-94.83,-271.1L-24.09,-200.35 M175.04,-1.23L294.86,118.59 M298.06,116.14L178.25,-3.68 M-20.88,-202.8L-91.62,-273.55 M-88.42,-276L-17.67,-205.25 M181.46,-6.12L301.27,113.69 M304.48,111.25L184.67,-8.57 M-14.46,-207.7L-85.21,-278.44 M-82,-280.89L-11.25,-210.14 M187.88,-11.02L307.69,108.8 M310.9,106.35L191.09,-13.46 M-8.04,-212.59L-78.79,-283.34 M-75.58,-285.79L-4.83,-215.04 M194.3,-15.91L314.11,103.9 M317.32,101.46L197.51,-18.36 M-1.62,-217.48L-72.37,-288.23 M-69.16,-290.68L11.8,-209.72 M215.04,-6.48L320.53,99.01 M323.74,96.56L228.46,1.28 M35.62,-191.56L-65.95,-293.13 M-62.74,-295.57L59.44,-173.4 M231.67,-1.17L326.95,94.11 M330.16,91.67L234.88,-3.61 M83.25,-155.24L-59.53,-298.02 M-56.32,-300.47L107.07,-137.08 M238.09,-6.06L333.37,89.22 M336.58,86.77L241.3,-8.51 M130.89,-118.92L-53.11,-302.92 M-49.9,-305.36L154.71,-100.76 M244.51,-10.96L339.79,84.33 M343,81.88L247.72,-13.4 M178.53,-82.6L-46.69,-307.81 M-43.48,-310.26L202.34,-64.44 M250.93,-15.85L346.21,79.43 M349.42,76.98L254.14,-18.3 M226.16,-46.28L-40.27,-312.71 M-37.06,-315.15L249.98,-28.12 M257.09,-21L352.63,74.54 M355.84,72.09L-33.85,-317.6 M-30.64,-320.05L359.05,69.64 M362.26,67.19L-27.43,-322.49 M-24.22,-324.94L365.47,64.75 M368.68,62.3L-21.01,-327.39 M-17.8,-329.84L371.89,59.85 M375.09,57.41L-14.6,-332.28 M-11.39,-334.73L378.3,54.96 M381.51,52.51L-8.18,-337.18 M-4.97,-339.63L384.72,50.06 M387.93,47.62L-1.76,-342.07 M10.78,-335.19L391.14,45.17 M394.35,42.72L34.6,-317.03 M58.42,-298.87L397.56,40.27 M400.77,37.83L82.23,-280.71 M106.05,-262.55L403.98,35.38 M407.19,32.93L129.87,-244.39 M153.69,-226.23L410.4,30.49 M413.61,28.04L177.5,-208.07 M201.32,-189.91L416.82,25.59 M420.03,23.14L225.14,-171.75 M248.96,-153.58L423.24,20.7 M426.45,18.25L272.78,-135.42 M296.59,-117.26L429.66,15.8 M432.87,13.35L320.41,-99.1 M344.23,-80.94L436.08,10.91 M439.29,8.46L368.05,-62.78 M391.86,-44.62L442.5,6.01 M445.71,3.57L415.68,-26.46 M439.5,-8.3L448.91,1.12" stroke="black" stroke-width="0.5"></path><path d=" M-213.33,7.78L-213.33,0 M-205.33,-5.27L-205.33,13.88 M-197.33,11.77L-197.33,-9.61 M-189.33,-13.11L-189.33,6.51 M-181.33,3L-181.33,-16.73 M-173.33,-22.72L-173.33,-0.51 M-165.33,-6.6L-165.33,-26.22 M-157.33,-29.73L-157.33,-10.11 M-149.33,-13.62L-149.33,-35.83 M-141.33,-39.33L-141.33,-18.86 M-133.33,-23.22L-133.33,-42.84 M-125.33,-47.35L-125.33,-26.73 M-117.33,-30.23L-117.33,-52.44 M-109.33,-55.95L-109.33,-36.33 M-101.33,-39.84L-101.33,-59.45 M-93.33,-65.55L-93.33,-43.34 M-85.33,-49.13L-85.33,-69.06 M-77.33,-72.57L-77.33,-52.95 M-69.33,-56.45L-69.33,-77.97 M-61.33,-82.17L-61.33,-60.96 M-53.33,-66.06L-53.33,-85.68 M-45.33,-89.42L-45.33,-69.57 M-37.33,-73.07L-37.33,-95.28 M-29.33,-98.79L-29.33,-79.17 M-21.33,-82.68L-21.33,-102.29 M-13.33,-108.39L-13.33,-88.78 M-5.33,-94.88L-5.33,-111.9" stroke="black" stroke-width="0.5"></path><path d=" M-102.72,-33.7L-102.74,-33.73 M-99.54,-36.18L-78.9,-15.54 M-74.65,-16.95L-95.8,-38.11 M-71.99,-19.94L-71.44,-19.39 M-22.1,-139.76L-14.03,-131.7 M2.79,-120.53L-18.89,-142.21 M-15.68,-144.66L6,-122.98 M9.21,-125.42L-12.47,-147.1 M-9.26,-149.55L12.42,-127.87 M15.63,-130.32L-6.05,-152 M-2.84,-154.45L18.84,-132.77 M22.05,-135.21L2.73,-154.53" stroke="black" stroke-width="0.5"></path><path d="" stroke="black" stroke-width="0.5"></path><path d=" M99.41,-14.22L98.83,-13.64 M94.01,-17.31L94.59,-17.9 M89.78,-21.57L89.2,-20.99 M82.67,-22.94L86.44,-26.71 M81.62,-30.38L77.85,-26.61 M74.51,-31.75L77.39,-34.64 M73.46,-39.19L69.69,-35.42 M64.88,-39.09L68.65,-42.86 M65.31,-48.01L61.54,-44.24 M56.72,-47.91L60.49,-51.68 M55.68,-55.35L53.08,-52.75 M48.57,-56.72L52.34,-60.49 M47.52,-64.16L43.75,-60.39 M40.41,-65.54L43.37,-68.49 M39.37,-72.98L35.6,-69.21 M30.78,-72.88L34.55,-76.65 M31.21,-81.79L27.44,-78.02 M22.62,-81.69L26.39,-85.46 M21.58,-89.13L17.81,-85.36 M13,-89.03L18.24,-94.28 M13.42,-97.95L8.18,-92.7 M3.37,-96.38L9.34,-102.35 M5.27,-106.76L2,-103.49" stroke="black" stroke-width="0.5"></path><path d=" M-80.17,-31.21L-89.89,-40.94 M-86.68,-43.38L-65,-21.7 M-61.79,-24.15L-73.26,-35.61 M12.62,-108.13L5.66,-115.09 M8.87,-117.54L15.83,-110.58 M19.04,-113.03L12.08,-119.99 M15.29,-122.43L22.25,-115.47 M25.46,-117.92L18.5,-124.88 M21.71,-127.33L28.67,-120.37 M31.88,-122.81L24.92,-129.77 M28.13,-132.22L35.09,-125.26" stroke="black" stroke-width="0.5"></path><path d="" stroke="black" stroke-width="0.5"></path><path d=" M-70.35,-38.43L-78.76,-46.83 M-75.55,-49.28L-53.87,-27.6 M-50.66,-30.05L-63.44,-42.83 M16.98,-103.83L23.94,-96.87 M27.15,-99.32L20.19,-106.28 M23.4,-108.73L30.36,-101.77 M33.57,-104.21L26.61,-111.17 M29.82,-113.62L36.78,-106.66 M39.99,-109.11L33.03,-116.07 M36.24,-118.52L43.2,-111.56 M46.41,-114L39.45,-120.96" stroke="black" stroke-width="0.5"></path><path d=" M-60.53,-45.64L-67.62,-52.73 M-64.41,-55.18L-42.73,-33.5 M-39.52,-35.95L-53.61,-50.04 M35.26,-85.62L28.3,-92.58 M31.51,-95.02L38.47,-88.06 M41.68,-90.51L34.72,-97.47 M37.93,-99.92L44.89,-92.96 M48.1,-95.4L41.14,-102.36 M44.35,-104.81L51.31,-97.85 M54.52,-100.3L47.56,-107.26 M50.77,-109.71L57.73,-102.75" stroke="black" stroke-width="0.5"></path><path d=" M-99.27,1.67L-99.27,8.28 M-91.27,14.38L-91.27,-2.79 M-83.27,-7.94L-83.27,14.27 M-75.27,8.17L-75.27,-11.44 M-67.27,-14.95L-67.27,4.67 M-59.27,1.16L-59.27,-21.05 M-51.27,-24.55L-51.27,-4.59 M-43.27,-8.44L-43.27,-28.06 M-35.27,-33.41L-35.27,-11.95 M-27.27,-16.39L-27.27,-37.67 M-19.27,-41.17L-19.27,-21.55 M-11.27,-27.65L-11.27,-44.86 M-3.27,-50.78L-3.27,-33.75" stroke="black" stroke-width="0.5"></path><path d="" stroke="black" stroke-width="0.5"></path><path d=" M-82.96,49.5L-83.06,49.39 M-22.52,-76.74L-17.15,-71.37 M2.37,-57.51L-19.31,-79.19 M-16.1,-81.64L5.58,-59.96 M8.79,-62.4L-12.89,-84.08 M-9.68,-86.53L12,-64.85 M15.21,-67.3L-6.47,-88.98 M-3.26,-91.43L18.42,-69.75 M21.63,-72.19L-0.05,-93.87 M23.43,-76.04L24.84,-74.64 M74.14,-47.96L81.1,-41 M84.31,-43.45L77.35,-50.41 M80.56,-52.86L87.52,-45.9 M90.73,-48.35L83.77,-55.31 M86.98,-57.75L93.94,-50.79 M97.15,-53.24L90.19,-60.2 M93.4,-62.65L100.36,-55.69 M103.57,-58.14L97.9,-63.8" stroke="black" stroke-width="0.5"></path><path d=" M-93.41,-11.91L-111.3,-29.8 M-108.09,-32.25L-86.41,-10.57 M-83.21,-13.01L-86.5,-16.31 M-28.54,-128.06L-33.87,-133.38 M-30.66,-135.83L-8.98,-114.15 M-5.77,-116.6L-21.63,-132.46" stroke="black" stroke-width="0.5"></path><path d="" stroke="black" stroke-width="0.5"></path><path d="" stroke="black" stroke-width="0.5"></path><path d=" M54.71,10.58L53.19,12.1 M49.85,6.95L53.62,3.18 M48.8,-0.49L45.03,3.28 M41.52,-1.69L43.99,-4.16 M40.65,-9.3L36.88,-5.53 M32.06,-9.2L35.83,-12.97 M32.03,-17.65L28.72,-14.34 M23.91,-18.01L27.68,-21.78 M22.86,-25.46L19.09,-21.69 M14.28,-25.36L19.52,-30.6 M14.71,-34.27L9.46,-29.03 M4.65,-32.7L9.89,-37.94 M6.55,-43.08L2,-38.53" stroke="black" stroke-width="0.5"></path><path d=" M-50.71,-52.85L-56.48,-58.63 M-53.27,-61.08L-31.59,-39.4 M-28.38,-41.84L-43.79,-57.25 M39.62,-81.32L46.58,-74.36 M49.79,-76.8L42.83,-83.76 M46.04,-86.21L53,-79.25 M56.21,-81.7L49.25,-88.66 M52.46,-91.11L59.42,-84.15 M62.63,-86.59L55.67,-93.55 M58.88,-96L65.84,-89.04 M69.05,-91.49L62.09,-98.45" stroke="black" stroke-width="0.5"></path><path d=" M-83.06,42.72L-77.7,48.08 M-74.49,45.63L-83.06,37.06 M4.06,-51.18L8.98,-46.26 M14.23,-46.66L7.27,-53.62 M10.48,-56.07L17.44,-49.11 M20.65,-51.56L13.69,-58.52 M16.9,-60.96L23.86,-54 M27.07,-56.45L20.11,-63.41 M23.32,-65.86L30.28,-58.9 M33.49,-61.35L26.53,-68.31 M83.45,-34.02L82.79,-34.67 M86,-37.12L92.96,-30.16 M96.17,-32.61L89.21,-39.56 M92.42,-42.01L99.38,-35.05 M102.59,-37.5L95.63,-44.46 M98.84,-46.91L105.8,-39.95 M109.01,-42.39L102.05,-49.35 M105.26,-51.8L112.22,-44.84 M115.43,-47.29L113.1,-49.62" stroke="black" stroke-width="0.5"></path><path d="" stroke="black" stroke-width="0.5"></path><path d=" M-82.13,76.11L-82.13,53.9 M-74.13,50.39L-74.13,70.21 M-66.13,66.5L-66.13,46.88 M-58.13,41.31L-58.13,63 M-50.13,58.28L-50.13,37.28 M-42.13,33.77L-42.13,53.39 M-34.13,49.89L-34.13,29.85 M-26.13,24.17L-26.13,46.38 M-18.13,40.28L-18.13,20.66 M-10.13,17.16L-10.13,34.18 M-2.13,28.08L-2.13,11.06" stroke="black" stroke-width="0.5"></path><path d=" M-40.89,-60.07L-45.34,-64.53 M-42.14,-66.97L-20.46,-45.29 M-17.25,-47.74L-33.97,-64.47 M57.91,-63.1L50.95,-70.06 M54.16,-72.51L61.12,-65.55 M64.32,-67.99L57.37,-74.95 M60.57,-77.4L67.53,-70.44 M70.74,-72.89L63.78,-79.85 M66.99,-82.3L73.95,-75.34 M77.16,-77.78L70.2,-84.74 M73.41,-87.19L80.37,-80.23" stroke="black" stroke-width="0.5"></path><path d=" M-65.43,41.32L-83.06,23.68 M-76.4,24.69L-62.22,38.87 M16.52,-40.78L23.48,-33.82 M26.69,-36.27L19.73,-43.23 M22.94,-45.68L29.9,-38.72 M33.11,-41.17L26.15,-48.12 M29.36,-50.57L36.32,-43.61 M39.53,-46.06L32.57,-53.02 M35.78,-55.47L42.74,-48.51 M45.95,-50.95L38.99,-57.91 M102.21,-17.32L95.25,-24.28 M98.46,-26.73L105.42,-19.77 M108.63,-22.21L101.67,-29.17 M104.88,-31.62L111.84,-24.66 M115.05,-27.11L108.09,-34.07 M111.3,-36.51L118.26,-29.55 M121.47,-32L114.51,-38.96 M117.72,-41.41L124.68,-34.45" stroke="black" stroke-width="0.5"></path><path d=" M-101.93,-3.7L-122.27,-24.04 M-118.83,-26.26L-97.38,-4.8 M-94.17,-7.25L-95.01,-8.1 M-37.06,-119.85L-44.83,-127.62 M-41.62,-130.07L-19.94,-108.39 M-16.73,-110.83L-30.15,-124.25" stroke="black" stroke-width="0.5"></path><path d=" M-77.2,14.68L-58.82,33.06 M-52.31,33.91L-73.99,12.23 M-51.9,28.66L-49.1,31.47 M26.61,-28.59L30.64,-24.55 M36.78,-24.07L29.82,-31.03 M33.03,-33.48L39.99,-26.52 M43.2,-28.97L36.24,-35.93 M39.45,-38.37L46.41,-31.42 M49.62,-33.86L42.66,-40.82 M45.87,-43.27L52.83,-36.31 M56.04,-38.76L49.08,-45.72 M108.55,-14.53L115.51,-7.57 M118.72,-10.02L111.76,-16.98 M114.97,-19.42L121.93,-12.46 M125.14,-14.91L118.18,-21.87 M121.39,-24.32L128.35,-17.36 M131.56,-19.8L124.6,-26.76 M127.81,-29.21L134.77,-22.25 M137.98,-24.7L134.77,-27.91" stroke="black" stroke-width="0.5"></path><path d="" stroke="black" stroke-width="0.5"></path><path d="" stroke="black" stroke-width="0.5"></path><path d=" M-31.07,-67.28L-34.21,-70.42 M-31,-72.87L-9.32,-51.19 M-6.11,-53.64L-24.15,-71.68 M62.27,-58.8L69.23,-51.84 M72.44,-54.29L65.48,-61.25 M68.69,-63.7L75.65,-56.74 M78.86,-59.18L71.9,-66.14 M75.11,-68.59L82.07,-61.63 M85.28,-64.08L78.32,-71.04 M81.53,-73.48L88.48,-66.53 M91.69,-68.97L84.73,-75.93" stroke="black" stroke-width="0.5"></path><path d=" M-22.4,-14.13L-16.27,-8 M2.49,5.1L-19.19,-16.58 M-15.98,-19.03L5.7,2.65 M8.91,0.2L-12.77,-21.48 M-9.56,-23.92L12.12,-2.24 M15.33,-4.69L-6.35,-26.37 M-3.14,-28.82L18.54,-7.14 M21.75,-9.58L0.5,-30.83 M24.31,-12.67L24.96,-12.03" stroke="black" stroke-width="0.5"></path><path d="" stroke="black" stroke-width="0.5"></path><path d=" M-136.03,-16.14L-131.22,-11.33 M-115.33,-1.1L-132.82,-18.58 M-124.31,-15.73L-107.93,0.65 M-42.54,-109.32L-55.38,-122.17 M-52.17,-124.61L-30.49,-102.93 M-27.28,-105.38L-35.62,-113.72" stroke="black" stroke-width="0.5"></path><path d="" stroke="black" stroke-width="0.5"></path><path d=" M54.71,75.2L54.28,75.63 M50.94,70.49L54.71,66.72 M49.9,63.05L46.13,66.82 M41.7,62.76L45.08,59.38 M41.74,54.23L37.97,58 M33.16,54.33L36.93,50.56 M32.25,46.75L29.81,49.19 M25,45.52L28.77,41.75 M23.95,38.08L20.19,41.85 M15.37,38.18L20.61,32.93 M15.8,29.26L10.56,34.51 M5.74,30.83L10.98,25.59 M7.64,20.45L2,26.09 M2,17.61L2.83,16.78" stroke="black" stroke-width="0.5"></path><path d=" M-60.07,17.41L-67.56,9.92 M-64.35,7.47L-42.67,29.15 M-39.46,26.71L-53.16,13.01 M46.61,-11.68L39.65,-18.64 M42.86,-21.08L49.82,-14.12 M53.03,-16.57L46.07,-23.53 M49.28,-25.98L56.24,-19.02 M59.45,-21.47L52.49,-28.43 M55.7,-30.87L62.66,-23.91 M65.87,-26.36L58.91,-33.32 M62.12,-35.77L69.08,-28.81" stroke="black" stroke-width="0.5"></path><path d=" M-83.06,113.02L-80.54,115.54 M-77.33,113.1L-83.06,107.37 M-83.06,101.71L-74.12,110.65 M-70.92,108.2L-83.06,96.05 M-83.06,90.4L-67.71,105.76 M-64.5,103.31L-83.06,84.74 M-69.49,92.66L-61.29,100.86 M6.17,9.92L13.13,16.88 M16.34,14.43L9.38,7.47 M12.58,5.03L19.54,11.99 M22.75,9.54L15.79,2.58 M19,0.13L25.96,7.09 M29.17,4.64L22.21,-2.32 M25.42,-4.76L32.38,2.2 M35.59,-0.25L30.42,-5.43" stroke="black" stroke-width="0.5"></path><path d="" stroke="black" stroke-width="0.5"></path><path d=" M-165.37,87.59L-165.37,85.37 M-157.37,79.27L-157.37,93.69 M-149.37,99.79L-149.37,73.17 M-141.37,67.07L-141.37,105.89 M-133.37,111.99L-133.37,60.97 M-125.37,54.87L-125.37,118.09 M-117.37,124.19L-117.37,48.77 M-109.37,42.67L-109.37,130.29 M-101.37,136.39L-101.37,36.57 M-93.37,30.47L-93.37,142.49 M-85.37,148.59L-85.37,123.59 M-77.37,118.16L-77.37,142.96 M-69.37,136.86L-69.37,112.06 M-61.37,105.96L-61.37,130.76 M-53.37,124.66L-53.37,102.45 M-45.37,98.66L-45.37,118.56 M-37.37,112.46L-37.37,92.85 M-29.37,89.34L-29.37,106.36 M-21.37,100.26L-21.37,85.83 M-13.37,79.73L-13.37,94.16 M-5.37,88.06L-5.37,76.23" stroke="black" stroke-width="0.5"></path><path d=" M-54.22,2.34L-33.89,22.67 M-29.33,21.58L-50.79,0.11 M-26.98,18.27L-26.12,19.13 M49.97,-6.61L55.21,-1.37 M58.42,-3.82L53.18,-9.06 M56.39,-11.51L61.63,-6.26 M64.84,-8.71L59.59,-13.95 M62.8,-16.4L68.05,-11.16 M71.26,-13.61L66.01,-18.85 M69.22,-21.3L74.47,-16.05 M77.68,-18.5L72.43,-23.74" stroke="black" stroke-width="0.5"></path><path d=" M-78.3,78.22L-66.97,89.55 M-53.41,97.45L-75.09,75.77 M-60.06,85.15L-50.2,95 M24.4,28.18L17.44,21.22 M20.65,18.77L27.6,25.73 M30.81,23.28L23.85,16.32 M27.06,13.88L34.02,20.84 M37.23,18.39L30.27,11.43 M33.48,8.98L40.44,15.94 M43.65,13.49L36.69,6.53 M41.22,5.41L46.86,11.05" stroke="black" stroke-width="0.5"></path><path d="" stroke="black" stroke-width="0.5"></path><path d="" stroke="black" stroke-width="0.5"></path><path d=" M-68.08,73.02L-63.95,77.15 M-43.19,92.25L-64.87,70.57 M-57.04,72.75L-39.98,89.8 M27.84,33.18L34.8,40.14 M38.01,37.69L31.05,30.73 M34.26,28.28L41.22,35.24 M44.43,32.79L37.47,25.83 M40.68,23.39L47.64,30.35 M50.85,27.9L43.89,20.94 M47.1,18.49L54.06,25.45 M54.71,20.45L50.31,16.04" stroke="black" stroke-width="0.5"></path><path d=" M-29.76,11.12L-43.85,-2.97 M-40.64,-5.42L-18.96,16.26 M-15.75,13.82L-22.84,6.72" stroke="black" stroke-width="0.5"></path><path d=" M-22.8,48.87L-19.22,52.45 M2.09,68.1L-19.59,46.42 M-16.38,43.98L5.3,65.66 M8.51,63.21L-13.17,41.53 M-9.96,39.08L11.72,60.76 M14.93,58.31L-6.75,36.63 M-3.54,34.19L18.14,55.87 M21.35,53.42L-0.33,31.74 M21.36,47.77L24.56,50.97" stroke="black" stroke-width="0.5"></path><path d=" M-13.25,9L-31.81,-9.55 M-28.6,-12L-6.92,9.68 M-3.71,7.23L-6.34,4.6" stroke="black" stroke-width="0.5"></path><path d="" stroke="black" stroke-width="0.5"></path><path d="" stroke="black" stroke-width="0.5"></path><path d=" M-145.55,-11.47L-129.09,5 M-123.36,5.07L-142.34,-13.92 M-122.18,0.59L-120.15,2.62 M-68.12,-115.05L-64.22,-111.16 M-43.23,-95.82L-64.91,-117.5 M-57.31,-115.56L-40.02,-98.27" stroke="black" stroke-width="0.5"></path><path d=" M-45.52,76.5L-55.78,66.24 M-52.57,63.79L-30.89,85.47 M-27.68,83.02L-38.6,72.1 M40.32,43.55L47.28,50.51 M50.49,48.06L43.53,41.1 M46.74,38.65L53.7,45.61 M54.71,40.96L49.95,36.21 M53.16,33.76L54.71,35.31" stroke="black" stroke-width="0.5"></path><path d=" M5.47,344.27L5.47,598.69 M13.47,592.59L13.47,338.17 M21.47,332.07L21.47,586.49 M29.47,580.39L29.47,325.97 M37.47,319.87L37.47,574.29 M45.47,568.19L45.47,313.77 M53.47,307.67L53.47,562.09 M61.47,555.99L61.47,301.57 M69.47,295.47L69.47,549.89 M77.47,543.79L77.47,289.37 M85.47,283.27L85.47,537.69 M93.47,531.59L93.47,277.17 M101.47,271.07L101.47,525.49 M109.47,519.39L109.47,264.97 M117.47,258.87L117.47,513.29 M125.47,507.19L125.47,252.77 M133.47,246.68L133.47,501.09 M141.47,494.99L141.47,240.58 M149.47,234.48L149.47,488.89 M157.47,482.79L157.47,228.38 M165.47,222.28L165.47,476.69 M173.47,470.59L173.47,216.18 M181.47,210.08L181.47,464.49 M189.47,458.39L189.47,203.98 M197.47,197.88L197.47,452.29 M205.47,446.19L205.47,191.78 M213.47,185.68L213.47,440.09 M221.47,433.99L221.47,179.58 M229.47,173.48L229.47,427.89 M237.47,421.79L237.47,167.38 M245.47,161.28L245.47,415.69 M253.47,409.59L253.47,155.18 M261.47,149.08L261.47,403.49 M269.47,397.39L269.47,142.98 M277.47,136.88L277.47,391.29 M285.47,385.19L285.47,130.78 M293.47,124.68L293.47,379.09 M301.47,372.99L301.47,118.58 M309.47,112.48L309.47,366.89 M317.47,360.79L317.47,106.38 M325.47,100.28L325.47,354.69 M333.47,348.59L333.47,94.18 M341.47,88.08L341.47,342.49 M349.47,336.39L349.47,81.98 M357.47,75.88L357.47,330.29 M365.47,324.19L365.47,69.78 M373.47,63.68L373.47,318.09 M381.47,311.99L381.47,57.58 M389.47,51.48L389.47,305.89 M397.47,299.79L397.47,45.38 M405.47,39.28L405.47,293.69 M413.47,287.59L413.47,33.18 M421.47,27.08L421.47,281.49 M429.47,275.39L429.47,20.98 M437.47,14.88L437.47,269.29 M445.47,263.19L445.47,8.78" stroke="black" stroke-width="0.5"></path><path d="" stroke="black" stroke-width="0.5"></path><path d=" M11.95,80.48L4.99,73.52 M8.2,71.07L15.16,78.03 M18.36,75.58L11.41,68.63 M14.61,66.18L21.57,73.14 M24.78,70.69L17.82,63.73 M21.03,61.28L27.99,68.24 M31.2,65.8L24.24,58.84 M27.45,56.39L34.41,63.35" stroke="black" stroke-width="0.5"></path><path d="" stroke="black" stroke-width="0.5"></path><path d=" M-43.48,59.45L-27.08,75.86 M-18.59,78.69L-40.27,57.01 M-20.16,71.46L-15.38,76.24 M54.71,61.48L49.6,56.37 M52.81,53.92L54.71,55.82" stroke="black" stroke-width="0.5"></path><path d="" stroke="black" stroke-width="0.5"></path><path d=" M23.49,91.56L16.53,84.6 M19.74,82.16L26.7,89.12 M29.91,86.67L22.95,79.71 M26.16,77.26L33.12,84.22 M36.33,81.78L29.37,74.82 M32.58,72.37L39.54,79.33 M42.75,76.88L35.79,69.92 M39,67.47L45.96,74.43" stroke="black" stroke-width="0.5"></path><path d="" stroke="black" stroke-width="0.5"></path><path d=" M-18.23,67.91L-32.48,53.66 M-29.27,51.21L-7.59,72.89 M-4.38,70.44L-11.32,63.51" stroke="black" stroke-width="0.5"></path><path d="" stroke="black" stroke-width="0.5"></path><path d=" M146.99,101.61L164.16,84.44 M159.34,80.77L111.27,128.85 M83.78,147.85L154.53,77.1 M149.71,73.43L78.97,144.18 M74.15,140.51L144.9,69.76 M140.09,66.09L69.34,136.84 M64.52,133.17L135.27,62.42 M130.46,58.75L59.71,129.49 M58.71,122.01L125.64,55.08 M120.83,51.41L58.71,113.52 M58.71,105.04L116.01,47.73 M111.2,44.06L58.71,96.55 M58.71,88.07L106.39,40.39 M101.57,36.72L58.71,79.58 M31.65,106.64L30.82,107.47 M26.01,103.8L26.84,102.97 M58.71,71.1L96.76,33.05 M91.94,29.38L58.71,62.61 M22.02,99.3L21.19,100.13 M16.38,96.46L18.68,94.16 M58.71,54.13L87.13,25.71 M82.31,22.04L58.71,45.64 M13.86,90.49L11.57,92.79 M6.75,89.11L9.34,86.52 M58.71,37.16L77.5,18.37 M72.68,14.7L58.71,28.67 M5.71,81.67L2,85.38 M58.71,20.19L67.87,11.03 M63.06,7.35L58.71,11.7" stroke="black" stroke-width="0.5"></path><path d=" M26.85,96.63L32.4,102.19 M37.02,101.14L30.06,94.19 M33.27,91.74L40.23,98.7 M43.44,96.25L36.48,89.29 M39.69,86.84L46.65,93.8 M49.85,91.36L42.9,84.4 M46.1,81.95L53.06,88.91 M54.71,84.9L49.31,79.5" stroke="black" stroke-width="0.5"></path><path d="" stroke="black" stroke-width="0.5"></path><path d=" M-156.79,-5.5L-139.64,11.65 M-133.13,12.51L-153.58,-7.94 M-132.73,7.25L-129.92,10.06 M-79.35,-109.08L-74.77,-104.5 M-54.46,-89.85L-76.14,-111.53 M-67.86,-108.9L-51.25,-92.29" stroke="black" stroke-width="0.5"></path><path d="" stroke="black" stroke-width="0.5"></path><path d=" M38.76,107.44L45.72,114.4 M48.93,111.95L41.97,104.99 M45.18,102.55L52.14,109.5 M54.71,106.42L48.39,100.1 M51.6,97.65L54.71,100.76" stroke="black" stroke-width="0.5"></path><path d="" stroke="black" stroke-width="0.5"></path><path d="" stroke="black" stroke-width="0.5"></path><path d=" M50.67,118.25L54.71,122.28 M54.71,116.62L53.88,115.8" stroke="black" stroke-width="0.5"></path><path d="" stroke="black" stroke-width="0.5"></path><path d=" M-167.04,-0.27L-166.58,0.19 M-142.76,18.36L-159.81,1.3 M-89.61,-103.85L-78.04,-92.29 M-64.72,-84.62L-86.4,-106.3 M-71.13,-96.69L-61.51,-87.07" stroke="black" stroke-width="0.5"></path><path d="" stroke="black" stroke-width="0.5"></path><path d="" stroke="black" stroke-width="0.5"></path><path d="" stroke="black" stroke-width="0.5"></path><path d="" stroke="black" stroke-width="0.5"></path><path d="" stroke="black" stroke-width="0.5"></path><path d=" M-101.92,-97.06L-96.63,-91.76 M-77.03,-77.82L-98.71,-99.5 M-89.71,-96.16L-73.83,-80.27" stroke="black" stroke-width="0.5"></path><path d="" stroke="black" stroke-width="0.5"></path><path d=" M-190.53,12.45L-190.2,12.79 M-186.99,10.34L-187.33,10 M-113.1,-91.13L-106.72,-84.76 M-88.21,-71.9L-109.89,-93.58 M-99.81,-89.16L-85,-74.35" stroke="black" stroke-width="0.5"></path><path d=" M-197.57,18.41L-199.38,16.6 M-125.15,-84.53L-123.35,-82.73 M-100.26,-65.3L-121.94,-86.98 M-116.43,-87.13L-97.05,-67.75" stroke="black" stroke-width="0.5"></path><path d=" M-136.51,-78.06L-136.74,-78.29 M-133.53,-80.74L-112.69,-59.9 M-108.64,-61.51L-129.59,-82.46 M-105.78,-64.3L-105.43,-63.96" stroke="black" stroke-width="0.5"></path><path d=" M-131.13,-59.26L-145.83,-73.96 M-142.62,-76.41L-120.94,-54.73 M-117.73,-57.17L-124.21,-63.66" stroke="black" stroke-width="0.5"></path><path d=" M-158.13,-67.18L-149.56,-58.61 M-133.24,-47.94L-154.92,-69.62 M-142.65,-63.01L-130.03,-50.39" stroke="black" stroke-width="0.5"></path><path d=" M-168,-57.97L-170.42,-60.39 M-167.21,-62.84L-145.53,-41.16 M-142.32,-43.61L-161.09,-62.37" stroke="black" stroke-width="0.5"></path><path d=" M-162.62,-39.17L-179.51,-56.06 M-176.3,-58.5L-154.62,-36.82 M-151.41,-39.27L-155.71,-43.57" stroke="black" stroke-width="0.5"></path><path d=" M-65.97,163.39L-79.64,149.72 M-76.43,147.27L-42.15,181.55 M-18.33,199.71L-73.22,144.83 M-70.01,142.38L0.74,213.13 M3.95,210.68L-66.8,139.93 M-63.59,137.48L7.16,208.23 M10.37,205.78L-60.38,135.04 M-57.17,132.59L13.58,203.34 M16.79,200.89L-53.96,130.14 M-50.75,127.69L20,198.44 M23.21,195.99L-47.54,125.25 M-44.33,122.8L26.42,193.55 M29.63,191.1L-41.12,120.35 M-37.91,117.9L32.84,188.65 M36.04,186.21L-34.7,115.46 M-31.49,113.01L39.25,183.76 M42.46,181.31L-28.28,110.56 M-25.07,108.12L45.67,178.86 M48.88,176.42L-21.86,105.67 M-18.66,103.22L52.09,173.97 M55.3,171.52L-15.45,100.77 M-12.24,98.33L58.51,169.07 M61.72,166.63L-9.03,95.88 M-5.82,93.43L64.93,164.18 M68.14,161.73L-2.61,90.98 M4.47,92.4L71.35,159.29 M74.56,156.84L28.29,110.56 M52.1,128.73L77.77,154.39 M80.98,151.94L75.92,146.89" stroke="black" stroke-width="0.5"></path><path d=" M-191.81,-49.27L-181.06,-38.52 M-166.92,-30.04L-188.6,-51.72 M-174.15,-42.92L-163.71,-32.49" stroke="black" stroke-width="0.5"></path><path d=" M-199.5,-37.88L-204.11,-42.49 M-200.9,-44.94L-179.22,-23.26 M-176.01,-25.71L-192.58,-42.28" stroke="black" stroke-width="0.5"></path><path d=" M-194.12,-19.08L-213.2,-38.16 M-209.99,-40.6L-188.31,-18.92 M-185.1,-21.37L-187.2,-23.48" stroke="black" stroke-width="0.5"></path><path d=" M-226.37,-30.71L-219.04,-23.38 M-201.48,-11.47L-223.16,-33.15 M-212.13,-27.78L-198.27,-13.92" stroke="black" stroke-width="0.5"></path><path d=" M-237.18,-25.06L-226.41,-14.29 M-212.29,-5.83L-233.97,-27.51 M-219.49,-18.69L-209.08,-8.28" stroke="black" stroke-width="0.5"></path><path d=" M-247.25,-19.98L-228.51,-1.24 M-222.36,-0.75L-244.04,-22.43 M-221.4,-5.44L-219.15,-3.19" stroke="black" stroke-width="0.5"></path><path d=" M-267.05,10.07L-277,0.11 M-273.79,-2.33L-253.58,17.88 M-250.37,15.43L-270.58,-4.78 M-267.37,-7.23L-247.16,12.98 M-243.95,10.53L-264.16,-9.67 M-260.95,-12.12L-240.74,8.09 M-237.53,5.64L-257.74,-14.57 M-250.28,-12.76L-234.32,3.19" stroke="black" stroke-width="0.5"></path></g></svg>