<svg viewBox="-498 -401 996 802" width="996" height="802" style="background-color: rgb(170, 170, 170);"><defs></defs><g inkscape:label="Outline" inkscape:groupmode="layer" id="outline_layer"><path d="M 130.43 -189.9 L 138.94 -184.99 L 141.77 -186.63 L 150.28 -181.72 L 153.12 -183.36 L 161.62 -178.44 L 164.46 -180.08 L 172.97 -175.17 L 175.8 -176.81 L 184.31 -171.9 L 187.14 -173.53 L 195.65 -168.62 L 198.48 -170.26 L 206.99 -165.35 L 209.83 -166.98 L 218.33 -162.07 L 221.17 -163.71 L 229.67 -158.8 L 232.51 -160.44 L 241.02 -155.52 L 243.85 -157.16 L 255.2 -150.61 L 255.2 117.87 L 226.84 134.24 L 226.84 196.45 L 0 327.42 L -226.84 196.45 L -226.84 3.28 L -255.2 -13.1 L -255.2 -19.65 L -243.85 -26.19 L -243.85 -29.47 L -232.51 -36.02 L -232.51 -39.29 L -226.84 -42.57 L -226.84 -130.97 L 0 -261.93 L 127.6 -188.27 z" fill="none" stroke="black" id="outline" stroke-width="0.65mm"></path></g><g inkscape:label="Edges" inkscape:groupmode="layer" id="edges_layer"><path d="M -226.84 -22.92 L -229.68 -21.28 M -241.02 -18.01 L -232.51 -22.92 L -226.84 -19.64 L -226.84 -26.19 L -226.84 -29.47 L -226.84 -32.74 L -226.84 -36.02 L -226.84 -39.29 L -226.84 -42.56 L -232.51 -39.29 L -232.51 -36.02 L -243.85 -29.47 L -243.85 -26.19 L -255.2 -19.64 L -255.2 -13.1 L -226.84 3.27 M -255.2 -13.1 L -243.85 -19.65 L -226.84 -9.82 M -226.84 -42.56 L -226.84 -130.97 L 0 -261.93 L 226.84 -130.97 L 226.84 -108.05 L 226.84 -104.77 L 226.84 -101.5 L 226.84 -98.22 L 226.84 -94.95 L 226.84 -91.68 L 226.84 -88.4 L 226.84 -85.13 L 226.84 -81.85 L 226.84 -78.58 L 226.84 -75.31 L 226.84 -72.03 L 226.84 -68.76 L 226.84 -65.48 L 226.84 -62.21 L 226.84 -58.93 L 226.84 127.69 L 226.84 130.97 L 226.84 134.24 L 226.84 196.45 L 0 327.42 L -226.84 196.45 L -226.84 -3.27 L -226.84 -13.1 L -226.84 -16.37 L -226.84 -19.64 M -226.84 196.45 L 0 65.48 L 226.84 196.45 M 0 65.48 L 0 39.29 L 0 36.02 L 0 32.74 L 0 29.47 L 0 26.19 L 0 22.92 L 0 19.65 L 0 16.37 L 0 13.1 L 0 9.82 L 0 6.55 L 0 3.27 L 0 0 L 0 -3.27 L 0 -6.55 L 28.36 -22.92 L 38.99 -16.78 L 38.99 -13.51 L 49.62 -7.37 L 49.62 -4.09 L 60.25 2.05 L 60.25 5.32 L 70.89 11.46 L 70.89 14.73 L 81.52 20.87 L 81.52 24.15 L 92.15 30.29 L 92.15 33.56 L 102.79 39.7 L 102.79 42.97 L 113.42 49.11 L 113.42 52.39 L 124.05 58.53 L 124.05 61.8 L 134.69 67.94 L 134.69 71.21 L 145.32 77.35 L 145.32 80.63 L 155.95 86.76 L 155.95 90.04 L 166.59 96.18 L 166.59 99.45 L 170.13 101.5 M 166.59 99.45 L 138.23 115.82 L 138.23 112.55 L 166.59 96.18 M 138.23 112.55 L 127.6 106.41 L 155.95 90.04 M 127.6 106.41 L 127.6 103.14 L 155.95 86.76 M 127.6 103.14 L 116.97 96.99 L 145.32 80.63 M 116.97 96.99 L 116.96 93.72 L 145.32 77.35 M 116.96 93.72 L 106.34 87.58 L 134.69 71.21 M 106.34 87.58 L 106.33 84.31 L 134.69 67.94 M 106.33 84.31 L 95.7 78.17 L 124.05 61.8 M 95.7 78.17 L 95.7 74.9 L 124.05 58.53 M 95.7 74.9 L 85.07 68.75 L 113.42 52.39 M 85.07 68.75 L 85.06 65.48 L 113.42 49.11 M 85.06 65.48 L 74.44 59.34 L 102.79 42.97 M 74.44 59.34 L 74.43 56.07 L 102.79 39.7 M 74.43 56.07 L 63.8 49.93 L 92.15 33.56 M 63.8 49.93 L 63.8 46.66 L 92.15 30.29 M 63.8 46.66 L 53.17 40.52 L 81.52 24.15 M 53.17 40.52 L 53.17 37.24 L 81.52 20.87 M 53.17 37.24 L 42.54 31.1 L 70.89 14.73 M 42.54 31.1 L 42.53 27.83 L 70.89 11.46 M 42.53 27.83 L 31.9 21.69 L 60.25 5.32 M 31.9 21.69 L 31.9 18.42 L 60.25 2.05 M 31.9 18.42 L 21.27 12.28 L 49.62 -4.09 M 21.27 12.28 L 21.27 9 L 49.62 -7.37 M 21.27 9 L 10.63 2.86 L 38.99 -13.51 M 10.63 2.86 L 10.63 -0.41 L 38.99 -16.78 M 10.63 -0.41 L 0 -6.55 M 138.23 115.82 L 148.86 121.96 L 170.13 109.68 M 148.86 121.96 L 148.87 125.23 L 170.13 112.96 M 148.87 125.23 L 159.5 131.38 L 170.13 125.24 M 159.5 131.38 L 159.5 134.65 L 170.13 140.79 L 170.13 -94.95 L 170.13 -98.22 L 170.13 -101.5 L 170.13 -104.77 L 170.13 -108.05 L 170.13 -111.32 L 170.13 -114.6 L 170.13 -117.87 L 170.13 -121.14 L 170.13 -124.42 L 170.13 -127.69 L 170.13 -130.97 L 170.13 -134.24 L 170.13 -137.51 L 170.13 -140.79 L 162.33 -145.29 M 28.36 -22.92 L 28.35 -26.19 L 0 -9.82 L 0 -13.1 L -28.36 -29.47 L -36.15 -24.97 M 0 -13.1 L -10.63 -6.96 L -10.63 -10.23 L -38.99 -26.6 L -46.79 -22.1 M -10.63 -10.23 L -21.27 -4.09 L -21.27 -7.37 L -49.62 -23.74 L -57.42 -19.24 M -21.27 -7.37 L -31.9 -1.23 L -31.9 -4.5 L -60.25 -20.87 L -68.05 -16.37 M -31.9 -4.5 L -42.53 1.64 L -42.53 -1.64 L -70.89 -18.01 L -78.69 -13.51 M -42.53 -1.64 L -53.17 4.5 L -53.17 1.23 L -81.52 -15.14 L -89.32 -10.64 M -53.17 1.23 L -63.8 7.37 L -63.8 4.09 L -92.15 -12.28 L -99.95 -7.78 M -63.8 4.09 L -74.43 10.23 L -74.43 6.96 L -102.79 -9.41 L -110.58 -4.91 M -74.43 6.96 L -85.06 13.1 L -85.06 9.82 L -113.42 -6.55 L -121.22 -2.05 M -85.06 9.82 L -95.7 15.96 L -95.7 12.69 L -124.05 -3.68 L -131.85 0.82 M -95.7 12.69 L -106.33 18.83 L -106.33 15.55 L -134.69 -0.82 L -142.48 3.68 M -106.33 15.55 L -116.96 21.69 L -116.96 18.42 L -145.32 2.05 L -153.12 6.55 M -116.96 18.42 L -127.6 24.56 L -127.6 21.28 L -155.95 4.91 L -163.75 9.41 M -127.6 21.28 L -138.23 27.42 L -138.23 24.15 L -166.59 7.78 L -174.38 12.28 M -138.23 24.15 L -148.86 30.29 L -148.86 27.01 L -177.22 10.64 L -185.02 15.14 M -148.86 27.01 L -159.5 33.15 L -159.5 29.88 L -187.85 13.51 L -195.65 18.01 M -159.5 29.88 L -170.13 36.02 L -170.13 32.74 L -198.48 16.37 M -170.13 32.74 L -198.48 49.11 L -198.48 -16.37 L -170.13 -32.74 L -170.13 -36.02 L -159.5 -42.15 L -153.12 -45.84 L -124.76 -29.47 L -136.1 -22.92 L -136.1 -26.19 L -161.62 -40.93 M -136.1 -26.19 L -147.45 -19.65 L -147.45 -22.92 L -170.13 -36.02 M -147.45 -22.92 L -158.79 -16.37 L -158.79 -19.65 L -175.8 -29.47 M -158.79 -19.65 L -170.13 -13.1 L -170.13 -16.37 L -184.31 -24.56 M -170.13 -16.37 L -181.47 -9.82 L -181.47 -13.1 L -192.81 -19.64 M -181.47 -13.1 L -192.81 -6.55 L -192.81 -9.82 L -198.48 -6.55 M -192.81 -9.82 L -198.48 -13.1 M -124.76 -29.47 L -124.76 -26.19 L -113.42 -32.74 L -141.77 -49.11 L -150.28 -44.2 M -113.42 -32.74 L -113.42 -29.47 L -102.79 -35.61 M -159.5 -42.15 L -159.5 -45.43 L -148.86 -51.57 L -148.86 -54.84 L -138.23 -60.98 L -138.23 -64.26 L -127.6 -70.39 L -127.6 -73.67 L -116.96 -79.81 L -116.96 -83.08 L -106.33 -89.22 L -106.33 -92.49 L -95.7 -98.63 L -95.7 -101.91 L -85.06 -108.05 L -85.06 -111.32 L -74.43 -117.46 L -74.43 -120.73 L -63.8 -126.87 L -63.8 -130.15 L -53.17 -136.29 L -53.17 -139.56 L -42.53 -145.7 L -42.53 -148.97 L -31.9 -155.11 L -31.9 -158.39 L -21.27 -164.53 L -21.27 -167.8 L -10.63 -173.94 L -10.63 -177.21 L 0 -183.35 L 0 -180.08 L 0 -176.8 L 0 -173.53 L 0 -170.26 L 0 -166.98 L 0 -160.43 L 0 -157.16 L 0 -153.88 L 0 -150.61 L 0 -147.34 L 0 -144.06 L 0 -140.79 L 0 -137.51 L 0 -134.24 L 0 -130.97 L 0 -127.69 L 0 -124.42 L 0 -121.14 L 0 -117.87 L 0 -114.6 L 0 -111.32 L 0 -108.05 L 0 -104.77 L 0 -101.5 L 0 -94.95 L -25.52 -80.22 M 0 -94.95 L 28.35 -78.58 L 0 -62.21 L 0 -65.48 L -28.36 -81.85 L -36.86 -76.94 M 0 -65.48 L -11.34 -58.94 L -11.34 -62.21 L -39.7 -78.58 L -48.2 -73.67 M -11.34 -62.21 L -22.68 -55.66 L -22.68 -58.93 L -51.04 -75.31 L -59.55 -70.39 M -22.68 -58.93 L -34.03 -52.39 L -34.03 -55.66 L -62.38 -72.03 L -70.89 -67.12 M -34.03 -55.66 L -45.37 -49.11 L -45.37 -52.39 L -73.72 -68.76 L -82.23 -63.85 M -45.37 -52.39 L -56.71 -45.84 L -56.71 -49.11 L -85.06 -65.48 L -93.57 -60.57 M -56.71 -49.11 L -68.05 -42.56 L -68.05 -45.84 L -96.41 -62.21 L -104.91 -57.3 M -68.05 -45.84 L -79.39 -39.29 L -79.39 -42.56 L -107.75 -58.93 L -116.26 -54.02 M -79.39 -42.56 L -90.74 -36.02 L -90.74 -39.29 L -119.09 -55.66 L -127.6 -50.75 M -90.74 -39.29 L -102.08 -32.74 L -102.08 -36.02 L -130.43 -52.39 L -138.94 -47.48 M 28.35 -78.58 L 28.36 -75.31 L 39.7 -68.76 L 39.7 -65.48 L 51.04 -58.93 L 51.04 -55.66 L 62.38 -49.11 L 62.38 -45.84 L 73.72 -39.29 L 73.72 -36.02 L 85.07 -29.47 L 85.06 -26.19 L 96.41 -19.64 L 96.41 -16.37 L 107.75 -9.82 L 107.75 -6.55 L 119.09 0 L 119.09 3.27 L 130.43 9.82 L 130.43 13.1 L 102.08 29.46 L 102.08 26.19 L 130.43 9.82 M 102.08 26.19 L 91.67 20.18 L 90.74 19.64 L 119.09 3.27 M 90.74 19.64 L 90.74 16.37 L 119.09 0 M 90.74 16.37 L 81.02 10.76 L 79.4 9.82 L 107.75 -6.55 M 79.4 9.82 L 79.39 6.55 L 107.75 -9.82 M 79.39 6.55 L 70.37 1.34 L 68.06 0 L 96.41 -16.37 M 68.06 0 L 68.05 -3.27 L 96.41 -19.64 M 68.05 -3.27 L 59.72 -8.08 L 56.71 -9.82 L 85.06 -26.19 M 56.71 -9.82 L 56.71 -13.1 L 85.07 -29.47 M 56.71 -13.1 L 49.07 -17.51 L 45.37 -19.65 L 73.72 -36.02 M 45.37 -19.65 L 45.37 -22.92 L 73.72 -39.29 M 45.37 -22.92 L 38.42 -26.93 L 34.03 -29.47 L 62.38 -45.84 M 34.03 -29.47 L 34.03 -32.74 L 62.38 -49.11 M 34.03 -32.74 L 26.78 -36.93 L 22.68 -39.29 L 51.04 -55.66 M 22.68 -39.29 L 22.68 -42.56 L 51.04 -58.93 M 22.68 -42.56 L 11.34 -49.11 L 39.7 -65.48 M 11.34 -49.11 L 11.34 -52.39 L 39.7 -68.76 M 11.34 -52.39 L 0 -58.93 L 28.36 -75.31 M 0 -58.93 L 0 -55.66 L 0 -52.39 L 0 -49.11 L 0 -42.56 L -25.52 -27.83 M 0 -42.56 L 28.35 -26.19 M 130.43 13.1 L 141.77 19.64 L 141.77 22.92 L 153.12 29.47 L 124.76 45.84 L 124.77 49.11 L 134.11 54.51 M 124.77 49.11 L 153.12 32.74 L 153.12 29.47 M 153.12 32.74 L 164.46 39.29 L 164.46 42.56 L 170.13 45.84 M 164.46 42.56 L 136.11 58.93 L 144.76 63.93 L 147.45 65.48 L 170.13 52.39 M 147.45 65.48 L 147.45 68.75 L 170.13 55.66 M 147.45 68.75 L 155.41 73.35 L 158.79 75.31 L 170.13 68.76 M 158.79 75.31 L 158.79 78.58 L 170.13 72.03 M 158.79 78.58 L 166.05 82.77 L 170.13 85.13 M 136.11 58.93 L 136.1 55.66 L 134.69 54.84 M 136.1 55.66 L 164.46 39.29 M 141.77 22.92 L 113.42 39.29 L 123.46 45.09 M 113.42 39.29 L 113.42 36.02 L 141.77 19.64 M 113.42 36.02 L 102.32 29.61 M 0 -183.35 L 0 -186.63 L 2.84 -188.26 M 226.84 134.24 L 255.2 117.87 L 255.2 -150.61 L 243.85 -157.16 L 243.85 -153.89 L 215.5 -137.51 L 215.5 -140.79 L 243.85 -157.16 M 255.2 117.87 L 243.85 111.32 L 226.84 121.14 M 243.85 111.32 L 243.85 108.05 L 226.84 117.87 M 243.85 108.05 L 232.51 101.5 L 226.84 104.77 M 232.51 101.5 L 232.51 98.22 L 226.84 101.5 M 232.51 98.22 L 226.84 94.95 M 0 -261.93 L 0 -189.9 L 10.63 -183.76 L 13.47 -185.4 M 10.63 -183.76 L 10.63 -187.04 L 21.27 -180.9 L 24.1 -182.53 M 21.27 -180.9 L 21.27 -184.17 L 31.9 -178.03 L 31.9 -181.31 M 31.9 -178.03 L 35.22 -179.95 L 32.63 -181.64 M 35.22 -179.95 L 42.53 -175.17 L 45.37 -176.8 M 42.53 -175.17 L 42.53 -178.44 L 53.17 -172.3 L 56 -173.94 M 53.17 -172.3 L 53.17 -175.58 L 63.8 -169.44 L 66.63 -171.07 M 63.8 -169.44 L 63.8 -172.71 L 74.43 -166.57 L 77.27 -168.21 M 74.43 -166.57 L 74.43 -169.85 L 85.06 -163.71 L 87.9 -165.34 M 85.06 -163.71 L 85.06 -166.98 L 95.7 -160.84 L 101.37 -164.12 L 98.53 -165.75 M 95.7 -160.84 L 95.7 -164.12 L 98.53 -165.42 M 98.53 -162.48 L 106.33 -157.98 L 112 -161.25 L 109.21 -162.58 L 106.33 -161.25 L 106.33 -157.98 M 109.17 -159.61 L 116.96 -155.11 L 125.47 -160.02 L 122.63 -161.66 M 116.96 -155.11 L 116.96 -158.39 L 119.8 -160.02 L 122.85 -161.1 M 119.8 -156.75 L 127.6 -152.25 L 136.1 -157.16 L 133.27 -158.8 M 127.6 -152.25 L 127.6 -155.52 L 130.43 -157.16 M 130.43 -153.88 L 138.23 -149.38 L 153.18 -158.02 L 150.57 -159.78 L 138.23 -152.66 L 138.23 -149.38 M 141.07 -151.02 L 148.86 -146.52 L 160.35 -153.15 L 157.74 -154.92 L 148.86 -149.79 L 148.86 -146.52 M 151.7 -148.16 L 159.5 -143.65 L 167.52 -148.29 L 164.91 -150.06 L 159.5 -146.93 L 159.5 -143.65 M 206.99 -142.43 L 232.51 -157.16 L 232.51 -160.44 L 241.02 -155.52 M 232.51 -160.44 L 204.16 -144.06 M 229.68 -158.8 L 221.17 -163.71 L 221.17 -160.43 L 198.49 -147.34 L 198.49 -150.61 L 221.17 -163.71 M 198.49 -150.61 L 198.49 -153.89 L 198.49 -157.16 L 209.83 -163.71 L 209.83 -166.98 L 218.33 -162.07 M 209.83 -166.98 L 195.65 -158.8 M 198.49 -157.16 L 187.85 -163.3 L 179.35 -158.39 M 187.85 -163.3 L 187.85 -160.02 L 182.18 -156.75 M 189.98 -162.07 L 198.49 -166.98 L 198.48 -170.26 L 206.99 -165.34 M 198.48 -170.26 L 184.31 -162.07 M 185.02 -161.66 L 177.22 -166.16 L 171.55 -162.89 M 177.22 -166.16 L 177.22 -162.89 L 174.38 -161.25 M 178.64 -165.34 L 187.14 -170.26 L 187.14 -173.53 L 195.65 -168.62 M 187.14 -173.53 L 172.97 -165.34 M 174.38 -164.53 L 166.59 -169.03 L 166.59 -165.75 M 184.31 -171.89 L 175.8 -176.81 L 161.62 -168.62 M 175.8 -176.81 L 175.8 -173.53 L 166.59 -169.03 L 163.75 -167.39 M 172.97 -175.17 L 164.46 -180.08 L 153.12 -173.53 M 164.46 -180.08 L 164.46 -176.8 L 155.95 -171.89 M 161.62 -178.44 L 153.12 -183.36 L 144.61 -178.44 M 153.12 -183.36 L 153.12 -180.08 L 147.45 -176.8 M 150.28 -181.72 L 141.77 -186.63 L 136.1 -183.35 M 141.77 -186.63 L 141.78 -183.35 L 138.94 -181.72 M 138.94 -184.99 L 130.43 -189.9 L 130.43 -186.63 M 130.43 -189.9 L 127.6 -188.26 M -156.66 -83.3 L -165.57 -77.94 L -155.95 -83.49 M 37.78 -181.43 L 35.46 -182.95 M 133.52 -158.26 L 130.75 -156.98 M 127.84 -161.39 L 125.47 -163.3 L 128.31 -161.66 M 111.56 -164.27 L 114.48 -162.68 M 114.84 -162.89 L 112 -164.53 M 138.84 -167.74 L 130.56 -162.96 L 127.67 -164.57 L 129.57 -164.21 L 138.19 -168.19 M 114.25 -165.82 L 117.16 -164.23 M 117.67 -164.53 L 114.84 -166.16 M 101.37 -167.39 L 104.2 -165.75 M 116.97 -167.39 L 119.87 -165.79 M 120.51 -166.16 L 117.67 -167.8 M 87.54 -168.41 L 90.74 -166.98 L 87.9 -168.62 M 106.46 -167.05 L 104.2 -169.03 L 107.04 -167.39 M 119.71 -168.98 L 122.6 -167.37 M 123.34 -167.8 L 120.51 -169.44 M 90.14 -169.91 L 93.08 -168.34 M 93.57 -168.62 L 90.74 -170.26 M 106.26 -170.21 L 109.16 -168.62 M 109.88 -169.03 L 107.04 -170.67 M 77.27 -171.48 L 80.1 -169.85 M 92.81 -171.45 L 96.41 -170.26 L 93.57 -171.89 M 111.9 -170.19 L 109 -171.79 L 109.88 -172.3 L 112.71 -170.66 M 79.96 -172.4 L 82.35 -171.14 M 82.94 -171.48 L 80.73 -172.76 M 98.44 -171.43 L 96.72 -172.36 L 97.67 -172.8 L 99.24 -171.89 M 66.28 -173.86 L 69.07 -172.48 M 69.47 -172.71 L 66.95 -174.17 M 84.99 -172.67 L 82.92 -173.77 L 83.88 -174.21 L 85.77 -173.12 M 170.13 128.51 L 159.5 134.65 M 135.63 -160.16 L 138.52 -158.55 L 146.01 -162.88 L 143.4 -164.65 L 135.63 -160.16 M 113.58 -172.38 L 114.65 -171.78 L 115.55 -172.3 L 114.6 -172.85 L 113.58 -172.38 " fill="none" stroke="black" stroke-width="0.35mm"></path></g><g inkscape:label="Polygons" inkscape:groupmode="layer" id="polygons_layer" style="display:none"><path d="M -226.84 -39.29 L -226.84 -39.29 L -226.84 -39.29 L -226.84 -36.02 L -226.84 -36.02 L -226.84 -36.02 L -226.84 -32.74 L -226.84 -32.74 L -226.84 -32.74 L -226.84 -29.47 L -226.84 -29.47 L -226.84 -29.47 L -226.84 -26.19 L -226.84 -26.19 L -226.84 -26.19 L -226.84 -22.92 L -229.68 -21.28 L -232.51 -22.92 L -241.02 -18.01 L -243.85 -19.65 L -255.2 -13.1 L -255.2 -19.64 L -243.85 -26.19 L -243.85 -29.47 L -232.51 -36.02 L -232.51 -39.29 L -226.84 -42.56 L -226.84 -42.56 zM 0 -180.08 L 0 -180.08 L 0 -180.08 L 0 -180.08 L 0 -176.8 L 0 -176.8 L 0 -176.8 L 0 -176.8 L 0 -173.53 L 0 -173.53 L 0 -173.53 L 0 -173.53 L 0 -170.26 L 0 -170.26 L 0 -170.26 L 0 -170.26 L 0 -166.98 L 0 -166.98 L 0 -166.98 L 0 -166.98 L 0 -160.43 L 0 -160.43 L 0 -160.43 L 0 -160.43 L 0 -157.16 L 0 -157.16 L 0 -157.16 L 0 -153.89 L 0 -153.89 L 0 -153.88 L 0 -153.88 L 0 -150.61 L 0 -150.61 L 0 -150.61 L 0 -150.61 L 0 -147.34 L 0 -147.34 L 0 -147.34 L 0 -147.34 L 0 -144.06 L 0 -144.06 L 0 -144.06 L 0 -144.06 L 0 -140.79 L 0 -140.79 L 0 -140.79 L 0 -140.79 L 0 -137.51 L 0 -137.51 L 0 -137.51 L 0 -137.51 L 0 -134.24 L 0 -134.24 L 0 -134.24 L 0 -134.24 L 0 -130.97 L 0 -130.97 L 0 -130.97 L 0 -130.97 L 0 -127.69 L 0 -127.69 L 0 -127.69 L 0 -127.69 L 0 -124.42 L 0 -124.42 L 0 -124.42 L 0 -121.14 L 0 -121.14 L 0 -121.14 L 0 -117.87 L 0 -117.87 L 0 -117.87 L 0 -114.6 L 0 -114.6 L 0 -114.6 L 0 -111.32 L 0 -111.32 L 0 -111.32 L 0 -108.05 L 0 -108.05 L 0 -108.05 L 0 -104.77 L 0 -104.77 L 0 -104.77 L 0 -101.5 L 0 -101.5 L 0 -101.5 L 0 -94.95 L 0 -94.95 L 0 -94.95 L 0 -94.95 L -25.52 -80.22 L -28.36 -81.85 L -36.86 -76.94 L -39.7 -78.58 L -48.2 -73.67 L -51.04 -75.31 L -59.55 -70.39 L -62.38 -72.03 L -70.89 -67.12 L -73.72 -68.76 L -82.23 -63.85 L -85.06 -65.48 L -93.57 -60.57 L -96.41 -62.21 L -104.91 -57.3 L -107.75 -58.93 L -116.26 -54.02 L -119.09 -55.66 L -127.6 -50.75 L -130.43 -52.39 L -138.94 -47.48 L -141.77 -49.11 L -150.28 -44.2 L -153.12 -45.84 L -159.5 -42.16 L -159.5 -45.43 L -148.86 -51.57 L -148.86 -51.57 L -148.86 -54.84 L -138.23 -60.98 L -138.23 -64.26 L -127.6 -70.39 L -127.6 -73.67 L -116.96 -79.81 L -116.96 -83.08 L -106.33 -89.22 L -106.33 -92.49 L -95.7 -98.63 L -95.7 -101.91 L -85.06 -108.05 L -85.06 -111.32 L -74.43 -117.46 L -74.43 -120.73 L -63.8 -126.87 L -63.8 -130.15 L -53.17 -136.29 L -53.17 -139.56 L -42.53 -145.7 L -42.53 -148.97 L -31.9 -155.11 L -31.9 -158.39 L -21.27 -164.53 L -21.27 -167.8 L -10.63 -173.94 L -10.63 -177.21 L 0 -183.35 L 0 -183.35 zM 0 -140.79 L 0 -140.79 L 0 -140.79 zM 0 -144.06 L 0 -144.06 L 0 -144.06 zM 0 -147.34 L 0 -147.34 L 0 -147.34 zM 0 -150.61 L 0 -150.61 L 0 -150.61 zM 0 -153.89 L 0 -153.89 L 0 -153.89 zM 0 -157.16 L 0 -157.16 L 0 -157.16 zM 0 -160.43 L 0 -160.43 L 0 -160.43 zM 0 -166.98 L 0 -166.98 L 0 -166.98 zM 0 -170.26 L 0 -170.26 L 0 -170.26 z" fill="none" stroke="black" id="10|0|0||-50" stroke-width="0.35mm"></path><path d="M 255.2 -147.34 L 255.2 -147.34 L 255.2 -147.34 L 255.2 -144.06 L 255.2 -144.06 L 255.2 -144.06 L 255.2 -140.79 L 255.2 -140.79 L 255.2 -140.79 L 255.2 -137.51 L 255.2 -137.51 L 255.2 -137.51 L 255.2 -134.24 L 255.2 -134.24 L 255.2 -134.24 L 255.2 -130.97 L 255.2 -130.97 L 255.2 -130.97 L 255.2 -127.69 L 255.2 -127.69 L 255.2 -127.69 L 255.2 -124.42 L 255.2 -124.42 L 255.2 -124.42 L 255.2 -121.14 L 255.2 -121.14 L 255.2 -121.14 L 255.2 -117.87 L 255.2 -117.87 L 255.2 -117.87 L 255.2 -114.6 L 255.2 -114.6 L 255.2 -114.6 L 255.2 -111.32 L 255.2 -111.32 L 255.2 -111.32 L 255.2 -108.05 L 255.2 -108.05 L 255.2 -108.05 L 255.2 -104.77 L 255.2 -104.77 L 255.2 -104.77 L 255.2 -101.5 L 255.2 -101.5 L 255.2 -101.5 L 255.2 -98.22 L 255.2 -98.22 L 255.2 -98.22 L 255.2 -94.95 L 255.2 -94.95 L 255.2 -94.95 L 255.2 -91.68 L 255.2 -91.68 L 255.2 -91.68 L 255.2 -88.4 L 255.2 -88.4 L 255.19 -88.4 L 255.19 55.66 L 255.2 58.93 L 255.19 58.93 L 255.2 62.21 L 255.19 62.21 L 255.2 65.48 L 255.19 65.48 L 255.2 68.76 L 255.19 68.76 L 255.2 72.03 L 255.19 72.03 L 255.2 75.31 L 255.19 75.31 L 255.2 78.58 L 255.19 78.58 L 255.2 81.85 L 255.19 81.85 L 255.2 85.13 L 255.19 85.13 L 255.2 88.4 L 255.19 88.4 L 255.2 91.68 L 255.19 91.68 L 255.2 94.95 L 255.19 94.95 L 255.2 98.22 L 255.19 98.22 L 255.2 101.5 L 255.19 101.5 L 255.2 104.77 L 255.19 117.87 L 255.19 117.87 L 243.85 111.32 L 243.85 111.32 L 243.85 108.05 L 243.85 108.05 L 243.85 108.05 L 243.85 108.05 L 243.85 108.05 L 232.51 101.5 L 232.51 101.5 L 232.51 98.22 L 232.51 98.22 L 232.51 98.22 L 232.51 98.22 L 232.51 98.22 L 226.84 94.95 L 226.84 -58.93 L 226.84 -58.93 L 226.84 -58.93 L 226.84 -62.21 L 226.84 -62.21 L 226.84 -62.21 L 226.84 -65.48 L 226.84 -65.48 L 226.84 -65.48 L 226.84 -68.76 L 226.84 -68.76 L 226.84 -68.76 L 226.84 -72.03 L 226.84 -72.03 L 226.84 -72.03 L 226.84 -75.31 L 226.84 -75.31 L 226.84 -75.31 L 226.84 -78.58 L 226.84 -78.58 L 226.84 -78.58 L 226.84 -81.85 L 226.84 -81.85 L 226.84 -81.85 L 226.84 -85.13 L 226.84 -85.13 L 226.84 -85.13 L 226.84 -88.4 L 226.84 -88.4 L 226.84 -88.4 L 226.84 -91.68 L 226.84 -91.68 L 226.84 -91.68 L 226.84 -94.95 L 226.84 -94.95 L 226.84 -94.95 L 226.84 -98.22 L 226.84 -98.22 L 226.84 -98.22 L 226.84 -101.5 L 226.84 -101.5 L 226.84 -101.5 L 226.84 -104.77 L 226.84 -104.77 L 226.84 -104.77 L 226.84 -108.05 L 226.84 -108.05 L 226.84 -108.05 L 226.84 -130.97 L 215.5 -137.51 L 243.85 -153.89 L 243.85 -153.89 L 243.85 -157.16 L 255.19 -150.61 zM 10.63 -183.76 L 13.47 -185.4 L 21.27 -180.9 L 21.27 -180.9 L 24.1 -182.53 L 31.9 -178.03 L 31.9 -178.03 L 34.73 -179.67 L 42.53 -175.17 L 42.53 -175.17 L 42.53 -175.17 L 42.53 -175.17 L 45.37 -176.8 L 53.17 -172.3 L 56 -173.94 L 63.8 -169.44 L 66.63 -171.07 L 74.43 -166.57 L 77.27 -168.21 L 85.06 -163.71 L 87.9 -165.34 L 95.7 -160.84 L 98.53 -162.48 L 106.33 -157.98 L 109.17 -159.61 L 116.96 -155.11 L 119.8 -156.75 L 127.6 -152.25 L 130.43 -153.88 L 138.23 -149.38 L 141.07 -151.02 L 148.86 -146.52 L 151.7 -148.16 L 159.5 -143.65 L 162.33 -145.29 L 170.13 -140.79 L 170.13 -137.51 L 170.13 -137.51 L 170.13 -137.51 L 170.13 -134.24 L 170.13 -134.24 L 170.13 -134.24 L 170.13 -130.97 L 170.13 -130.97 L 170.13 -130.97 L 170.13 -127.69 L 170.13 -127.69 L 170.13 -127.69 L 170.13 -124.42 L 170.13 -124.42 L 170.13 -124.42 L 170.13 -121.14 L 170.13 -121.14 L 170.13 -121.14 L 170.13 -117.87 L 170.13 -117.87 L 170.13 -117.87 L 170.13 -114.6 L 170.13 -114.6 L 170.13 -114.6 L 170.13 -111.32 L 170.13 -111.32 L 170.13 -111.32 L 170.13 -108.05 L 170.13 -108.05 L 170.13 -108.05 L 170.13 -104.77 L 170.13 -104.77 L 170.13 -104.77 L 170.13 -101.5 L 170.13 -101.5 L 170.13 -101.5 L 170.13 -98.22 L 170.13 -98.22 L 170.13 -98.22 L 170.13 -94.95 L 170.13 -94.95 L 170.13 -94.95 L 170.13 45.84 L 164.46 42.56 L 164.46 42.56 L 164.46 39.29 L 164.46 39.29 L 164.46 39.29 L 164.46 39.29 L 164.46 39.29 L 153.12 32.74 L 153.12 32.74 L 153.12 29.47 L 153.12 29.47 L 153.12 29.47 L 153.12 29.47 L 153.12 29.47 L 141.78 22.92 L 141.77 22.92 L 141.77 19.65 L 141.78 19.64 L 141.78 19.64 L 141.77 19.64 L 141.77 19.64 L 130.43 13.1 L 130.43 13.09 L 130.43 9.82 L 130.43 9.82 L 130.43 9.82 L 130.43 9.82 L 130.43 9.82 L 119.09 3.27 L 119.09 3.27 L 119.09 0 L 119.09 0 L 119.09 0 L 119.09 0 L 119.09 0 L 107.75 -6.55 L 107.75 -6.55 L 107.75 -9.82 L 107.75 -9.82 L 107.75 -9.82 L 107.75 -9.82 L 107.75 -9.82 L 96.41 -16.37 L 96.41 -16.37 L 96.41 -19.64 L 96.41 -19.64 L 96.41 -19.65 L 96.41 -19.65 L 96.41 -19.65 L 85.07 -26.19 L 85.06 -26.2 L 85.06 -29.47 L 85.07 -29.47 L 85.07 -29.47 L 85.06 -29.47 L 85.06 -29.47 L 73.72 -36.02 L 73.72 -36.02 L 73.72 -39.29 L 73.72 -39.29 L 73.72 -39.29 L 73.72 -39.29 L 73.72 -39.29 L 62.38 -45.84 L 62.38 -45.84 L 62.38 -49.11 L 62.38 -49.11 L 62.38 -49.11 L 62.38 -49.11 L 62.38 -49.11 L 51.04 -55.66 L 51.04 -55.66 L 51.04 -58.93 L 51.04 -58.93 L 51.04 -58.93 L 51.04 -58.93 L 51.04 -58.94 L 39.7 -65.48 L 39.7 -65.48 L 39.7 -68.76 L 39.7 -68.76 L 39.7 -68.76 L 39.7 -68.76 L 39.7 -68.76 L 28.36 -75.31 L 28.35 -75.31 L 28.35 -78.58 L 28.35 -78.58 L 28.35 -78.58 L 28.35 -78.58 L 0 -94.95 L 0 -94.95 L 0 -101.5 L 0 -101.5 L 0 -101.5 L 0 -104.77 L 0 -104.77 L 0 -104.77 L 0 -108.05 L 0 -108.05 L 0 -108.05 L 0 -111.32 L 0 -111.32 L 0 -111.32 L 0 -114.6 L 0 -114.6 L 0 -114.6 L 0 -117.87 L 0 -117.87 L 0 -117.87 L 0 -121.14 L 0 -121.14 L 0 -121.14 L 0 -124.42 L 0 -124.42 L 0 -124.42 L 0 -127.69 L 0 -127.69 L 0 -127.69 L 0 -127.69 L 0 -130.97 L 0 -130.97 L 0 -130.97 L 0 -130.97 L 0 -134.24 L 0 -134.24 L 0 -134.24 L 0 -134.24 L 0 -137.51 L 0 -137.51 L 0 -137.51 L 0 -137.51 L 0 -140.79 L 0 -140.79 L 0 -140.79 L 0 -140.79 L 0 -140.79 L 0 -144.06 L 0 -144.06 L 0 -144.06 L 0 -144.06 L 0 -144.06 L 0 -147.34 L 0 -147.34 L 0 -147.34 L 0 -147.34 L 0 -147.34 L 0 -150.61 L 0 -150.61 L 0 -150.61 L 0 -150.61 L 0 -153.88 L 0 -153.88 L 0 -153.89 L 0 -153.89 L 0 -153.89 L 0 -157.16 L 0 -157.16 L 0 -157.16 L 0 -160.43 L 0 -160.43 L 0 -160.43 L 0 -166.98 L 0 -166.98 L 0 -166.98 L 0 -166.98 L 0 -170.26 L 0 -170.26 L 0 -170.26 L 0 -170.26 L 0 -173.53 L 0 -173.53 L 0 -173.53 L 0 -173.53 L 0 -176.8 L 0 -176.8 L 0 -176.8 L 0 -176.8 L 0 -180.08 L 0 -180.08 L 0 -180.08 L 0 -180.08 L 0 -183.35 L 0 -183.35 L 0 -183.35 L 0 -183.35 L 0 -186.63 L 2.84 -188.26 L 10.63 -183.76 zM 0 -94.95 L 0 -94.95 L 0 -94.95 zM 215.5 -140.79 L 215.5 -140.79 L 215.5 -140.79 L 215.5 -140.79 L 215.5 -137.51 L 206.99 -142.43 L 232.51 -157.16 L 232.51 -157.16 L 232.51 -160.43 L 241.02 -155.52 zM 0 -140.79 L 0 -140.79 L 0 -140.79 zM 0 -144.06 L 0 -144.06 L 0 -144.06 zM 204.16 -144.06 L 198.49 -147.34 L 221.17 -160.43 L 221.17 -160.43 L 221.17 -163.71 L 229.68 -158.8 zM 0 -147.34 L 0 -147.34 L 0 -147.34 zM 0 -150.61 L 0 -150.61 L 0 -150.61 zM 198.49 -150.61 L 198.49 -153.89 L 198.49 -153.89 L 198.49 -153.89 L 198.49 -157.16 L 209.83 -163.71 L 209.83 -163.71 L 209.83 -166.98 L 218.33 -162.07 zM 0 -153.89 L 0 -153.89 L 0 -153.89 zM 243.85 -157.16 L 243.85 -157.16 L 243.85 -157.16 L 243.85 -157.16 L 243.85 -157.16 L 243.85 -157.16 zM 0 -157.16 L 0 -157.16 L 0 -157.16 zM 195.65 -158.8 L 189.98 -162.07 L 198.49 -166.98 L 198.49 -166.98 L 198.49 -170.26 L 206.99 -165.34 zM 232.51 -160.43 L 232.51 -160.43 L 232.51 -160.43 L 232.51 -160.43 L 232.51 -160.43 L 232.51 -160.43 zM 0 -160.43 L 0 -160.43 L 0 -160.43 zM 184.31 -162.07 L 178.64 -165.34 L 187.14 -170.26 L 187.14 -170.26 L 187.14 -173.53 L 195.65 -168.62 zM 221.17 -163.71 L 221.17 -163.71 L 221.17 -163.71 L 221.17 -163.71 L 221.17 -163.71 L 221.17 -163.71 zM 172.97 -165.34 L 167.29 -168.62 L 175.8 -173.53 L 175.8 -173.53 L 175.8 -176.8 L 184.31 -171.89 zM 209.83 -166.98 L 209.83 -166.98 L 209.83 -166.98 L 209.83 -166.98 L 209.83 -166.98 L 209.83 -166.98 zM 0 -166.98 L 0 -166.98 L 0 -166.98 zM 164.46 -180.08 L 172.97 -175.17 L 161.62 -168.62 L 155.95 -171.89 L 164.46 -176.8 L 164.46 -176.8 L 164.46 -180.08 L 164.46 -180.08 L 164.46 -180.08 L 164.46 -180.08 L 164.46 -180.08 L 164.46 -180.08 zM 198.49 -170.26 L 198.48 -170.26 L 198.48 -170.26 L 198.48 -170.26 L 198.48 -170.26 L 198.49 -170.26 zM 0 -170.26 L 0 -170.26 L 0 -170.26 zM 187.14 -173.53 L 187.14 -173.53 L 187.14 -173.53 L 187.14 -173.53 L 187.14 -173.53 L 187.14 -173.53 zM 153.12 -183.35 L 161.62 -178.44 L 153.12 -173.53 L 147.45 -176.8 L 153.12 -180.08 L 153.12 -180.08 L 153.12 -183.35 L 153.12 -183.35 L 153.12 -183.35 L 153.12 -183.35 L 153.12 -183.35 zM 175.8 -176.8 L 175.8 -176.8 L 175.8 -176.8 L 175.8 -176.8 L 175.8 -176.8 L 175.8 -176.8 zM 141.78 -186.63 L 150.28 -181.72 L 144.61 -178.44 L 138.94 -181.72 L 141.78 -183.35 L 141.78 -183.35 L 141.78 -186.63 L 141.77 -186.63 L 141.77 -186.63 L 141.77 -186.63 L 141.78 -186.63 zM 130.43 -189.9 L 138.94 -184.99 L 136.1 -183.35 L 130.43 -186.63 L 130.43 -189.9 L 130.43 -189.9 L 130.43 -189.9 L 130.43 -189.9 L 130.43 -189.9 zM 119.09 -193.18 L 119.09 -193.18 L 119.09 -193.18 z" fill="none" stroke="black" id="0|0|10||-50" stroke-width="0.35mm"></path><path d="M -226.84 32.74 L -226.84 32.74 L -226.84 32.74 zM -226.84 26.19 L -226.84 26.19 L -226.84 26.19 zM -226.84 22.92 L -226.84 22.92 L -226.84 22.92 zM -226.84 19.64 L -226.84 19.64 L -226.84 19.64 zM 28.36 -75.31 L 28.35 -75.31 L 0 -58.94 L 0 -58.94 L 0 -58.93 L 0 -58.93 L 0 -58.93 L 0 -58.93 L 0 -58.93 L 0 -58.93 L 0 -55.66 L 0 -55.66 L 0 -55.66 L 0 -52.39 L 0 -52.39 L 0 -52.39 L 0 -49.11 L 0 -49.11 L 0 -49.11 L 0 -42.57 L 0 -42.56 L 0 -42.56 L 0 -42.56 L -25.52 -27.83 L -28.36 -29.47 L -36.15 -24.97 L -38.99 -26.6 L -46.79 -22.1 L -49.62 -23.74 L -57.42 -19.24 L -60.25 -20.87 L -68.05 -16.37 L -70.89 -18.01 L -78.69 -13.51 L -81.52 -15.14 L -89.32 -10.64 L -92.15 -12.28 L -99.95 -7.78 L -102.79 -9.41 L -110.58 -4.91 L -113.42 -6.55 L -121.22 -2.05 L -124.05 -3.68 L -131.85 0.82 L -134.69 -0.82 L -142.48 3.68 L -145.32 2.05 L -153.12 6.55 L -155.95 4.91 L -163.75 9.41 L -166.59 7.78 L -174.38 12.28 L -177.22 10.64 L -185.02 15.14 L -187.85 13.51 L -195.65 18.01 L -198.48 16.37 L -198.48 -6.55 L -192.81 -9.82 L -192.81 -9.82 L -192.81 -6.55 L -181.47 -13.1 L -181.47 -13.1 L -181.47 -9.82 L -170.13 -16.37 L -170.13 -16.37 L -170.13 -13.1 L -158.99 -19.53 L -158.99 -19.53 L -158.99 -19.53 L -158.79 -19.65 L -158.79 -19.65 L -158.79 -16.37 L -147.45 -22.92 L -147.45 -22.92 L -147.45 -22.92 L -147.45 -19.65 L -136.1 -26.19 L -136.1 -26.19 L -136.1 -26.19 L -136.1 -22.92 L -124.76 -29.47 L -124.76 -29.47 L -124.76 -29.47 L -124.76 -26.19 L -113.42 -32.74 L -113.42 -32.74 L -113.42 -29.47 L -102.79 -35.61 L -102.79 -35.61 L -102.79 -35.61 L -102.08 -36.02 L -102.08 -36.02 L -102.08 -32.74 L -90.74 -39.29 L -90.74 -39.29 L -90.74 -36.02 L -79.39 -42.56 L -79.39 -42.56 L -79.39 -39.29 L -68.05 -45.84 L -68.05 -45.84 L -68.05 -42.56 L -56.71 -49.11 L -56.71 -49.11 L -56.71 -45.84 L -45.37 -52.39 L -45.37 -52.39 L -45.37 -49.11 L -34.03 -55.66 L -34.03 -55.66 L -34.03 -52.39 L -22.68 -58.93 L -22.68 -58.93 L -22.68 -55.66 L -11.34 -62.21 L -11.34 -62.21 L -11.34 -58.94 L 0 -65.48 L 0 -65.48 L 0 -62.21 L 27.71 -78.21 L 27.71 -78.21 L 28.35 -78.58 L 28.35 -75.31 zM -226.84 16.37 L -226.84 16.37 L -226.84 16.37 zM -226.84 13.1 L -226.84 13.1 L -226.84 13.1 zM -226.84 9.82 L -226.84 9.82 L -226.84 9.82 zM -226.84 6.55 L -226.84 6.55 zM -226.84 3.27 zM -226.84 3.27 zM -156.66 -83.3 L -155.95 -83.49 L -165.57 -77.94 zM -166.59 -80.63 L -166.59 -80.63 L -166.59 -80.63 zM -155.95 -86.77 L -155.95 -87.03 L -155.63 -87.23 L -155.6 -86.97 zM -155.95 -90.04 L -155.95 -90.04 L -155.95 -90.04 z" fill="none" stroke="black" id="10|0|0||-40" stroke-width="0.35mm"></path><path d="M -63.8 7.37 L -63.8 4.09 L -89.32 -10.64 L -81.52 -15.14 L -53.17 1.23 zM 28.35 -78.58 L 28.35 -78.58 L 27.71 -78.21 L 27.71 -78.21 L 0 -62.21 L 0 -65.48 L -25.52 -80.22 L 0 -94.95 L 28.35 -78.58 z" fill="none" stroke="black" id="0|10|0||-21" stroke-width="0.35mm"></path><path d="M 39.7 -65.48 L 39.7 -65.48 L 11.35 -49.11 L 11.34 -49.11 L 11.34 -49.11 L 11.34 -52.39 L 11.34 -52.39 L 39.08 -68.4 L 39.08 -68.4 L 39.7 -68.76 L 39.7 -65.48 z" fill="none" stroke="black" id="10|0|0||-36" stroke-width="0.35mm"></path><path d="M -53.17 4.5 L -53.17 1.23 L -53.17 1.23 L -53.17 1.23 L -78.69 -13.51 L -70.89 -18.01 L -42.53 -1.64 zM 39.7 -68.76 L 39.7 -68.76 L 39.7 -68.76 L 39.08 -68.4 L 39.08 -68.4 L 11.34 -52.39 L 0 -58.93 L 0 -58.93 L 0 -58.94 L 0 -58.94 L 28.36 -75.31 L 39.7 -68.76 z" fill="none" stroke="black" id="0|10|0||-22" stroke-width="0.35mm"></path><path d="M 51.04 -55.66 L 51.04 -55.66 L 22.69 -39.29 L 22.68 -39.29 L 22.68 -39.29 L 22.68 -42.56 L 22.68 -42.56 L 50.45 -58.59 L 50.45 -58.59 L 51.04 -58.93 L 51.04 -55.66 z" fill="none" stroke="black" id="10|0|0||-32" stroke-width="0.35mm"></path><path d="M -42.53 1.64 L -42.53 -1.64 L -42.53 -1.64 L -42.53 -1.64 L -42.53 -1.64 L -68.05 -16.37 L -60.25 -20.87 L -31.9 -4.5 zM 51.04 -58.93 L 51.04 -58.93 L 51.04 -58.93 L 50.45 -58.59 L 50.45 -58.59 L 22.68 -42.56 L 11.34 -49.11 L 11.34 -49.11 L 11.35 -49.11 L 39.7 -65.48 L 51.04 -58.94 z" fill="none" stroke="black" id="0|10|0||-23" stroke-width="0.35mm"></path><path d="M -63.8 4.09 L -74.43 10.23 L -74.43 6.96 L -99.95 -7.78 L -92.15 -12.28 L -63.8 4.09 zM -11.34 -58.94 L -11.34 -62.21 L -36.86 -76.94 L -28.36 -81.85 L 0 -65.48 z" fill="none" stroke="black" id="0|10|0||-20" stroke-width="0.35mm"></path><path d="M 11.34 -49.11 L 11.34 -49.11 L 22.68 -42.56 L 22.68 -39.29 L 22.68 -39.29 L 22.68 -39.29 L 26.78 -36.93 L 26.78 -36.93 L 26.78 -36.93 L 26.78 -36.93 L 34.03 -32.74 L 34.03 -29.47 L 38.42 -26.93 L 38.42 -26.93 L 38.42 -26.93 L 45.37 -22.92 L 45.37 -19.65 L 49.07 -17.51 L 49.07 -17.51 L 49.07 -17.51 L 56.71 -13.1 L 56.71 -9.82 L 59.72 -8.08 L 59.72 -8.08 L 59.72 -8.08 L 68.05 -3.27 L 68.05 0 L 68.05 0 L 70.37 1.34 L 70.37 1.34 L 70.37 1.34 L 70.37 1.34 L 79.39 6.55 L 79.39 9.82 L 79.39 9.82 L 81.02 10.76 L 81.02 10.76 L 81.02 10.76 L 81.02 10.76 L 90.74 16.37 L 90.74 19.65 L 90.74 19.65 L 91.67 20.18 L 91.67 20.18 L 91.67 20.18 L 91.67 20.18 L 102.08 26.19 L 102.08 29.47 L 102.08 29.47 L 102.32 29.61 L 102.32 29.61 L 102.32 29.61 L 102.32 29.61 L 112.81 35.66 L 112.81 35.66 L 112.81 35.66 L 113.42 36.02 L 113.42 39.29 L 123.46 45.09 L 123.46 45.09 L 123.46 45.09 L 124.05 45.43 L 124.05 45.43 L 124.05 45.43 L 124.76 45.84 L 124.76 49.11 L 134.11 54.51 L 134.11 54.51 L 134.11 54.51 L 134.69 54.84 L 134.69 54.84 L 134.69 54.84 L 136.1 55.66 L 136.1 58.93 L 144.76 63.93 L 144.76 63.93 L 144.76 63.93 L 145.32 64.26 L 145.32 64.25 L 147.45 65.48 L 147.45 68.76 L 155.41 73.35 L 155.41 73.35 L 155.41 73.35 L 158.79 75.31 L 158.79 78.58 L 166.05 82.77 L 166.05 82.77 L 166.05 82.77 L 170.13 85.13 L 170.13 98.22 L 170.13 98.22 L 170.13 101.5 L 166.59 99.45 L 166.59 99.45 L 166.59 96.18 L 166.59 96.18 L 166.59 96.18 L 166.59 96.18 L 166.59 96.18 L 155.95 90.04 L 155.95 90.04 L 155.95 86.77 L 155.95 86.77 L 155.95 86.76 L 155.95 86.76 L 155.95 86.76 L 145.32 80.63 L 145.32 80.62 L 145.32 77.35 L 145.32 77.35 L 145.32 77.35 L 145.32 77.35 L 145.32 77.35 L 134.69 71.21 L 134.69 71.21 L 134.69 67.94 L 134.69 67.94 L 134.69 67.94 L 134.69 67.94 L 134.69 67.94 L 124.05 61.8 L 124.05 61.8 L 124.05 58.53 L 124.05 58.53 L 124.05 58.53 L 124.05 58.53 L 124.05 58.53 L 113.42 52.39 L 113.42 52.38 L 113.42 49.11 L 113.42 49.11 L 113.42 49.11 L 113.42 49.11 L 113.42 49.11 L 102.79 42.97 L 102.79 42.97 L 102.79 39.7 L 102.79 39.7 L 102.79 39.7 L 102.79 39.7 L 102.79 39.7 L 92.15 33.56 L 92.15 33.56 L 92.15 30.29 L 92.15 30.29 L 92.15 30.29 L 92.15 30.29 L 92.15 30.29 L 81.52 24.15 L 81.52 24.14 L 81.52 20.87 L 81.52 20.87 L 81.52 20.87 L 81.52 20.87 L 81.52 20.87 L 70.89 14.73 L 70.89 14.73 L 70.89 11.46 L 70.89 11.46 L 70.89 11.46 L 70.89 11.46 L 70.89 11.46 L 60.25 5.32 L 60.25 5.32 L 60.25 2.05 L 60.25 2.05 L 60.25 2.05 L 60.25 2.05 L 60.25 2.05 L 49.62 -4.09 L 49.62 -4.1 L 49.62 -7.37 L 49.62 -7.37 L 49.62 -7.37 L 49.62 -7.37 L 49.62 -7.37 L 38.99 -13.51 L 38.99 -13.51 L 38.99 -16.78 L 38.99 -16.78 L 38.99 -16.78 L 38.99 -16.78 L 38.99 -16.78 L 28.36 -22.92 L 28.35 -22.92 L 28.35 -26.19 L 28.35 -26.19 L 0 -42.56 L 0 -42.57 L 0 -49.11 L 0 -49.11 L 0 -49.11 L 0 -52.39 L 0 -52.39 L 0 -52.39 L 0 -55.66 L 0 -55.66 L 0 -55.66 L 0 -58.93 L 0 -58.93 L 0 -58.93 L 0 -58.93 L 11.34 -52.39 zM 0 -42.56 L 0 -42.56 L 0 -42.56 zM 198.49 -153.89 L 198.49 -153.89 L 198.49 -153.89 L 198.49 -150.61 L 198.49 -150.61 L 198.49 -150.61 L 198.49 -147.34 L 182.18 -156.75 L 187.85 -160.02 L 187.85 -160.02 L 187.85 -163.3 L 198.49 -157.16 zM 179.35 -158.39 L 174.38 -161.25 L 177.22 -162.89 L 177.22 -162.89 L 177.22 -166.16 L 185.02 -161.66 zM 171.55 -162.89 L 166.59 -165.75 L 166.59 -169.03 L 174.38 -164.53 zM 187.85 -163.3 L 187.85 -163.3 L 187.85 -163.3 L 187.85 -163.3 L 187.85 -163.3 L 187.85 -163.3 zM 177.22 -166.16 L 177.22 -166.16 L 177.22 -166.16 L 177.22 -166.16 L 177.22 -166.16 L 177.22 -166.16 zM 166.59 -169.03 L 166.59 -169.03 L 166.59 -169.03 L 166.59 -169.03 L 166.59 -169.03 L 166.59 -169.03 zM 155.95 -171.89 L 155.95 -171.89 L 155.95 -171.89 z" fill="none" stroke="black" id="0|0|10||-40" stroke-width="0.35mm"></path><path d="M -31.9 -1.23 L -31.9 -4.5 L -31.9 -4.5 L -31.9 -4.5 L -31.9 -4.5 L -57.42 -19.24 L -49.62 -23.74 L -21.27 -7.37 zM 62.38 -49.11 L 62.38 -49.11 L 62.38 -49.11 L 61.81 -48.78 L 61.81 -48.78 L 61.81 -48.79 L 34.03 -32.74 L 26.78 -36.93 L 26.78 -36.93 L 26.78 -36.93 L 26.78 -36.93 L 22.68 -39.29 L 22.68 -39.29 L 22.68 -39.29 L 22.69 -39.29 L 51.04 -55.66 L 62.38 -49.11 z" fill="none" stroke="black" id="0|10|0||-24" stroke-width="0.35mm"></path><path d="M 62.38 -45.84 L 62.38 -45.84 L 34.03 -29.47 L 34.03 -29.47 L 34.03 -29.47 L 34.03 -32.74 L 34.03 -32.74 L 61.81 -48.79 L 61.81 -48.78 L 62.38 -49.11 L 62.38 -45.84 z" fill="none" stroke="black" id="10|0|0||-28" stroke-width="0.35mm"></path><path d="M 73.72 -36.02 L 73.72 -36.02 L 45.37 -19.65 L 45.37 -19.65 L 45.37 -19.65 L 45.37 -22.92 L 45.37 -22.92 L 73.18 -38.98 L 73.18 -38.97 L 73.72 -39.29 L 73.72 -36.02 z" fill="none" stroke="black" id="10|0|0||-24" stroke-width="0.35mm"></path><path d="M -85.06 13.1 L -85.06 9.82 L -110.58 -4.91 L -102.79 -9.41 L -74.43 6.96 zM -22.68 -55.66 L -22.68 -58.93 L -48.2 -73.67 L -39.7 -78.58 L -11.34 -62.21 z" fill="none" stroke="black" id="0|10|0||-19" stroke-width="0.35mm"></path><path d="M -21.27 -4.09 L -21.27 -7.37 L -21.27 -7.37 L -21.27 -7.37 L -21.27 -7.37 L -46.79 -22.1 L -38.99 -26.6 L -10.63 -10.23 zM 73.72 -39.29 L 73.72 -39.29 L 73.72 -39.29 L 73.18 -38.97 L 73.18 -38.98 L 45.37 -22.92 L 38.42 -26.93 L 38.42 -26.93 L 38.42 -26.93 L 34.03 -29.47 L 34.03 -29.47 L 34.03 -29.47 L 34.03 -29.47 L 62.38 -45.84 L 73.72 -39.29 z" fill="none" stroke="black" id="0|10|0||-25" stroke-width="0.35mm"></path><path d="M -226.84 196.45 L -226.84 196.45 L -226.84 196.45 zM 0 -261.93 L 0 -261.93 L 0 -189.9 L 2.84 -188.26 L 0 -186.63 L 0 -183.35 L 0 -183.35 L -10.63 -177.21 L -10.63 -173.94 L -21.27 -167.8 L -21.27 -164.53 L -31.9 -158.39 L -31.9 -155.11 L -42.53 -148.97 L -42.53 -145.7 L -53.17 -139.56 L -53.17 -136.29 L -63.8 -130.15 L -63.8 -126.87 L -74.43 -120.73 L -74.43 -117.46 L -85.06 -111.32 L -85.06 -108.05 L -95.7 -101.91 L -95.7 -98.63 L -106.33 -92.49 L -106.33 -89.22 L -116.96 -83.08 L -116.96 -79.81 L -127.6 -73.67 L -127.6 -70.39 L -138.23 -64.26 L -138.23 -60.98 L -148.86 -54.84 L -148.86 -51.57 L -148.86 -51.57 L -159.5 -45.43 L -159.5 -42.15 L -159.5 -42.15 L -170.13 -36.02 L -170.13 -32.74 L -170.13 -32.74 L -198.48 -16.37 L -198.48 49.11 L -170.13 32.74 L -170.13 32.74 L -170.13 36.02 L -159.5 29.88 L -159.5 29.88 L -159.5 33.15 L -148.86 27.01 L -148.86 27.01 L -148.86 30.29 L -138.23 24.15 L -138.23 24.15 L -138.23 27.42 L -127.6 21.28 L -127.6 21.28 L -127.6 24.56 L -116.96 18.42 L -116.96 18.42 L -116.96 21.69 L -106.33 15.55 L -106.33 15.55 L -106.33 18.83 L -95.7 12.69 L -95.7 12.69 L -95.7 15.96 L -85.06 9.82 L -85.06 9.82 L -85.06 13.1 L -74.43 6.96 L -74.43 6.96 L -74.43 10.23 L -63.8 4.09 L -63.8 4.09 L -63.8 4.09 L -63.8 4.09 L -63.8 7.37 L -53.17 1.23 L -53.17 1.23 L -53.17 1.23 L -53.17 4.5 L -42.53 -1.64 L -42.53 -1.64 L -42.53 -1.64 L -42.53 1.64 L -31.9 -4.5 L -31.9 -4.5 L -31.9 -4.5 L -31.9 -1.23 L -21.27 -7.37 L -21.27 -7.37 L -21.27 -7.37 L -21.27 -4.09 L -10.63 -10.23 L -10.63 -10.23 L -10.63 -10.23 L -10.63 -6.96 L 0 -13.1 L 0 -13.1 L 0 -9.82 L 27.85 -25.9 L 27.85 -25.9 L 28.35 -26.19 L 28.35 -22.92 L 28.36 -22.92 L 28.35 -22.92 L 0 -6.55 L 0 -6.55 L 0 -6.55 L 0 -6.55 L 0 -6.55 L 0 -6.55 L 0 -6.55 L 0 -3.27 L 0 -3.27 L 0 -3.27 L 0 0 L 0 0 L 0 0 L 0 3.27 L 0 3.27 L 0 3.27 L 0 6.55 L 0 6.55 L 0 6.55 L 0 9.82 L 0 9.82 L 0 9.82 L 0 13.1 L 0 13.1 L 0 13.1 L 0 16.37 L 0 16.37 L 0 16.37 L 0 19.64 L 0 19.64 L 0 19.65 L 0 22.92 L 0 22.92 L 0 22.92 L 0 26.19 L 0 26.19 L 0 26.19 L 0 29.47 L 0 29.47 L 0 29.47 L 0 32.74 L 0 32.74 L 0 32.74 L 0 36.02 L 0 36.02 L 0 36.02 L 0 39.29 L 0 39.29 L 0 39.29 L 0 65.48 L 0 65.48 L 0 65.48 L -226.84 196.45 zM -226.84 196.45 L -226.84 196.45 L -226.84 196.45 zM -226.84 117.87 L -226.84 117.87 L -226.84 114.6 L -226.84 114.6 L -226.84 114.6 L -226.84 111.32 L -226.84 111.32 L -226.84 111.32 L -226.84 108.05 L -226.84 108.05 L -226.84 108.05 L -226.84 104.77 L -226.84 104.77 L -226.84 104.77 L -226.84 101.5 L -226.84 101.5 L -226.84 101.5 L -226.84 98.22 L -226.84 98.22 L -226.84 98.22 L -226.84 94.95 L -226.84 94.95 L -226.84 94.95 L -226.84 91.68 L -226.84 91.68 L -226.84 91.68 L -226.84 88.4 L -226.84 88.4 L -226.84 88.4 L -226.84 85.13 L -226.84 85.13 L -226.84 85.13 L -226.84 81.85 L -226.84 81.85 L -226.84 81.85 L -226.84 78.58 L -226.84 78.58 L -226.84 78.58 L -226.84 75.31 L -226.84 75.31 L -226.84 75.31 L -226.84 72.03 L -226.84 72.03 L -226.84 72.03 L -226.84 68.76 L -226.84 68.76 L -226.84 68.76 L -226.84 65.48 L -226.84 65.48 L -226.84 65.48 L -226.84 -3.27 L -226.84 -3.27 L -226.84 -3.27 L -226.84 -6.55 L -226.84 -6.55 L -226.84 -6.55 L -226.84 -9.82 L -226.84 -9.82 L -226.84 -9.82 L -226.84 -13.1 L -226.84 -13.1 L -226.84 -13.1 L -226.84 -16.37 L -226.84 -16.37 L -226.84 -16.37 L -226.84 -19.64 L -226.84 -19.64 L -226.84 -19.65 L -226.84 -22.92 L -226.84 -22.92 L -226.84 -22.92 L -226.84 -26.19 L -226.84 -26.19 L -226.84 -26.19 L -226.84 -29.47 L -226.84 -29.47 L -226.84 -29.47 L -226.84 -32.74 L -226.84 -32.74 L -226.84 -32.74 L -226.84 -36.02 L -226.84 -36.02 L -226.84 -36.02 L -226.84 -39.29 L -226.84 -39.29 L -226.84 -39.29 L -226.84 -42.56 L -226.84 -42.56 L -226.84 -42.56 L -226.84 -45.84 L -226.84 -45.84 L -226.84 -45.84 L -226.84 -49.11 L -226.84 -49.11 L -226.84 -49.11 L -226.84 -52.39 L -226.84 -52.39 L -226.84 -52.39 L -226.84 -55.66 L -226.84 -55.66 L -226.84 -55.66 L -226.84 -130.97 L 0 -261.93 L 0 -261.93 zM -165.57 -77.94 L -155.95 -83.49 L -156.66 -83.3 zM -166.59 -80.63 L -166.59 -80.63 L -166.59 -80.63 zM -155.95 -86.77 L -155.6 -86.97 L -155.63 -87.23 L -155.95 -87.03 zM -155.95 -90.04 L -155.95 -90.04 L -155.95 -90.04 z" fill="none" stroke="black" id="10|0|0||-30" stroke-width="0.35mm"></path><path d="M 96.41 -19.65 L 96.41 -19.65 L 96.41 -19.64 L 95.9 -19.35 L 95.9 -19.35 L 68.05 -3.27 L 59.72 -8.08 L 59.72 -8.08 L 59.72 -8.08 L 56.71 -9.82 L 56.71 -9.82 L 56.71 -9.82 L 56.71 -9.82 L 85.06 -26.19 L 96.41 -19.65 zM 28.35 -26.19 L 27.85 -25.9 L 27.85 -25.9 L 0 -9.82 L 0 -13.1 L -25.52 -27.83 L 0 -42.56 L 28.35 -26.19 z" fill="none" stroke="black" id="0|10|0||-27" stroke-width="0.35mm"></path><path d="M -95.7 15.96 L -95.7 12.69 L -121.22 -2.05 L -113.42 -6.55 L -85.06 9.82 zM -22.68 -58.93 L -22.68 -58.93 L -22.68 -58.93 L -34.03 -52.39 L -34.03 -55.66 L -59.55 -70.39 L -51.04 -75.31 L -22.68 -58.93 z" fill="none" stroke="black" id="0|10|0||-18" stroke-width="0.35mm"></path><path d="M 85.07 -26.19 L 85.06 -26.19 L 56.71 -9.83 L 56.71 -9.82 L 56.71 -9.82 L 56.71 -13.1 L 56.71 -13.1 L 84.54 -29.16 L 84.54 -29.16 L 85.06 -29.47 L 85.06 -26.2 z" fill="none" stroke="black" id="10|0|0||-20" stroke-width="0.35mm"></path><path d="M -10.63 -6.96 L -10.63 -10.23 L -10.63 -10.23 L -10.63 -10.23 L -10.63 -10.23 L -36.15 -24.97 L -28.36 -29.47 L 0 -13.1 zM 85.06 -29.47 L 85.07 -29.47 L 85.07 -29.47 L 84.54 -29.16 L 84.54 -29.16 L 56.71 -13.1 L 49.07 -17.51 L 49.07 -17.51 L 49.07 -17.51 L 45.37 -19.65 L 45.37 -19.65 L 45.37 -19.65 L 45.37 -19.65 L 73.72 -36.02 L 85.06 -29.47 z" fill="none" stroke="black" id="0|10|0||-26" stroke-width="0.35mm"></path><path d="M 38.99 -13.51 L 38.99 -13.51 L 10.64 2.86 L 10.63 2.86 L 10.63 2.86 L 10.63 -0.41 L 10.63 -0.41 L 38.5 -16.5 L 38.5 -16.5 L 38.99 -16.78 L 38.99 -13.51 zM 13.47 -185.4 L 10.63 -183.76 L 10.63 -183.76 L 10.63 -187.04 L 10.63 -187.04 L 10.63 -187.04 z" fill="none" stroke="black" id="10|0|0||-26" stroke-width="0.35mm"></path><path d="M 107.75 -9.82 L 107.75 -9.82 L 107.75 -9.82 L 107.26 -9.54 L 107.26 -9.54 L 79.39 6.55 L 70.37 1.34 L 70.37 1.34 L 70.37 1.34 L 70.37 1.34 L 68.05 0 L 68.05 0 L 68.05 0 L 68.05 0 L 68.06 0 L 96.41 -16.37 L 107.75 -9.82 zM 38.99 -16.78 L 38.99 -16.78 L 38.99 -16.78 L 38.5 -16.5 L 38.5 -16.5 L 10.63 -0.41 L 0 -6.55 L 0 -6.55 L 0 -6.55 L 0 -6.55 L 28.36 -22.92 L 38.99 -16.78 z" fill="none" stroke="black" id="0|10|0||-28" stroke-width="0.35mm"></path><path d="M 96.41 -16.37 L 96.41 -16.37 L 68.06 0 L 68.05 0 L 68.05 0 L 68.05 -3.27 L 68.05 -3.27 L 95.9 -19.35 L 95.9 -19.35 L 96.41 -19.64 L 96.41 -16.37 z" fill="none" stroke="black" id="10|0|0||-16" stroke-width="0.35mm"></path><path d="M 49.62 -4.09 L 49.62 -4.09 L 21.27 12.28 L 21.27 12.28 L 21.27 12.28 L 21.27 9 L 21.27 9 L 49.15 -7.09 L 49.15 -7.09 L 49.62 -7.37 L 49.62 -4.1 zM 24.1 -182.53 L 21.27 -180.9 L 21.27 -180.9 L 21.27 -184.17 L 21.27 -184.17 L 21.27 -184.17 z" fill="none" stroke="black" id="10|0|0||-22" stroke-width="0.35mm"></path><path d="M 119.09 0 L 119.09 0 L 119.09 0 L 118.62 0.27 L 118.62 0.27 L 90.74 16.37 L 81.02 10.76 L 81.02 10.76 L 81.02 10.76 L 81.02 10.76 L 79.39 9.82 L 79.39 9.82 L 79.39 9.82 L 79.39 9.82 L 79.4 9.82 L 107.75 -6.55 L 119.09 0 zM 49.62 -7.37 L 49.62 -7.37 L 49.62 -7.37 L 49.15 -7.09 L 49.15 -7.09 L 21.27 9 L 10.63 2.86 L 10.63 2.86 L 10.63 2.86 L 10.64 2.86 L 38.99 -13.51 L 49.62 -7.37 z" fill="none" stroke="black" id="0|10|0||-29" stroke-width="0.35mm"></path><path d="M 107.75 -6.55 L 107.75 -6.55 L 79.4 9.82 L 79.39 9.82 L 79.39 9.82 L 79.39 6.55 L 79.39 6.55 L 107.26 -9.54 L 107.26 -9.54 L 107.75 -9.82 L 107.75 -6.55 z" fill="none" stroke="black" id="10|0|0||-12" stroke-width="0.35mm"></path><path d="M 60.25 5.32 L 60.25 5.32 L 31.9 21.69 L 31.9 21.69 L 31.9 21.69 L 31.9 21.69 L 31.9 18.42 L 59.8 2.31 L 59.8 2.31 L 60.25 2.05 L 60.25 5.32 zM 31.9 -178.03 L 31.9 -178.03 L 31.9 -181.31 L 31.9 -181.31 L 32.63 -181.64 L 35.22 -179.95 zM 37.57 -181.31 L 35.05 -182.76 L 35.46 -182.95 L 37.78 -181.43 zM 38.2 -184.22 L 38.23 -184.23 L 38.56 -184.01 z" fill="none" stroke="black" id="10|0|0||-19" stroke-width="0.35mm"></path><path d="M -106.33 18.83 L -106.33 15.55 L -131.85 0.82 L -124.05 -3.68 L -95.7 12.69 zM -45.37 -49.11 L -45.37 -52.39 L -70.89 -67.12 L -62.38 -72.03 L -34.03 -55.66 z" fill="none" stroke="black" id="0|10|0||-17" stroke-width="0.35mm"></path><path d="M 130.43 9.82 L 130.43 9.82 L 130.43 9.82 L 129.98 10.09 L 129.98 10.09 L 102.08 26.19 L 91.67 20.18 L 91.67 20.18 L 91.67 20.18 L 91.67 20.18 L 90.74 19.65 L 90.74 19.65 L 90.74 19.64 L 90.74 19.64 L 90.74 19.64 L 119.09 3.27 L 130.43 9.82 zM 60.25 2.05 L 60.25 2.05 L 60.25 2.05 L 59.8 2.31 L 59.8 2.31 L 31.9 18.42 L 21.27 12.28 L 21.27 12.28 L 21.27 12.28 L 49.62 -4.09 L 60.25 2.05 z" fill="none" stroke="black" id="0|10|0||-30" stroke-width="0.35mm"></path><path d="M 226.84 -108.05 L 226.84 -108.05 L 226.84 -108.05 L 226.84 -104.77 L 226.84 -104.77 L 226.84 -104.77 L 226.84 -101.5 L 226.84 -101.5 L 226.84 -101.5 L 226.84 -98.22 L 226.84 -98.22 L 226.84 -98.22 L 226.84 -94.95 L 226.84 -94.95 L 226.84 -94.95 L 226.84 -91.68 L 226.84 -91.68 L 226.84 -91.68 L 226.84 -88.4 L 226.84 -88.4 L 226.84 -88.4 L 226.84 -85.13 L 226.84 -85.13 L 226.84 -85.13 L 226.84 -81.85 L 226.84 -81.85 L 226.84 -81.85 L 226.84 -78.58 L 226.84 -78.58 L 226.84 -78.58 L 226.84 -75.31 L 226.84 -75.31 L 226.84 -75.31 L 226.84 -72.03 L 226.84 -72.03 L 226.84 -72.03 L 226.84 -68.76 L 226.84 -68.76 L 226.84 -68.76 L 226.84 -65.48 L 226.84 -65.48 L 226.84 -65.48 L 226.84 -62.21 L 226.84 -62.21 L 226.84 -62.21 L 226.84 -58.93 L 226.84 -58.93 L 226.84 -58.93 L 226.84 124.42 L 226.84 124.42 L 226.84 127.69 L 226.84 127.69 L 226.84 127.69 L 226.84 130.97 L 226.84 130.97 L 226.84 130.97 L 226.84 134.24 L 226.84 134.24 L 226.84 134.24 L 226.84 137.51 L 226.84 137.51 L 226.84 137.51 L 226.84 140.79 L 226.84 140.79 L 226.84 140.79 L 226.84 144.06 L 226.84 144.06 L 226.84 144.06 L 226.84 147.34 L 226.84 147.34 L 226.84 147.34 L 226.84 150.61 L 226.84 150.61 L 226.84 150.61 L 226.84 153.89 L 226.84 153.89 L 226.84 153.89 L 226.84 157.16 L 226.84 157.16 L 226.84 157.16 L 226.84 160.43 L 226.84 160.43 L 226.84 160.43 L 226.84 163.71 L 226.84 163.71 L 226.84 163.71 L 226.84 166.98 L 226.84 166.98 L 226.84 166.98 L 226.84 170.26 L 226.84 170.26 L 226.84 170.26 L 226.84 173.53 L 226.84 173.53 L 226.84 173.53 L 226.84 196.45 L 226.84 196.45 L 226.84 196.45 L 226.84 196.45 L 0 65.48 L 0 65.48 L 0 42.56 L 0 39.29 L 0 39.29 L 0 39.29 L 0 36.02 L 0 36.02 L 0 36.02 L 0 32.74 L 0 32.74 L 0 32.74 L 0 29.47 L 0 29.47 L 0 29.47 L 0 26.19 L 0 26.19 L 0 26.19 L 0 22.92 L 0 22.92 L 0 22.92 L 0 19.65 L 0 19.64 L 0 19.64 L 0 16.37 L 0 16.37 L 0 16.37 L 0 13.1 L 0 13.1 L 0 13.1 L 0 9.82 L 0 9.82 L 0 9.82 L 0 6.55 L 0 6.55 L 0 6.55 L 0 3.27 L 0 3.27 L 0 3.27 L 0 0 L 0 0 L 0 0 L 0 -3.27 L 0 -3.27 L 0 -3.27 L 0 -6.55 L 0 -6.55 L 0 -6.55 L 10.63 -0.41 L 10.63 2.86 L 21.27 9 L 21.27 12.28 L 21.27 12.28 L 31.9 18.42 L 31.9 18.42 L 31.9 21.69 L 31.9 21.69 L 31.9 21.69 L 31.9 21.69 L 42.53 27.83 L 42.53 31.1 L 53.17 37.24 L 53.17 40.52 L 63.8 46.66 L 63.8 49.93 L 74.43 56.07 L 74.43 59.34 L 74.43 59.34 L 74.43 59.34 L 74.43 59.34 L 85.06 65.48 L 85.06 68.76 L 85.06 68.76 L 85.06 68.76 L 85.06 68.76 L 95.7 74.9 L 95.7 78.17 L 95.7 78.17 L 95.7 78.17 L 95.7 78.17 L 106.33 84.31 L 106.33 87.58 L 106.33 87.58 L 106.33 87.58 L 106.33 87.58 L 116.96 93.72 L 116.96 97 L 116.96 97 L 116.96 97 L 116.96 97 L 127.6 103.14 L 127.6 106.41 L 127.6 106.41 L 127.6 106.41 L 127.6 106.41 L 138.23 112.55 L 138.23 115.82 L 138.23 115.82 L 138.23 115.82 L 138.23 115.82 L 148.86 121.96 L 148.86 125.24 L 148.86 125.24 L 148.86 125.24 L 148.86 125.24 L 159.5 131.38 L 159.5 134.65 L 159.5 134.65 L 159.5 134.65 L 159.5 134.65 L 170.13 140.79 L 170.13 -94.95 L 170.13 -94.95 L 170.13 -94.95 L 170.13 -98.22 L 170.13 -98.22 L 170.13 -98.22 L 170.13 -101.5 L 170.13 -101.5 L 170.13 -101.5 L 170.13 -104.77 L 170.13 -104.77 L 170.13 -104.77 L 170.13 -108.05 L 170.13 -108.05 L 170.13 -108.05 L 170.13 -111.32 L 170.13 -111.32 L 170.13 -111.32 L 170.13 -114.6 L 170.13 -114.6 L 170.13 -114.6 L 170.13 -117.87 L 170.13 -117.87 L 170.13 -117.87 L 170.13 -121.14 L 170.13 -121.14 L 170.13 -121.14 L 170.13 -124.42 L 170.13 -124.42 L 170.13 -124.42 L 170.13 -127.69 L 170.13 -127.69 L 170.13 -127.69 L 170.13 -130.97 L 170.13 -130.97 L 170.13 -130.97 L 170.13 -134.24 L 170.13 -134.24 L 170.13 -134.24 L 170.13 -137.51 L 170.13 -137.51 L 170.13 -137.51 L 170.13 -140.79 L 162.33 -145.29 L 167.52 -148.29 L 164.91 -150.06 L 159.5 -146.93 L 159.5 -146.93 L 159.5 -146.93 L 159.5 -146.93 L 159.5 -143.65 L 151.7 -148.16 L 160.35 -153.15 L 157.74 -154.92 L 148.86 -149.79 L 148.86 -149.79 L 148.86 -149.79 L 148.86 -149.79 L 148.86 -146.52 L 141.07 -151.02 L 153.18 -158.02 L 150.57 -159.78 L 138.23 -152.66 L 138.23 -152.66 L 138.23 -152.66 L 138.23 -152.66 L 138.23 -149.38 L 130.43 -153.88 L 136.1 -157.16 L 133.27 -158.8 L 132.92 -158.59 L 133.52 -158.26 L 130.75 -156.98 L 130.43 -157.16 L 127.6 -155.52 L 127.6 -155.52 L 127.6 -155.52 L 127.6 -155.52 L 127.6 -152.25 L 119.8 -156.75 L 125.47 -160.02 L 122.63 -161.66 L 122.24 -161.43 L 122.85 -161.1 L 120.11 -159.84 L 119.8 -160.02 L 116.96 -158.39 L 116.96 -158.39 L 116.96 -158.39 L 116.96 -158.39 L 116.96 -155.11 L 109.17 -159.61 L 112 -161.25 L 109.17 -162.89 L 108.91 -162.74 L 109.21 -162.58 L 106.33 -161.25 L 106.33 -161.25 L 106.33 -157.98 L 98.53 -162.48 L 101.37 -164.12 L 98.53 -165.75 L 98.23 -165.58 L 98.53 -165.42 L 95.7 -164.12 L 95.7 -164.12 L 95.7 -160.84 L 85.07 -166.98 L 85.07 -166.98 L 85.06 -166.98 L 85.06 -163.71 L 74.43 -169.85 L 74.43 -169.85 L 74.43 -169.85 L 74.43 -166.57 L 63.8 -172.71 L 63.8 -169.44 L 53.17 -175.58 L 53.17 -172.3 L 42.53 -178.44 L 42.53 -175.99 L 42.53 -175.99 L 42.53 -175.99 L 42.53 -175.17 L 34.73 -179.67 L 35.22 -179.95 L 32.63 -181.64 L 31.9 -181.31 L 31.9 -181.31 L 31.9 -178.03 L 21.27 -184.17 L 21.27 -184.17 L 21.27 -184.17 L 21.27 -180.9 L 21.27 -180.9 L 21.27 -180.9 L 21.27 -180.9 L 10.63 -187.04 L 10.63 -187.04 L 10.63 -187.04 L 10.63 -183.76 L 0 -189.9 L 0 -261.93 L 0 -261.93 L 0 -261.93 L 0 -261.93 L 226.84 -130.97 zM 0 65.48 L 0 65.48 L 0 65.48 zM 138.52 -158.55 L 146.01 -162.88 L 143.4 -164.65 L 135.63 -160.16 zM 127.84 -161.39 L 128.31 -161.66 L 125.47 -163.3 L 124.94 -162.99 zM 114.48 -162.68 L 114.84 -162.89 L 112 -164.53 L 111.56 -164.27 zM 128.31 -164.94 L 127.67 -164.57 L 130.56 -162.96 L 138.84 -167.74 L 138.19 -168.19 L 129.57 -164.21 zM 117.16 -164.23 L 117.67 -164.53 L 114.84 -166.16 L 114.25 -165.82 zM 103.79 -165.51 L 104.2 -165.75 L 101.37 -167.39 L 100.86 -167.1 zM 119.87 -165.79 L 120.51 -166.16 L 117.67 -167.8 L 116.97 -167.39 zM 90.51 -166.85 L 90.74 -166.98 L 87.9 -168.62 L 87.54 -168.41 zM 106.46 -167.05 L 107.04 -167.39 L 104.2 -169.03 L 103.54 -168.64 zM 122.6 -167.37 L 123.34 -167.8 L 120.51 -169.44 L 119.71 -168.98 zM 93.08 -168.34 L 93.57 -168.62 L 90.74 -170.26 L 90.14 -169.91 zM 109.16 -168.62 L 109.88 -169.03 L 107.04 -170.67 L 106.26 -170.21 zM 79.81 -169.68 L 80.1 -169.85 L 77.27 -171.48 L 76.81 -171.22 zM 95.74 -169.87 L 96.41 -170.26 L 93.57 -171.89 L 92.81 -171.45 zM 111.9 -170.19 L 112.71 -170.66 L 109.88 -172.3 L 109 -171.79 zM 82.35 -171.14 L 82.94 -171.48 L 80.73 -172.76 L 79.96 -172.4 zM 98.44 -171.43 L 99.24 -171.89 L 97.67 -172.8 L 96.72 -172.36 zM 114.65 -171.78 L 115.55 -172.3 L 114.6 -172.85 L 113.58 -172.38 zM 69.07 -172.48 L 69.47 -172.71 L 66.95 -174.17 L 66.28 -173.86 zM 84.99 -172.67 L 85.77 -173.12 L 83.88 -174.21 L 82.92 -173.77 zM 42.53 -175.17 L 42.53 -175.17 L 42.53 -175.17 L 42.53 -175.17 L 42.53 -175.17 zM 31.9 -178.03 L 31.9 -178.03 L 31.9 -178.03 zM 37.57 -181.31 L 37.78 -181.43 L 35.46 -182.95 L 35.05 -182.76 zM 10.63 -183.76 L 10.63 -183.76 L 10.63 -183.76 zM 38.56 -184.01 L 38.23 -184.23 L 38.2 -184.22 z" fill="none" stroke="black" id="0|0|10||-30" stroke-width="0.35mm"></path><path d="M 119.09 3.27 L 119.09 3.27 L 90.74 19.64 L 90.74 19.64 L 90.74 19.64 L 90.74 16.37 L 90.74 16.37 L 118.62 0.27 L 118.62 0.27 L 119.09 0 L 119.09 3.27 z" fill="none" stroke="black" id="10|0|0||-8" stroke-width="0.35mm"></path><path d="M 70.89 14.73 L 70.89 14.73 L 42.54 31.1 L 42.53 31.1 L 42.53 31.1 L 42.53 27.83 L 70.44 11.72 L 70.44 11.72 L 70.89 11.46 L 70.89 14.73 zM 42.53 -175.17 L 42.53 -175.17 L 42.53 -175.99 L 42.53 -175.99 L 42.53 -175.99 L 42.53 -178.44 L 45.37 -176.8 z" fill="none" stroke="black" id="10|0|0||-15" stroke-width="0.35mm"></path><path d="M 141.77 19.64 L 141.78 19.64 L 141.78 19.64 L 141.33 19.9 L 141.33 19.9 L 113.42 36.02 L 112.81 35.66 L 112.81 35.66 L 112.81 35.66 L 102.32 29.61 L 102.32 29.61 L 102.32 29.61 L 102.32 29.61 L 102.08 29.47 L 102.08 29.47 L 102.08 29.47 L 102.08 29.47 L 102.08 29.46 L 130.43 13.1 L 141.77 19.64 zM 70.89 11.46 L 70.89 11.46 L 70.89 11.46 L 70.44 11.72 L 70.44 11.72 L 42.53 27.83 L 42.53 27.83 L 31.9 21.69 L 31.9 21.69 L 31.9 21.69 L 31.9 21.69 L 60.25 5.32 L 70.89 11.46 z" fill="none" stroke="black" id="0|10|0||-31" stroke-width="0.35mm"></path><path d="M 102.79 42.97 L 102.79 42.97 L 74.44 59.34 L 74.43 59.34 L 74.43 59.34 L 74.43 56.07 L 102.38 39.93 L 102.38 39.93 L 102.79 39.7 L 102.79 42.97 zM 130.43 13.1 L 130.43 13.1 L 102.08 29.46 L 102.08 29.47 L 102.08 29.47 L 102.08 26.19 L 102.08 26.19 L 129.98 10.09 L 129.98 10.09 L 130.43 9.82 L 130.43 13.09 zM 77.27 -168.21 L 74.43 -166.57 L 74.43 -166.57 L 74.43 -169.85 L 74.43 -169.85 L 74.43 -169.85 zM 79.81 -169.68 L 76.81 -171.22 L 77.27 -171.48 L 80.1 -169.85 zM 82.35 -171.14 L 79.96 -172.4 L 80.73 -172.76 L 82.94 -171.48 zM 84.99 -172.67 L 82.92 -173.77 L 83.88 -174.21 L 85.77 -173.12 zM 130.43 -186.63 L 127.6 -188.26 L 130.43 -189.9 L 130.43 -189.9 z" fill="none" stroke="black" id="10|0|0||-4" stroke-width="0.35mm"></path><path d="M -116.96 21.69 L -116.96 18.42 L -142.48 3.68 L -134.69 -0.82 L -106.33 15.55 zM -56.71 -45.84 L -56.71 -49.11 L -82.23 -63.85 L -73.72 -68.76 L -45.37 -52.39 z" fill="none" stroke="black" id="0|10|0||-16" stroke-width="0.35mm"></path><path d="M 81.52 24.15 L 81.52 24.15 L 53.17 40.51 L 53.17 40.52 L 53.17 40.52 L 53.17 37.24 L 81.09 21.12 L 81.09 21.12 L 81.52 20.87 L 81.52 24.14 zM 53.17 -172.3 L 53.17 -172.3 L 53.17 -175.58 L 56 -173.94 z" fill="none" stroke="black" id="10|0|0||-11" stroke-width="0.35mm"></path><path d="M 153.12 29.47 L 153.12 29.47 L 153.12 29.47 L 152.69 29.72 L 152.69 29.72 L 124.76 45.84 L 124.05 45.43 L 124.05 45.43 L 124.05 45.43 L 123.46 45.09 L 123.46 45.09 L 123.46 45.09 L 113.42 39.29 L 113.42 39.29 L 113.42 39.29 L 113.42 39.29 L 141.77 22.92 L 153.12 29.47 zM 81.52 20.87 L 81.52 20.87 L 81.52 20.87 L 81.09 21.12 L 81.09 21.12 L 53.17 37.24 L 53.17 37.24 L 42.53 31.1 L 42.53 31.1 L 42.53 31.1 L 42.54 31.1 L 70.89 14.73 L 81.52 20.87 z" fill="none" stroke="black" id="0|10|0||-32" stroke-width="0.35mm"></path><path d="M 113.42 52.39 L 113.42 52.39 L 85.07 68.75 L 85.07 68.76 L 85.06 68.76 L 85.06 65.48 L 113.03 49.34 L 113.03 49.34 L 113.42 49.11 L 113.42 52.38 zM 141.78 22.92 L 141.77 22.92 L 113.42 39.29 L 113.42 39.29 L 113.42 39.29 L 113.42 36.02 L 113.42 36.02 L 141.33 19.9 L 141.33 19.9 L 141.77 19.65 L 141.77 22.92 zM 87.9 -165.34 L 85.06 -163.71 L 85.06 -163.71 L 85.06 -166.98 L 85.07 -166.98 L 85.07 -166.98 zM 90.51 -166.85 L 87.54 -168.41 L 87.9 -168.62 L 90.74 -166.98 zM 93.08 -168.34 L 90.14 -169.91 L 90.74 -170.26 L 93.57 -168.62 zM 95.74 -169.87 L 92.81 -171.45 L 93.57 -171.89 L 96.41 -170.26 zM 98.44 -171.43 L 96.72 -172.36 L 97.67 -172.8 L 99.24 -171.89 zM 141.78 -183.35 L 141.78 -183.35 L 138.94 -181.72 L 136.1 -183.35 L 141.77 -186.63 L 141.78 -186.63 z" fill="none" stroke="black" id="10|0|0||0" stroke-width="0.35mm"></path><path d="M 92.15 33.56 L 92.15 33.56 L 63.8 49.93 L 63.8 49.93 L 63.8 49.93 L 63.8 46.66 L 91.74 30.53 L 91.74 30.53 L 92.15 30.29 L 92.15 33.56 zM 63.8 -169.44 L 63.8 -169.44 L 63.8 -172.71 L 66.63 -171.07 zM 69.07 -172.48 L 66.28 -173.86 L 66.95 -174.17 L 69.47 -172.71 z" fill="none" stroke="black" id="10|0|0||-7" stroke-width="0.35mm"></path><path d="M 164.46 39.29 L 164.46 39.29 L 164.46 39.29 L 164.04 39.53 L 164.04 39.53 L 136.1 55.66 L 134.69 54.84 L 134.69 54.84 L 134.69 54.84 L 134.11 54.51 L 134.11 54.51 L 134.11 54.51 L 124.76 49.11 L 124.76 49.11 L 124.76 49.11 L 124.77 49.11 L 153.12 32.74 L 164.46 39.29 zM 92.15 30.29 L 92.15 30.29 L 92.15 30.29 L 91.74 30.53 L 91.74 30.53 L 63.8 46.66 L 63.8 46.66 L 53.17 40.52 L 53.17 40.52 L 53.17 40.52 L 53.17 40.52 L 81.52 24.15 L 92.15 30.29 z" fill="none" stroke="black" id="0|10|0||-33" stroke-width="0.35mm"></path><path d="M -127.6 24.56 L -127.6 21.28 L -153.12 6.55 L -145.32 2.05 L -116.96 18.42 zM -68.05 -42.56 L -68.05 -45.84 L -93.57 -60.57 L -85.06 -65.48 L -56.71 -49.11 z" fill="none" stroke="black" id="0|10|0||-15" stroke-width="0.35mm"></path><path d="M 124.05 61.8 L 124.05 61.8 L 95.7 78.17 L 95.7 78.17 L 95.7 78.17 L 95.7 74.9 L 123.67 58.75 L 123.67 58.75 L 124.05 58.53 L 124.05 61.8 zM 153.12 32.74 L 153.12 32.74 L 124.77 49.11 L 124.76 49.11 L 124.76 49.11 L 124.76 45.84 L 124.76 45.84 L 152.69 29.72 L 152.69 29.72 L 153.12 29.47 L 153.12 32.74 zM 95.7 -160.84 L 95.7 -160.84 L 95.7 -164.12 L 95.7 -164.12 L 98.53 -165.42 L 98.23 -165.58 L 98.53 -165.75 L 101.37 -164.12 zM 103.79 -165.51 L 100.86 -167.1 L 101.37 -167.39 L 104.2 -165.75 zM 106.46 -167.05 L 103.54 -168.64 L 104.2 -169.03 L 107.04 -167.39 zM 109.16 -168.62 L 106.26 -170.21 L 107.04 -170.67 L 109.88 -169.03 zM 111.9 -170.19 L 109 -171.79 L 109.88 -172.3 L 112.71 -170.66 zM 114.65 -171.78 L 113.58 -172.38 L 114.6 -172.85 L 115.55 -172.3 zM 153.12 -180.08 L 153.12 -180.08 L 147.45 -176.8 L 144.61 -178.44 L 153.12 -183.35 L 153.12 -183.35 z" fill="none" stroke="black" id="10|0|0||4" stroke-width="0.35mm"></path><path d="M 170.13 52.39 L 147.45 65.48 L 145.32 64.25 L 145.32 64.26 L 144.76 63.93 L 144.76 63.93 L 144.76 63.93 L 136.1 58.93 L 136.1 58.93 L 136.1 58.93 L 136.11 58.93 L 164.46 42.56 L 170.13 45.84 zM 102.79 39.7 L 102.79 39.7 L 102.79 39.7 L 102.38 39.93 L 102.38 39.93 L 74.43 56.07 L 74.43 56.07 L 63.8 49.93 L 63.8 49.93 L 63.8 49.93 L 63.8 49.93 L 92.15 33.56 L 102.79 39.7 z" fill="none" stroke="black" id="0|10|0||-34" stroke-width="0.35mm"></path><path d="M 134.69 71.21 L 134.69 71.21 L 106.34 87.58 L 106.33 87.58 L 106.33 87.58 L 106.33 84.31 L 134.31 68.15 L 134.31 68.15 L 134.69 67.94 L 134.69 71.21 zM 164.46 42.56 L 164.46 42.56 L 136.11 58.93 L 136.1 58.93 L 136.1 58.93 L 136.1 55.66 L 136.1 55.66 L 164.04 39.53 L 164.04 39.53 L 164.46 39.29 L 164.46 42.56 zM 106.33 -157.98 L 106.33 -157.98 L 106.33 -161.25 L 106.33 -161.25 L 109.21 -162.58 L 108.91 -162.74 L 109.17 -162.89 L 112 -161.25 zM 114.48 -162.68 L 111.56 -164.27 L 112 -164.53 L 114.84 -162.89 zM 117.16 -164.23 L 114.25 -165.82 L 114.84 -166.16 L 117.67 -164.53 zM 119.87 -165.79 L 116.97 -167.39 L 117.67 -167.8 L 120.51 -166.16 zM 122.6 -167.37 L 119.71 -168.98 L 120.51 -169.44 L 123.34 -167.8 zM 164.46 -176.8 L 164.46 -176.8 L 155.95 -171.89 L 155.95 -171.89 L 155.95 -171.89 L 153.12 -173.53 L 164.46 -180.08 L 164.46 -180.08 z" fill="none" stroke="black" id="10|0|0||8" stroke-width="0.35mm"></path><path d="M 158.79 75.31 L 155.41 73.35 L 155.41 73.35 L 155.41 73.35 L 147.45 68.76 L 147.45 68.76 L 147.45 68.76 L 147.45 68.75 L 170.13 55.66 L 170.13 68.76 zM 113.42 49.11 L 113.42 49.11 L 113.42 49.11 L 113.03 49.34 L 113.03 49.34 L 85.06 65.48 L 85.06 65.48 L 74.43 59.34 L 74.43 59.34 L 74.43 59.34 L 74.43 59.34 L 74.44 59.34 L 102.79 42.97 L 113.42 49.11 z" fill="none" stroke="black" id="0|10|0||-35" stroke-width="0.35mm"></path><path d="M -138.23 27.42 L -138.23 24.15 L -163.75 9.41 L -155.95 4.91 L -127.6 21.28 zM -79.39 -39.29 L -79.39 -42.56 L -104.91 -57.3 L -96.41 -62.21 L -68.05 -45.84 z" fill="none" stroke="black" id="0|10|0||-14" stroke-width="0.35mm"></path><path d="M 147.45 68.75 L 147.45 68.76 L 147.45 68.76 L 147.45 65.48 L 147.45 65.48 L 170.13 52.39 L 170.13 55.66 zM 175.8 -173.53 L 175.8 -173.53 L 167.29 -168.62 L 166.59 -169.03 L 166.59 -169.03 L 166.59 -169.03 L 166.59 -169.03 L 166.59 -169.03 L 166.59 -169.03 L 163.75 -167.39 L 161.62 -168.62 L 175.8 -176.8 L 175.8 -176.8 z" fill="none" stroke="black" id="10|0|0||12" stroke-width="0.35mm"></path><path d="M 166.05 82.77 L 166.05 82.77 L 166.05 82.77 L 158.79 78.58 L 158.79 78.58 L 158.79 78.58 L 158.79 78.58 L 170.13 72.03 L 170.13 85.13 zM 124.05 58.53 L 124.05 58.53 L 124.05 58.53 L 123.67 58.75 L 123.67 58.75 L 95.7 74.9 L 95.7 74.9 L 85.06 68.76 L 85.06 68.76 L 85.06 68.76 L 85.07 68.76 L 85.07 68.75 L 113.42 52.39 L 124.05 58.53 z" fill="none" stroke="black" id="0|10|0||-36" stroke-width="0.35mm"></path><path d="M 158.79 78.58 L 158.79 78.58 L 158.79 78.58 L 158.79 75.31 L 158.79 75.31 L 170.13 68.76 L 170.13 72.03 zM 187.14 -170.26 L 187.14 -170.26 L 178.64 -165.34 L 177.22 -166.16 L 177.22 -166.16 L 177.22 -166.16 L 177.22 -166.16 L 177.22 -166.16 L 177.22 -166.16 L 174.38 -164.53 L 172.97 -165.34 L 187.14 -173.53 L 187.14 -173.53 z" fill="none" stroke="black" id="10|0|0||16" stroke-width="0.35mm"></path><path d="M -148.86 30.29 L -148.86 27.01 L -174.38 12.28 L -166.59 7.78 L -138.23 24.15 zM -90.74 -36.02 L -90.74 -39.29 L -116.26 -54.02 L -107.75 -58.93 L -79.39 -42.56 z" fill="none" stroke="black" id="0|10|0||-13" stroke-width="0.35mm"></path><path d="M 134.69 67.94 L 134.69 67.94 L 134.69 67.94 L 134.31 68.15 L 134.31 68.15 L 106.33 84.31 L 106.33 84.31 L 95.7 78.17 L 95.7 78.17 L 95.7 78.17 L 95.7 78.17 L 95.7 78.17 L 124.05 61.8 L 134.69 67.94 z" fill="none" stroke="black" id="0|10|0||-37" stroke-width="0.35mm"></path><path d="M 145.32 80.63 L 145.32 80.63 L 116.97 96.99 L 116.97 97 L 116.96 97 L 116.96 93.72 L 144.96 77.56 L 144.96 77.56 L 145.32 77.35 L 145.32 80.62 zM 116.96 -155.11 L 116.96 -155.11 L 116.96 -158.39 L 116.96 -158.39 L 116.96 -158.39 L 116.96 -158.39 L 116.96 -158.39 L 119.8 -160.02 L 120.11 -159.84 L 122.85 -161.1 L 122.24 -161.43 L 122.63 -161.66 L 125.47 -160.02 zM 127.84 -161.39 L 124.94 -162.99 L 125.47 -163.3 L 128.31 -161.66 zM 130.56 -162.96 L 127.67 -164.57 L 128.31 -164.94 L 129.57 -164.21 L 138.19 -168.19 L 138.84 -167.74 z" fill="none" stroke="black" id="10|0|0||11" stroke-width="0.35mm"></path><path d="M 198.49 -166.98 L 198.49 -166.98 L 189.98 -162.07 L 187.85 -163.3 L 187.85 -163.3 L 187.85 -163.3 L 187.85 -163.3 L 187.85 -163.3 L 187.85 -163.3 L 185.02 -161.66 L 184.31 -162.07 L 198.48 -170.26 L 198.49 -170.26 z" fill="none" stroke="black" id="10|0|0||20" stroke-width="0.35mm"></path><path d="M 145.32 77.35 L 145.32 77.35 L 145.32 77.35 L 144.96 77.56 L 144.96 77.56 L 116.96 93.72 L 116.96 93.72 L 106.33 87.58 L 106.33 87.58 L 106.33 87.58 L 106.33 87.58 L 106.34 87.58 L 134.69 71.21 L 145.32 77.35 z" fill="none" stroke="black" id="0|10|0||-38" stroke-width="0.35mm"></path><path d="M 155.95 90.04 L 155.95 90.04 L 127.6 106.41 L 127.6 106.41 L 127.6 106.41 L 127.6 103.14 L 155.6 86.97 L 155.6 86.97 L 155.95 86.77 L 155.95 90.04 zM 127.6 -152.25 L 127.6 -152.25 L 127.6 -155.52 L 127.6 -155.52 L 127.6 -155.52 L 127.6 -155.52 L 127.6 -155.52 L 130.43 -157.16 L 130.75 -156.98 L 133.52 -158.26 L 132.92 -158.59 L 133.27 -158.8 L 136.1 -157.16 zM 138.52 -158.55 L 135.63 -160.16 L 143.4 -164.65 L 146.01 -162.88 z" fill="none" stroke="black" id="10|0|0||15" stroke-width="0.35mm"></path><path d="M -159.5 33.15 L -159.5 29.88 L -185.02 15.14 L -177.22 10.64 L -148.86 27.01 zM -102.08 -32.74 L -102.08 -36.02 L -127.6 -50.75 L -119.09 -55.66 L -90.74 -39.29 z" fill="none" stroke="black" id="0|10|0||-12" stroke-width="0.35mm"></path><path d="M 209.83 -163.71 L 209.83 -163.71 L 198.49 -157.16 L 198.49 -157.16 L 195.65 -158.8 L 209.83 -166.98 L 209.83 -166.98 z" fill="none" stroke="black" id="10|0|0||24" stroke-width="0.35mm"></path><path d="M 155.95 86.76 L 155.95 86.76 L 155.95 86.77 L 155.6 86.97 L 155.6 86.97 L 127.6 103.14 L 127.6 103.14 L 116.96 97 L 116.96 97 L 116.96 97 L 116.97 97 L 116.97 96.99 L 145.32 80.63 L 155.95 86.76 zM 232.51 98.22 L 232.51 98.22 L 232.51 98.22 L 232.16 98.43 L 232.16 98.43 L 226.84 101.5 L 226.84 94.95 L 232.51 98.22 z" fill="none" stroke="black" id="0|10|0||-39" stroke-width="0.35mm"></path><path d="M 166.59 99.45 L 166.59 99.45 L 138.23 115.82 L 138.23 115.82 L 138.23 115.82 L 138.23 112.55 L 166.24 96.38 L 166.24 96.38 L 166.59 96.18 L 166.59 99.45 zM 138.23 -149.38 L 138.23 -149.38 L 138.23 -152.66 L 138.23 -152.66 L 138.23 -152.66 L 138.23 -152.66 L 138.23 -152.66 L 150.57 -159.78 L 153.18 -158.02 zM 166.59 -165.75 L 163.75 -167.39 L 166.59 -169.03 L 166.59 -169.03 z" fill="none" stroke="black" id="10|0|0||19" stroke-width="0.35mm"></path><path d="M 243.85 108.05 L 243.85 108.05 L 243.85 108.05 L 243.51 108.25 L 243.51 108.25 L 226.84 117.87 L 226.84 104.77 L 232.51 101.5 L 243.85 108.05 zM 166.59 96.18 L 166.59 96.18 L 166.59 96.18 L 166.24 96.38 L 166.24 96.38 L 138.23 112.55 L 138.23 112.55 L 127.6 106.41 L 127.6 106.41 L 127.6 106.41 L 127.6 106.41 L 127.6 106.41 L 155.95 90.04 L 166.59 96.18 z" fill="none" stroke="black" id="0|10|0||-40" stroke-width="0.35mm"></path><path d="M 221.17 -160.43 L 221.17 -160.43 L 198.49 -147.34 L 198.49 -147.34 L 198.49 -150.61 L 198.49 -150.61 L 198.49 -150.61 L 198.49 -150.61 L 221.17 -163.71 L 221.17 -163.71 z" fill="none" stroke="black" id="10|0|0||28" stroke-width="0.35mm"></path><path d="M -170.13 36.02 L -170.13 32.74 L -195.65 18.01 L -187.85 13.51 L -159.5 29.88 zM -102.79 -35.61 L -102.79 -35.61 L -102.79 -35.61 L -113.42 -29.47 L -113.42 -32.74 L -138.94 -47.48 L -130.43 -52.39 L -102.08 -36.02 z" fill="none" stroke="black" id="0|10|0||-11" stroke-width="0.35mm"></path><path d="M 170.13 111.32 L 170.13 111.32 L 170.13 112.96 L 148.87 125.23 L 148.86 125.24 L 148.86 125.24 L 148.86 121.96 L 170.13 109.68 L 170.13 111.32 zM 148.86 -146.52 L 148.86 -146.52 L 148.86 -149.79 L 148.86 -149.79 L 148.86 -149.79 L 148.86 -149.79 L 148.86 -149.79 L 157.74 -154.92 L 160.35 -153.15 zM 177.22 -162.89 L 177.22 -162.89 L 174.38 -161.25 L 171.55 -162.89 L 177.22 -166.16 L 177.22 -166.16 z" fill="none" stroke="black" id="10|0|0||23" stroke-width="0.35mm"></path><path d="M 255.19 117.87 L 255.2 117.87 L 226.84 134.24 L 226.84 134.24 L 226.84 134.24 L 226.84 130.97 L 226.84 130.97 L 226.84 130.97 L 226.84 127.69 L 226.84 127.69 L 226.84 127.69 L 226.84 124.42 L 226.84 124.42 L 226.84 121.14 L 243.85 111.32 L 255.19 117.87 zM 170.13 101.5 L 170.13 101.5 L 170.13 104.77 L 170.13 104.77 L 170.13 104.77 L 170.13 108.05 L 170.13 108.05 L 170.13 108.05 L 170.13 109.68 L 148.86 121.96 L 148.86 121.96 L 138.23 115.82 L 138.23 115.82 L 138.23 115.82 L 138.23 115.82 L 138.23 115.82 L 166.59 99.45 L 170.13 101.5 z" fill="none" stroke="black" id="0|10|0||-41" stroke-width="0.35mm"></path><path d="M 232.51 101.5 L 232.51 101.5 L 226.84 104.77 L 226.84 101.5 L 232.16 98.43 L 232.16 98.43 L 232.51 98.22 L 232.51 101.5 zM 232.51 -157.16 L 232.51 -157.16 L 206.99 -142.43 L 204.16 -144.06 L 232.51 -160.43 L 232.51 -160.43 z" fill="none" stroke="black" id="10|0|0||32" stroke-width="0.35mm"></path><path d="M 170.13 127.69 L 170.13 127.69 L 170.13 128.51 L 159.5 134.65 L 159.5 134.65 L 159.5 134.65 L 159.5 131.38 L 170.13 125.24 L 170.13 127.69 zM 159.5 -143.65 L 159.5 -143.65 L 159.5 -146.93 L 159.5 -146.93 L 159.5 -146.93 L 159.5 -146.93 L 159.5 -146.93 L 164.91 -150.06 L 167.52 -148.29 zM 187.85 -160.02 L 187.85 -160.02 L 182.18 -156.75 L 179.35 -158.39 L 187.85 -163.3 L 187.85 -163.3 z" fill="none" stroke="black" id="10|0|0||26" stroke-width="0.35mm"></path><path d="M 170.13 114.6 L 170.13 114.6 L 170.13 117.87 L 170.13 117.87 L 170.13 117.87 L 170.13 121.14 L 170.13 121.14 L 170.13 121.14 L 170.13 124.42 L 170.13 124.42 L 170.13 124.42 L 170.13 125.24 L 159.5 131.38 L 159.5 131.38 L 148.86 125.24 L 148.86 125.24 L 148.86 125.24 L 148.86 125.24 L 148.87 125.23 L 170.13 112.96 L 170.13 114.6 z" fill="none" stroke="black" id="0|10|0||-42" stroke-width="0.35mm"></path><path d="M 243.85 111.32 L 243.85 111.32 L 226.84 121.14 L 226.84 117.87 L 243.51 108.25 L 243.51 108.25 L 243.85 108.05 L 243.85 111.32 zM 243.85 -153.89 L 243.85 -153.89 L 215.5 -137.51 L 215.5 -137.51 L 215.5 -140.79 L 215.5 -140.79 L 215.5 -140.79 L 215.5 -140.79 L 215.5 -140.79 L 243.85 -157.16 L 243.85 -157.16 z" fill="none" stroke="black" id="10|0|0||36" stroke-width="0.35mm"></path><path d="M -198.48 49.11 L -198.48 16.37 L -170.13 32.74 zM -124.76 -26.19 L -124.76 -29.47 L -150.28 -44.2 L -141.77 -49.11 L -113.42 -32.74 z" fill="none" stroke="black" id="0|10|0||-10" stroke-width="0.35mm"></path><path d="M 170.13 134.24 L 170.13 140.79 L 159.5 134.65 L 159.5 134.65 L 159.5 134.65 L 159.5 134.65 L 159.5 134.65 L 170.13 128.51 L 170.13 134.24 z" fill="none" stroke="black" id="0|10|0||-43" stroke-width="0.35mm"></path><path d="M -124.76 -29.47 L -136.1 -22.92 L -136.1 -26.19 L -136.1 -26.19 L -161.62 -40.93 L -159.5 -42.15 L -159.5 -42.15 L -159.5 -42.16 L -153.12 -45.84 L -124.76 -29.47 z" fill="none" stroke="black" id="0|10|0||-9" stroke-width="0.35mm"></path><path d="M -136.1 -26.19 L -147.45 -19.65 L -147.45 -22.92 L -147.45 -22.92 L -170.13 -36.02 L -161.62 -40.93 L -136.1 -26.19 z" fill="none" stroke="black" id="0|10|0||-8" stroke-width="0.35mm"></path><path d="M -147.45 -22.92 L -147.45 -22.92 L -158.79 -16.37 L -158.79 -19.65 L -175.8 -29.47 L -170.13 -32.74 L -170.13 -32.74 L -170.13 -36.02 L -170.13 -36.02 L -147.45 -22.92 z" fill="none" stroke="black" id="0|10|0||-7" stroke-width="0.35mm"></path><path d="M -158.99 -19.53 L -158.99 -19.53 L -158.99 -19.53 L -170.13 -13.1 L -170.13 -16.37 L -184.31 -24.56 L -175.8 -29.47 L -158.79 -19.65 z" fill="none" stroke="black" id="0|10|0||-6" stroke-width="0.35mm"></path><path d="M 226.84 196.45 L 226.84 196.45 L 0 327.42 L -226.84 196.45 L -226.84 196.45 L 0 65.48 L 226.84 196.45 z" fill="none" stroke="black" id="0|10|0||-50" stroke-width="0.35mm"></path><path d="M -181.47 -9.82 L -181.47 -13.1 L -192.81 -19.64 L -184.31 -24.56 L -170.13 -16.37 z" fill="none" stroke="black" id="0|10|0||-5" stroke-width="0.35mm"></path><path d="M -192.81 -6.55 L -192.81 -9.82 L -198.48 -13.1 L -198.48 -16.37 L -192.81 -19.64 L -181.47 -13.1 z" fill="none" stroke="black" id="0|10|0||-4" stroke-width="0.35mm"></path><path d="M -198.48 -6.55 L -198.48 -13.1 L -192.81 -9.82 zM -229.68 -21.28 L -226.84 -22.92 L -226.84 -19.65 z" fill="none" stroke="black" id="0|10|0||-3" stroke-width="0.35mm"></path><path d="M -226.84 -19.65 L -226.84 -19.64 L -226.84 -19.64 L -226.84 -16.37 L -226.84 -16.37 L -226.84 -16.37 L -226.84 -13.1 L -226.84 -13.1 L -226.84 -13.1 L -226.84 -9.82 L -241.02 -18.01 L -232.51 -22.92 L -226.84 -19.65 z" fill="none" stroke="black" id="0|10|0||-2" stroke-width="0.35mm"></path><path d="M -226.84 -9.82 L -226.84 -6.55 L -226.84 -6.55 L -226.84 -3.27 L -226.84 -3.27 L -226.84 -3.27 L -226.84 3.27 L -226.84 3.27 L -255.2 -13.1 L -255.2 -13.1 L -243.85 -19.65 L -226.84 -9.82 z" fill="none" stroke="black" id="0|10|0||-1" stroke-width="0.35mm"></path></g><g inkscape:label="Shading" inkscape:groupmode="layer" id="shading_layer"><path d=" M-8.76,-92.2L-2,-98.96 M-2,-107.45L-26.41,-83.04 M-38.01,-79.92L-2,-115.93 M-2.03,-124.39L-49.62,-76.8 M-61.23,-73.67L-2,-132.9 M-2,-141.39L-72.83,-70.55 M-84.44,-67.43L-2,-149.87 M-2,-158.36L-96.15,-64.21 M-107.91,-60.93L-2.21,-166.63 M-2,-175.33L-119.72,-57.61 M-132.05,-53.76L-42.27,-143.54 M-40.53,-145.28L-34.53,-151.29 M-29.9,-155.91L-26.78,-159.03 M-19.27,-166.55L-19.03,-166.78 M-93.34,-100.96L-93.7,-100.6 M-101.08,-93.21L-104.33,-89.97 M-108.83,-85.47L-114.96,-79.33 M-116.58,-77.72L-144.38,-49.92 M-229.95,-23.75L-228.84,-24.86 M-228.84,-33.34L-241.55,-20.63 M-253.2,-17.47L-250.78,-19.88" stroke="black" stroke-width="0.5"></path><path d=" M8.55,-182.65L8.55,-92.32 M16.55,-87.7L16.55,-181.31 M24.55,-179.96L24.55,-83.08 M32.55,-75.19L32.55,-176.14 M40.55,-174L40.55,-70.57 M48.55,-62.68L48.55,-172.66 M56.55,-171.31L56.55,-54.79 M64.55,-46.89L64.55,-167.56 M72.55,-165.35L72.55,-42.27 M80.55,-34.38L80.55,-164 M88.55,-162.66L88.55,-26.49 M96.55,-21.87L96.55,-159.03 M104.55,-156.69L104.55,-13.98 M112.55,-6.08L112.55,-155.35 M120.55,-154.01L120.55,-1.5 M128.55,6.43L128.55,-150.49 M136.55,-148.04L136.55,14.32 M144.55,22.21L144.55,-146.7 M144.55,-180.78L144.55,-182.71 M152.55,-177.44L152.55,-176.17 M152.55,-145.35L152.55,26.83 M160.55,34.73L160.55,-141.95 M160.55,-171.55L160.55,-172.24 M168.55,-175.41L168.55,-174.93 M176.55,-169.73L176.55,-171.65 M184.55,-166.45L184.55,-164.52 M200.55,-166.75L200.55,-163.94 M200.55,-156.04L200.55,-154.11 M208.55,-148.91L208.55,-150.84 M208.55,-158.73L208.55,-160.66 M216.55,-155.46L216.55,-153.53 M216.55,-145.64L216.55,-143.71 M224.55,-134.6L224.55,-140.43 M224.55,-148.33L224.55,-150.26 M224.55,-158.15L224.55,-159.44 M232.55,-154.87L232.55,-152.94 M232.55,-145.05L232.55,95.94 M240.55,103.83L240.55,-149.67 M248.55,-152.14L248.55,111.73" stroke="black" stroke-width="0.5"></path><path d=" M-2,-45L-5.04,-41.96 M-25.12,-30.37L-2,-53.49 M-2,-61.98L-36.5,-27.48 M-47.59,-24.87L-14.23,-58.23 M-26.56,-54.39L-58.68,-22.27 M-69.76,-19.67L-38.89,-50.55 M-51.22,-46.7L-80.85,-17.07 M-92.12,-14.28L-63.55,-42.86 M-75.87,-39.01L-103.68,-11.21 M-116.01,-7.36L-88.2,-35.17 M-100.53,-31.32L-128.34,-3.52 M-140.67,0.33L-112.86,-27.48 M-124.88,-23.95L-153,4.17 M-164.17,6.86L-136.48,-20.83 M-148.09,-17.71L-175.26,9.46 M-186.35,12.06L-159.7,-14.59 M-171.3,-11.47L-196.48,13.72 M-196.48,5.23L-182.91,-8.34 M-194.52,-5.22L-196.48,-3.26" stroke="black" stroke-width="0.5"></path><path d=" M-84.83,-10.92L-83.5,-9.59 M-70.12,-1.86L-80.49,-12.24 M-67.11,-4.51L-59.83,2.77 M-19.52,-81.37L-14.05,-75.9 M-0.66,-68.17L-15.93,-83.44 M-12.34,-85.51L5.48,-67.69 M9.07,-69.76L-8.76,-87.58 M-5.17,-89.66L12.66,-71.83 M16.24,-73.9L-1.59,-91.73 M7.47,-88.33L19.83,-75.97 M23.42,-78.04L20.85,-80.6" stroke="black" stroke-width="0.5"></path><path d="" stroke="black" stroke-width="0.5"></path><path d=" M-74.57,-13.57L-74.26,-13.26 M-60.88,-5.53L-70.99,-15.64 M-57.87,-8.18L-49.57,0.12 M4.33,-59.12L5.22,-58.23 M13.29,-55.82L7.91,-61.19 M11.5,-63.26L16.87,-57.89 M20.46,-59.96L15.09,-65.34 M18.67,-67.41L24.05,-62.03 M27.63,-64.1L22.26,-69.48 M25.84,-71.55L31.22,-66.17 M34.81,-68.24L32.37,-70.68" stroke="black" stroke-width="0.5"></path><path d="" stroke="black" stroke-width="0.5"></path><path d=" M-61.2,-18.02L-53.4,-10.22 M-39.78,-2.26L-50.39,-12.87 M-37.01,-5.14L-36.2,-4.33 M18.83,-51.13L24.21,-45.75 M27.79,-47.82L22.42,-53.2 M26,-55.27L31.38,-49.89 M34.96,-51.96L29.59,-57.34 M33.18,-59.41L38.55,-54.03 M42.14,-56.1L36.76,-61.48 M42.13,-61.77L45.72,-58.18" stroke="black" stroke-width="0.5"></path><path d=" M-95.61,-7.97L-94.67,-7.04 M-81.29,0.69L-91.66,-9.69 M-78.28,-1.96L-70.61,5.71 M-30.29,-78.42L-23.28,-71.41 M-8.88,-62.67L-9.87,-63.65 M-9.9,-63.68L-22.21,-76 M-8.83,-68.27L-5.29,-64.74" stroke="black" stroke-width="0.5"></path><path d=" M9.85,-39.19L9.85,-47.66 M17.85,-43.05L17.85,-34.57 M25.85,-29.95L25.85,-35.15 M33.85,-27.26L33.85,-22.06 M41.85,-14.16L41.85,-22.64 M49.85,-14.75L49.85,-9.54 M57.85,-1.65L57.85,-6.85 M65.85,-2.24L65.85,6.24 M73.85,14.14L73.85,5.66 M81.85,13.55L81.85,18.75 M89.85,26.65L89.85,21.44 M97.85,26.06L97.85,34.54 M105.85,42.43L105.85,33.95 M113.85,41.85L113.85,47.05 M121.85,54.94L121.85,46.47 M129.85,54.36L129.85,62.84 M137.85,70.73L137.85,62.25 M145.85,69.99L145.85,75.35 M153.85,83.24L153.85,74.76 M161.85,82.66L161.85,91.14 M193.85,-157.53L193.85,-152.32" stroke="black" stroke-width="0.5"></path><path d=" M-45.93,-14.91L-51.41,-20.39 M-42.92,-17.56L-32.54,-7.18 M-26.41,-6.71L-29.53,-9.83 M35.12,-35.68L29.75,-41.06 M33.33,-43.13L38.71,-37.75 M42.29,-39.83L36.92,-45.2 M40.51,-47.27L45.88,-41.9 M49.47,-43.97L44.09,-49.34 M47.68,-51.41L53.05,-46.04 M56.64,-48.11L51.88,-52.86" stroke="black" stroke-width="0.5"></path><path d="" stroke="black" stroke-width="0.5"></path><path d="" stroke="black" stroke-width="0.5"></path><path d=" M-93.78,2.48L-103.15,-6.89 M-90.77,-0.16L-81.74,8.87 M-41.42,-75.27L-33.83,-67.68 M-20.01,-59.51L-32.76,-72.27 M-19.38,-64.54L-16.42,-61.59" stroke="black" stroke-width="0.5"></path><path d=" M-41.62,-22.77L-38.45,-19.6 M-25.07,-11.87L-35.44,-22.25 M-22.06,-14.52L-16.62,-9.08 M40.66,-30.99L46.04,-25.62 M49.63,-27.69L44.25,-33.06 M47.84,-35.13L53.21,-29.76 M56.8,-31.83L51.42,-37.2 M55.01,-39.27L60.38,-33.9 M63.97,-35.97L58.6,-41.34 M62.18,-43.41L67.56,-38.04" stroke="black" stroke-width="0.5"></path><path d=" M-12.1,70.16L-2,60.06 M-2,51.58L-32.17,81.75 M-52.25,93.34L-2,43.09 M-2,34.6L-72.33,104.93 M-92.4,116.52L-2.07,26.19 M-2,17.63L-112.48,128.11 M-132.56,139.7L-2,9.15 M-2,0.66L-152.63,151.3 M-172.71,162.89L-1.46,-8.36 M-12.55,-5.76L-192.79,174.48 M-212.86,186.07L-23.27,-3.53 M-34.7,-0.57L-217.63,182.36 M-209.32,165.56L-47.03,3.27 M-59.36,7.12L-201.01,148.76 M-192.7,131.96L-71.69,10.96 M-84.02,14.8L-184.38,115.16 M-176.07,98.37L-95.87,18.17 M-106.96,20.77L-167.76,81.57 M-159.44,64.77L-118.05,23.37 M-129.14,25.98L-151.13,47.97 M-142.82,31.17L-140.22,28.58 M-216.07,95.94L-224.84,104.71 M-224.84,96.22L-203.49,74.87 M-190.91,53.81L-224.84,87.74 M-224.84,79.25L-194.99,49.4 M-200.48,46.41L-224.84,70.77 M-224.84,62.28L-200.48,37.93 M-200.48,29.44L-224.84,53.8 M-224.84,45.31L-200.48,20.96 M-2,-186.01L-5.56,-182.45 M-12.63,-175.38L-13.31,-174.7 M-200.48,12.47L-224.84,36.83 M-224.84,28.34L-200.48,3.99 M-59.69,-136.81L-2,-194.5 M-2,-202.98L-51.38,-153.61 M-90.24,-114.74L-138.68,-66.31 M-140.23,-64.75L-146.42,-58.56 M-150.86,-54.12L-154.17,-50.81 M-161.5,-43.49L-161.92,-43.07 M-200.48,-4.5L-224.84,19.86 M-224.84,11.37L-200.48,-12.98 M-189.74,-23.73L-77.66,-135.81 M-43.06,-170.41L-2,-211.47 M-2,-219.95L-34.75,-187.21 M-65.07,-156.88L-224.84,2.89 M-224.84,-5.6L-52.49,-177.95 M-26.44,-204L-2,-228.44 M-2,-236.92L-18.12,-220.8 M-39.9,-199.02L-154.27,-84.65 M-160.19,-78.74L-224.84,-14.08 M-224.84,-22.57L-168.1,-79.31 M-165.03,-82.38L-157.95,-89.46 M-155.07,-92.34L-27.32,-220.09 M-9.81,-237.6L-2,-245.41 M-14.74,-241.16L-224.84,-31.06 M-224.84,-39.54L-11.26,-253.12 M-31.33,-241.53L-224.84,-48.03 M-224.84,-56.51L-51.41,-229.94 M-71.49,-218.35L-224.84,-65 M-224.84,-73.48L-91.56,-206.76 M-111.64,-195.17L-224.84,-81.97 M-224.84,-90.45L-131.71,-183.58 M-151.79,-171.99L-224.84,-98.94 M-224.84,-107.42L-171.87,-160.4 M-191.94,-148.8L-224.84,-115.91 M-224.84,-124.39L-212.02,-137.21" stroke="black" stroke-width="0.5"></path><path d=" M-18.94,-29.32L-11.88,-22.27 M2.48,-13.56L-15.35,-31.39 M-11.76,-33.46L6.06,-15.63 M9.65,-17.7L-8.18,-35.53 M-4.59,-37.6L13.24,-19.77 M16.82,-21.84L-1.01,-39.67 M9.63,-34.7L20.41,-23.92 M24,-25.99L23.01,-26.97 M65.62,-6.99L62.03,-10.58 M65.61,-12.65L70.99,-7.28 M74.57,-9.35L69.2,-14.72 M72.79,-16.79L78.16,-11.42 M81.75,-13.49L76.37,-18.86 M79.96,-20.94L85.33,-15.56 M88.92,-17.63L83.54,-23.01" stroke="black" stroke-width="0.5"></path><path d=" M-116.49,-2.47L-114.51,-0.48 M-101.12,7.25L-111.5,-3.13 M-98.11,4.6L-91.49,11.22 M-52.63,-68.71L-54.76,-70.85 M-51.18,-72.92L-39.24,-60.98 M-29.76,-57.16L-38.17,-65.57" stroke="black" stroke-width="0.5"></path><path d="" stroke="black" stroke-width="0.5"></path><path d=" M-30.98,-24.29L-31.84,-25.15 M-27.97,-26.94L-17.59,-16.56 M-6.84,-11.46L-14.59,-19.21 M56.96,-15.55L51.58,-20.92 M55.17,-22.99L60.54,-17.62 M64.13,-19.69L58.75,-25.06 M62.34,-27.13L67.72,-21.76 M71.3,-23.83L65.93,-29.21 M69.51,-31.28L74.89,-25.9 M78.47,-27.97L73.1,-33.35" stroke="black" stroke-width="0.5"></path><path d="" stroke="black" stroke-width="0.5"></path><path d=" M4.61,-6.9L6.26,-5.24 M13.05,-4.11L8.19,-8.97 M11.78,-11.04L16.63,-6.18 M20.22,-8.25L15.36,-13.11 M18.95,-15.18L23.81,-10.32 M27.39,-12.4L22.54,-17.25 M26.12,-19.32L30.98,-14.47 M34.57,-16.54L33.41,-17.69 M76.02,2.29L73.12,-0.61 M76.7,-2.68L82.08,2.69 M85.66,0.62L80.29,-4.76 M83.87,-6.83L89.25,-1.45 M92.83,-3.52L87.46,-8.9 M91.05,-10.97L96.42,-5.59 M100.01,-7.66L94.63,-13.04 M103.17,-10.16L103.59,-9.73" stroke="black" stroke-width="0.5"></path><path d="" stroke="black" stroke-width="0.5"></path><path d="" stroke="black" stroke-width="0.5"></path><path d=" M22.37,6.06L17.52,1.2 M21.1,-0.87L25.96,3.99 M29.54,1.92L24.69,-2.94 M28.27,-5.01L33.13,-0.16 M36.72,-2.23L31.86,-7.08 M35.45,-9.15L40.3,-4.3 M43.89,-6.37L39.16,-11.1 M86.54,8L91.92,13.38 M95.51,11.31L90.13,5.93 M93.72,3.86L99.09,9.24 M102.68,7.17L97.3,1.79 M100.89,-0.28L106.26,5.1 M109.85,3.03L104.48,-2.35 M108.92,-3.56L113.44,0.95" stroke="black" stroke-width="0.5"></path><path d="" stroke="black" stroke-width="0.5"></path><path d="" stroke="black" stroke-width="0.5"></path><path d=" M-126.24,-0.11L-121.86,4.28 M-108.47,12.01L-118.85,1.63 M-105.46,9.36L-101.24,13.58 M-58.04,-62.01L-64.52,-68.49 M-56.97,-66.6L-44.66,-54.29 M-43.47,-53.1L-43.1,-52.73 M-39.52,-54.8L-43.58,-58.87" stroke="black" stroke-width="0.5"></path><path d=" M25.46,12.16L26,12.7 M33.91,14.95L29.05,10.09 M32.64,8.02L37.49,12.88 M41.08,10.81L36.22,5.95 M39.81,3.88L44.66,8.74 M48.25,6.67L43.39,1.81 M46.98,-0.26L51.84,4.6 M55.42,2.53L53.15,0.26 M95.76,20.24L95.01,19.49 M98.6,17.42L103.97,22.79 M107.56,20.72L102.18,15.34 M105.77,13.27L111.14,18.65 M114.73,16.58L109.36,11.2 M112.94,9.13L118.32,14.51 M121.9,12.44L116.53,7.06 M122.91,7.79L125.49,10.37" stroke="black" stroke-width="0.5"></path><path d=" M7.04,-255.56L7.04,-188.15 M7.04,-0.18L7.04,67.24 M15.04,71.86L15.04,7.72 M15.04,-186.8L15.04,-250.94 M23.04,-246.32L23.04,-185.46 M23.04,15.61L23.04,76.47 M31.04,81.09L31.04,23.5 M31.04,-183.26L31.04,-241.7 M39.04,-237.08L39.04,-186.09 M39.04,-179.84L39.04,-179.49 M39.04,28.12L39.04,85.71 M47.04,90.33L47.04,36.02 M47.04,-178.15L47.04,-232.47 M55.04,-227.85L55.04,-176.8 M55.04,43.91L55.04,94.95 M63.04,99.57L63.04,51.8 M63.04,-174.58L63.04,-223.23 M71.04,-218.61L71.04,-174.12 M71.04,-171.31L71.04,-170.84 M71.04,56.42L71.04,104.19 M79.04,108.81L79.04,64.31 M79.04,-174.18L79.04,-213.99 M87.04,-209.37L87.04,-174.7 M87.04,-171.54L87.04,-170.43 M87.04,72.21L87.04,113.42 M95.04,118.04L95.04,80.1 M95.04,-166.08L95.04,-167.16 M95.04,-173.79L95.04,-204.75 M103.04,-200.13L103.04,-170.66 M103.04,-162.77L103.04,-162.19 M103.04,84.72L103.04,122.66 M111.04,127.28L111.04,92.61 M111.04,-166.28L111.04,-167.39 M111.04,-173.94L111.04,-195.51 M119.04,-190.9L119.04,-170.9 M119.04,-163L119.04,-161.89 M119.04,100.5L119.04,131.9 M127.04,136.52L127.04,108.4 M127.04,-157.51L127.04,-158.62 M127.04,-166.51L127.04,-186.28 M135.04,-181.66L135.04,-168.94 M135.04,-163.24L135.04,-162.13 M135.04,-154.23L135.04,-153.54 M135.04,113.02L135.04,141.14 M143.04,145.76L143.04,120.91 M143.04,-157.74L143.04,-158.85 M143.04,-166.66L143.04,-177.04 M151.04,-172.42L151.04,-161.77 M151.04,-154.47L151.04,-153.36 M151.04,128.8L151.04,150.38 M159.04,154.99L159.04,136.69 M159.04,-148.97L159.04,-150.08 M159.04,-156.46L159.04,-167.8 M167.04,-163.18L167.04,-151.03 M167.04,-145.7L167.04,-144.88 M167.04,141.31L167.04,159.61 M175.04,164.23L175.04,-158.56 M183.04,-153.95L183.04,168.85 M191.04,173.47L191.04,-149.33 M199.04,-144.71L199.04,178.09 M207.04,182.71L207.04,-140.09 M215.04,-135.47L215.04,187.33 M223.04,191.94L223.04,-130.85" stroke="black" stroke-width="0.5"></path><path d="" stroke="black" stroke-width="0.5"></path><path d="" stroke="black" stroke-width="0.5"></path><path d=" M37,21.06L40,24.06 M45.44,23.84L40.58,18.99 M44.17,16.92L49.03,21.77 M52.61,19.7L47.76,14.85 M51.34,12.78L56.2,17.63 M59.78,15.56L54.93,10.7 M58.51,8.63L63.37,13.49 M109.76,31.59L107.06,28.9 M110.65,26.83L116.02,32.2 M119.61,30.13L114.24,24.76 M117.82,22.69L123.2,28.06 M126.78,25.99L121.41,20.62 M124.99,18.55L130.37,23.92 M133.96,21.85L128.58,16.47 M136.91,19.14L137.54,19.78" stroke="black" stroke-width="0.5"></path><path d="" stroke="black" stroke-width="0.5"></path><path d=" M-136,2.25L-129.21,9.04 M-114.58,18.01L-115.31,17.27 M-115.82,16.77L-126.2,6.39 M-112.81,14.12L-111,15.94 M-77.86,-64.06L-76.84,-63.04 M-63.45,-55.31L-74.27,-66.13 M-62.38,-59.9L-52.85,-50.37" stroke="black" stroke-width="0.5"></path><path d="" stroke="black" stroke-width="0.5"></path><path d=" M50.03,29.08L54.89,33.94 M58.47,31.87L53.62,27.01 M57.2,24.94L62.06,29.8 M65.65,27.73L60.79,22.87 M64.38,20.8L69.23,25.66 M72.82,23.59L67.96,18.73 M73.36,18.47L76.4,21.52 M125.99,42.82L120.62,37.44 M124.2,35.37L129.58,40.75 M133.16,38.68L127.79,33.3 M131.38,31.23L136.75,36.61 M140.34,34.54L134.96,29.16 M138.55,27.09L143.92,32.47 M147.51,30.4L143.12,26" stroke="black" stroke-width="0.5"></path><path d="" stroke="black" stroke-width="0.5"></path><path d="" stroke="black" stroke-width="0.5"></path><path d=" M57.38,40.4L57.95,40.97 M65.82,43.18L60.96,38.33 M64.55,36.25L69.4,41.11 M72.99,39.04L68.14,34.18 M71.72,32.11L76.58,36.97 M80.16,34.9L75.31,30.04 M78.89,27.97L83.75,32.83 M87.34,30.76L85.1,28.52 M132.07,47.2L137.44,52.58 M141.03,50.51L135.65,45.13 M139.24,43.06L144.61,48.44 M148.2,46.37L142.83,40.99 M146.41,38.92L151.79,44.3 M155.37,42.23L150,36.85 M154.86,36.06L158.96,40.16" stroke="black" stroke-width="0.5"></path><path d=" M-145.75,4.6L-136.55,13.8 M-124.34,20.36L-133.55,11.15 M-87.61,-61.7L-82.25,-56.34 M-68.87,-48.62L-81.18,-60.93 M-67.79,-53.2L-62.61,-48.02" stroke="black" stroke-width="0.5"></path><path d="" stroke="black" stroke-width="0.5"></path><path d=" M68.01,49.81L68.58,50.38 M76.45,52.59L71.59,47.74 M75.18,45.67L80.04,50.52 M83.62,48.45L78.77,43.6 M82.35,41.53L87.21,46.38 M90.8,44.31L85.94,39.46 M89.53,37.39L94.38,42.24 M97.97,40.17L95.73,37.94 M143.22,57.14L148.59,62.51 M152.18,60.44L146.8,55.07 M150.39,53L155.77,58.37 M159.35,56.3L153.98,50.93 M157.56,48.85L162.94,54.23 M166.52,52.16L161.15,46.78 M165.49,45.47L168.13,48.11" stroke="black" stroke-width="0.5"></path><path d="" stroke="black" stroke-width="0.5"></path><path d=" M81.93,57.33L86.78,62.18 M90.37,60.11L85.51,55.26 M89.1,53.18L93.96,58.04 M97.54,55.97L92.69,51.11 M96.27,49.04L101.13,53.9 M104.71,51.83L99.86,46.97 M105.24,46.7L108.3,49.76 M159.44,72.62L154.07,67.24 M157.66,65.17L163.03,70.55 M166.62,68.48L161.24,63.1 M164.83,61.03L168.13,64.33" stroke="black" stroke-width="0.5"></path><path d=" M-157.29,10.83L-159.09,9.03 M-154.28,8.19L-143.9,18.56 M-134.09,22.72L-140.89,15.91 M-97.36,-59.35L-87.66,-49.65 M-75.95,-43.59L-86.59,-54.23 M-73.2,-46.5L-72.36,-45.66" stroke="black" stroke-width="0.5"></path><path d="" stroke="black" stroke-width="0.5"></path><path d=" M97.12,71.77L92.26,66.91 M95.85,64.84L100.7,69.7 M104.29,67.63L99.43,62.77 M103.02,60.7L107.87,65.56 M111.46,63.49L106.6,58.63 M110.19,56.56L115.05,61.42 M118.63,59.34L114.75,55.47 M164.92,77.35L168.13,80.56" stroke="black" stroke-width="0.5"></path><path d="" stroke="black" stroke-width="0.5"></path><path d=" M-164.64,15.6L-168.84,11.39 M-161.63,12.95L-151.25,23.32 M-143.84,25.08L-148.24,20.68 M-106.46,-50.68L-110.7,-54.92 M-105.39,-55.26L-93.07,-42.95 M-85.7,-41.23L-92,-47.53" stroke="black" stroke-width="0.5"></path><path d=" M106.06,81.85L101.4,77.19 M104.99,75.12L109.85,79.97 M113.43,77.9L108.58,73.04 M112.16,70.97L117.02,75.83 M120.6,73.76L115.75,68.9 M119.33,66.83L124.19,71.69 M127.78,69.62L122.92,64.76" stroke="black" stroke-width="0.5"></path><path d="" stroke="black" stroke-width="0.5"></path><path d="" stroke="black" stroke-width="0.5"></path><path d=" M112.88,86.11L117.73,90.97 M121.32,88.9L116.46,84.04 M120.05,81.97L124.9,86.83 M128.49,84.76L123.63,79.9 M127.22,77.83L132.08,82.69 M135.66,80.62L130.81,75.76 M134.39,73.69L139.25,78.55" stroke="black" stroke-width="0.5"></path><path d="" stroke="black" stroke-width="0.5"></path><path d=" M-171.99,20.36L-178.6,13.75 M-168.98,17.71L-158.6,28.08 M-157.7,28.98L-157.18,29.5 M-153.59,27.43L-155.59,25.44 M-111.87,-43.98L-120.46,-52.56 M-110.8,-48.56L-99.04,-36.81 M-95.45,-38.88L-97.41,-40.84" stroke="black" stroke-width="0.5"></path><path d="" stroke="black" stroke-width="0.5"></path><path d=" M127.87,100.67L123.01,95.82 M126.6,93.74L131.45,98.6 M135.04,96.53L130.18,91.67 M133.77,89.6L138.63,94.46 M142.21,92.39L137.36,87.53 M140.94,85.46L145.8,90.32 M149.38,88.25L144.53,83.39" stroke="black" stroke-width="0.5"></path><path d="" stroke="black" stroke-width="0.5"></path><path d=" M132.39,105.95L134.54,108.11 M140.83,108.74L135.97,103.88 M139.56,101.81L144.41,106.67 M148,104.6L143.14,99.74 M146.73,97.67L151.59,102.53 M155.17,100.46L150.32,95.6 M153.9,93.53L158.76,98.39 M162.35,96.32L161.69,95.66 M228.84,111.9L230.43,113.49 M234.01,111.42L228.84,106.24 M232.23,103.97L237.6,109.35" stroke="black" stroke-width="0.5"></path><path d="" stroke="black" stroke-width="0.5"></path><path d=" M-179.33,25.12L-188.35,16.1 M-176.32,22.47L-166.93,31.86 M-133.79,-48.14L-130.67,-45.01 M-117.28,-37.28L-129.59,-49.59 M-116.21,-41.87L-108.79,-34.45" stroke="black" stroke-width="0.5"></path><path d="" stroke="black" stroke-width="0.5"></path><path d=" M144.83,114.32L149.68,119.18 M153.27,117.11L148.41,112.25 M152,110.18L156.86,115.04 M160.44,112.97L155.59,108.11 M159.17,106.04L164.03,110.9 M167.61,108.83L162.76,103.97 M166.34,101.9L168.13,103.69 M228.84,130.45L229.04,130.66 M232.63,128.59L228.84,124.8 M230.84,121.14L236.22,126.52 M239.8,124.45L234.43,119.07 M238.01,117L243.39,122.38 M246.98,120.31L241.6,114.93 M248.83,116.5L250.56,118.24" stroke="black" stroke-width="0.5"></path><path d="" stroke="black" stroke-width="0.5"></path><path d="" stroke="black" stroke-width="0.5"></path><path d=" M154.69,124.18L159.55,129.04 M163.13,126.97L158.28,122.11 M161.86,120.04L166.72,124.9 M168.13,120.65L165.45,117.97" stroke="black" stroke-width="0.5"></path><path d="" stroke="black" stroke-width="0.5"></path><path d=" M-195.57,45.12L-196.48,44.21 M-196.48,38.55L-191.99,43.05 M-188.4,40.98L-196.48,32.89 M-196.48,27.24L-184.81,38.91 M-181.23,36.84L-196.48,21.58 M-187.23,25.18L-177.64,34.77 M-144.5,-45.23L-139.63,-40.36 M-126.25,-32.64L-138.56,-44.95 M-125.18,-37.22L-119.5,-31.54" stroke="black" stroke-width="0.5"></path><path d=" M168.13,136.67L165.15,133.69" stroke="black" stroke-width="0.5"></path><path d=" M-155.87,-41.94L-151.07,-37.15 M-137.69,-29.42L-150,-41.73 M-136.62,-34L-130.87,-28.25" stroke="black" stroke-width="0.5"></path><path d=" M-158.79,-31.78L-164.16,-37.15 M-157.71,-36.36L-144.82,-23.47 M-141.24,-25.54L-144.33,-28.63" stroke="black" stroke-width="0.5"></path><path d=" M-167.04,-26.72L-170.52,-30.2 M-165.97,-31.3L-155.34,-20.67 M-151.75,-22.74L-152.58,-23.58" stroke="black" stroke-width="0.5"></path><path d=" M-179.34,-25.12L-176.69,-22.47 M-166.23,-17.66L-175.62,-27.05" stroke="black" stroke-width="0.5"></path><path d=" M-219.7,194.63L-211.1,203.23 M-197.72,210.95L-216.11,192.56 M-212.52,190.49L-184.33,218.68 M-170.95,226.41L-208.94,188.42 M-205.35,186.35L-157.57,234.14 M-144.18,241.86L-201.76,184.28 M-198.18,182.21L-130.8,249.59 M-117.41,257.32L-194.59,180.14 M-191,178.07L-104.03,265.05 M-90.64,272.77L-187.42,176 M-183.83,173.93L-77.26,280.5 M-63.88,288.23L-180.25,171.86 M-176.66,169.79L-50.49,295.95 M-37.11,303.68L-173.07,167.72 M-169.49,165.65L-23.72,311.41 M-10.34,319.14L-165.9,163.57 M-162.31,161.5L0.82,324.63 M4.4,322.56L-158.73,159.43 M-155.14,157.36L7.99,320.49 M11.58,318.42L-151.56,155.29 M-147.97,153.22L15.16,316.35 M18.75,314.28L-144.38,151.15 M-140.8,149.08L22.33,312.21 M25.92,310.14L-137.21,147.01 M-133.62,144.94L29.51,308.07 M33.09,306L-130.04,142.87 M-126.45,140.8L36.68,303.93 M40.27,301.86L-122.86,138.73 M-119.28,136.66L43.85,299.79 M47.44,297.72L-115.69,134.59 M-112.11,132.52L51.02,295.65 M54.61,293.58L-108.52,130.45 M-104.93,128.38L58.2,291.51 M61.78,289.44L-101.35,126.3 M-97.76,124.23L65.37,287.36 M68.96,285.29L-94.17,122.16 M-90.59,120.09L72.54,283.22 M76.13,281.15L-87,118.02 M-83.42,115.95L79.71,279.08 M83.3,277.01L-79.83,113.88 M-76.24,111.81L86.89,274.94 M90.47,272.87L-72.66,109.74 M-69.07,107.67L94.06,270.8 M97.65,268.73L-65.48,105.6 M-61.9,103.53L101.23,266.66 M104.82,264.59L-58.31,101.46 M-54.73,99.39L108.41,262.52 M111.99,260.45L-51.14,97.32 M-47.55,95.25L115.58,258.38 M119.16,256.31L-43.97,93.18 M-40.38,91.11L122.75,254.24 M126.34,252.17L-36.79,89.04 M-33.21,86.96L129.92,250.09 M133.51,248.02L-29.62,84.89 M-26.03,82.82L137.1,245.95 M140.68,243.88L-22.45,80.75 M-18.86,78.68L144.27,241.81 M147.85,239.74L-15.28,76.61 M-11.69,74.54L151.44,237.67 M155.03,235.6L-8.1,72.47 M-4.52,70.4L158.61,233.53 M162.2,231.46L-0.93,68.33 M9.91,73.51L165.79,229.39 M169.37,227.32L23.3,81.24 M36.68,88.97L172.96,225.25 M176.54,223.18L50.06,96.7 M63.45,104.42L180.13,221.11 M183.72,219.04L76.83,112.15 M90.22,119.88L187.3,216.97 M190.89,214.9L103.6,127.61 M116.98,135.33L194.48,212.82 M198.06,210.75L130.37,143.06 M143.75,150.79L201.65,208.68 M205.24,206.61L157.14,158.52 M170.52,166.24L208.82,204.54 M212.41,202.47L183.91,173.97 M197.29,181.7L215.99,200.4 M219.58,198.33L210.67,189.43" stroke="black" stroke-width="0.5"></path><path d=" M-184.61,-17.22L-187.69,-20.3 M-183.54,-21.8L-176.65,-14.92" stroke="black" stroke-width="0.5"></path><path d=" M-193.58,-16.89L-188.2,-11.52" stroke="black" stroke-width="0.5"></path><path d="" stroke="black" stroke-width="0.5"></path><path d=" M-228.84,-13.61L-234.62,-19.39" stroke="black" stroke-width="0.5"></path><path d=" M-248.33,-14.75L-240.51,-6.93 M-228.84,-0.91L-244.75,-16.82 M-233.8,-11.53L-228.84,-6.57" stroke="black" stroke-width="0.5"></path></g></svg>